<svg width="29" height="29" viewBox="0 0 29 29" fill="none" xmlns="http://www.w3.org/2000/svg">
<g clip-path="url(#clip0_1161_2188)">
<path d="M16.5827 28.9959L12.6289 29C12.1637 28.9992 11.7334 28.9855 11.6749 28.3893C11.6369 28.0012 11.6638 27.5891 11.6636 27.1986V17.4087C11.4974 17.3695 11.2532 17.402 11.0801 17.4026L1.25276 17.405C0.672903 17.4047 0.0421858 17.5054 0.00443543 16.7113L0 12.7664C0.00374547 11.3545 0.491544 11.6294 1.61381 11.629L11.664 11.6229L11.6636 1.69217C11.664 0.946886 11.4038 0.0320445 12.4561 0L16.362 0.00442332C17.5149 0.00481651 17.3426 0.411861 17.3426 1.30508L17.3423 10.5581C17.3425 10.9093 17.3304 11.2656 17.3529 11.6161C17.4149 11.6525 17.6649 11.628 17.7461 11.628L27.8663 11.6274C28.0961 11.6271 28.468 11.5491 28.6623 11.6971L28.7899 11.8044C28.9827 12.0009 28.9965 12.1898 28.9974 12.4509L29.0001 16.444C28.9999 17.2278 28.8539 17.4012 28.1113 17.4032L17.3462 17.403L17.3426 27.4567C17.3426 28.1569 17.5697 28.955 16.5828 28.9958L16.5827 28.9959Z" fill="#EB5C03"/>
</g>
<defs>
<clipPath id="clip0_1161_2188">
<rect width="29" height="29" fill="white"/>
</clipPath>
</defs>
</svg>
