<svg width="132" height="107" viewBox="0 0 132 107" fill="none" xmlns="http://www.w3.org/2000/svg">
<path d="M17.7081 49.6213C16.9581 51.7613 16.5781 54.0113 16.5781 56.2713V59.1712C16.5781 60.5812 17.7281 61.7313 19.1381 61.7313H51.9581C53.3681 61.7313 54.5181 60.5812 54.5181 59.1712V56.2313C54.5181 53.9913 54.1381 51.7713 53.4081 49.6513V49.6113C51.8281 45.2213 48.5081 41.8412 44.4181 40.0312C41.8881 41.7912 38.8181 42.8013 35.5481 42.8013C32.2781 42.8013 29.2081 41.7813 26.6881 40.0513C22.5681 41.8313 19.2781 45.2413 17.7081 49.6113V49.6213Z" fill="#EA5413"/>
<path d="M35.5503 37.5884C41.3203 37.5884 46.0403 32.8984 46.0403 27.1084C46.0403 21.3184 41.3303 16.6484 35.5503 16.6484C29.7703 16.6484 25.0703 21.3384 25.0703 27.1084C25.0703 32.8784 29.7803 37.5884 35.5503 37.5884Z" fill="#EA5413"/>
<path d="M64.9078 56.4375C63.4478 56.4375 62.2578 57.6175 62.2578 59.0875C62.2578 60.5575 63.4378 61.7375 64.9078 61.7375H90.4178C91.8778 61.7375 93.0678 60.5575 93.0678 59.0875C93.0678 57.6175 91.8878 56.4375 90.4178 56.4375H64.9078Z" fill="#EA5413"/>
<path d="M105.358 46.5719C105.358 45.1119 104.178 43.9219 102.708 43.9219H64.9078C63.4478 43.9219 62.2578 45.1019 62.2578 46.5719C62.2578 48.0419 63.4378 49.2219 64.9078 49.2219H102.708C104.168 49.2219 105.358 48.0419 105.358 46.5719Z" fill="#EA5413"/>
<path d="M9.96 69.92C8.11 69.92 6.56 68.41 6.56 66.55V10C6.56 8.15 8.11 6.63 9.96 6.63H111.78C113.63 6.63 115.14 8.14 115.14 10V61.25L121.74 64.68V10C121.74 4.52 117.27 0 111.78 0H9.96C4.44 0 0 4.51 0 10V77.94C0 83.42 4.44 87.9 9.96 87.9H50.71L48.86 99.54H42.06C40.24 99.54 38.76 101.02 38.76 102.84C38.76 104.66 40.24 106.14 42.06 106.14H79.68C81.5 106.14 82.98 104.66 82.98 102.84C82.98 101.02 81.5 99.54 79.68 99.54H72.88L71.03 87.9H98.57L94.44 69.93H9.96V69.92Z" fill="#C8C8C8"/>
<path d="M130.602 77.8683L103.742 63.9083C102.402 63.2083 100.872 64.4083 101.202 65.8683L107.982 95.3683C108.322 96.8683 110.282 97.2383 111.152 95.9783L115.922 89.1083L123.772 99.2583C124.372 100.028 125.472 100.168 126.252 99.5783L130.082 96.6183C130.852 96.0183 130.992 94.9083 130.402 94.1383L122.552 83.9883L130.402 81.0983C131.842 80.5683 131.962 78.5783 130.602 77.8783V77.8683Z" fill="#EA5413"/>
<path d="M65.9578 16.6484H101.658C103.698 16.6484 105.358 18.3084 105.358 20.3484V32.9984C105.358 35.0384 103.698 36.6984 101.658 36.6984H65.9578C63.9178 36.6984 62.2578 35.0384 62.2578 32.9984V20.3484C62.2578 18.3084 63.9178 16.6484 65.9578 16.6484Z" fill="#EA5413"/>
</svg>
