<svg width="200" height="120" viewBox="0 0 200 120" fill="none" xmlns="http://www.w3.org/2000/svg">
<g clip-path="url(#clip0_1161_178)">
<path fill-rule="evenodd" clip-rule="evenodd" d="M36.5838 0H126.899C129.768 0 132.106 2.352 132.106 5.22158V23.4109H153.507C155.739 23.4109 157.143 24.3522 157.96 25.7629L176.708 57.6099L197.507 66.8149C198.734 68.0455 199.989 69.3826 199.989 71.0952L200.004 101.194C200.004 103.919 197.803 106.129 195.084 106.129H178.884C178.927 105.627 178.947 105.114 178.947 104.604C178.947 93.9682 170.347 85.3518 159.749 85.3518C149.151 85.3518 140.551 93.9682 140.551 104.604C140.551 105.114 140.574 105.627 140.614 106.129H97.4339C97.4769 105.627 97.4972 105.114 97.4972 104.604C97.4972 94.0113 88.933 85.4229 78.3776 85.4229C67.8223 85.4229 59.2505 94.0113 59.2505 104.604C59.2505 105.114 59.2707 105.627 59.3137 106.129H36.2068C33.3454 106.129 31 103.785 31 100.907V5.22158C31 2.352 33.3454 0 36.2068 0H36.5863H36.5838Z" fill="#161616"/>
<path fill-rule="evenodd" clip-rule="evenodd" d="M78.3705 89.1953C86.8537 89.1953 93.7329 96.0915 93.7329 104.594C93.7329 113.096 86.8562 120 78.3705 120C69.8847 120 63.0156 113.103 63.0156 104.594C63.0156 96.0838 69.8923 89.1953 78.3705 89.1953Z" fill="#161616"/>
<path fill-rule="evenodd" clip-rule="evenodd" d="M159.745 89.1953C168.229 89.1953 175.1 96.0915 175.1 104.594C175.1 113.096 168.229 120 159.745 120C151.262 120 144.391 113.103 144.391 104.594C144.391 96.0838 151.262 89.1953 159.745 89.1953Z" fill="#161616"/>
<path fill-rule="evenodd" clip-rule="evenodd" d="M137.651 30.2188H147.913C152.201 30.2188 152.834 31.2539 153.917 32.3399L165.742 52.5564C167.384 55.4183 165.613 59.5616 162.114 59.5616L137.651 59.5692C135.2 59.5692 133.211 57.5775 133.211 55.1164V34.6766C133.211 32.2105 135.197 30.2188 137.651 30.2188Z" fill="#F5F5F5"/>
<path d="M17.0642 22.8935C15.5715 22.8935 14.3672 21.6782 14.3672 20.1812C14.3672 18.6843 15.5715 17.4766 17.0642 17.4766H74.3874C75.8801 17.4766 77.092 18.6919 77.092 20.1812C77.092 21.6706 75.8801 22.8935 74.3874 22.8935H17.0642Z" fill="#161616"/>
<path d="M15.2281 28.3076C13.7353 28.3076 12.5234 27.0922 12.5234 25.5953C12.5234 24.0983 13.7353 22.8906 15.2281 22.8906H72.5462C74.0389 22.8906 75.2508 24.1059 75.2508 25.5953C75.2508 27.0846 74.0389 28.3076 72.5462 28.3076H15.2281Z" fill="#F5F5F5"/>
<path d="M7.48609 33.7216C6.00095 33.7216 4.78906 32.5063 4.78906 31.0094C4.78906 29.5124 6.00095 28.3047 7.48609 28.3047H64.8093C66.302 28.3047 67.5139 29.52 67.5139 31.0094C67.5139 32.4987 66.302 33.7216 64.8093 33.7216H7.48609Z" fill="#161616"/>
<path d="M10.4392 39.1357C8.94649 39.1357 7.74219 37.9204 7.74219 36.4234C7.74219 34.9265 8.94649 33.7188 10.4392 33.7188H67.7624C69.2552 33.7188 70.467 34.9341 70.467 36.4234C70.467 37.9128 69.2552 39.1357 67.7624 39.1357H10.4392Z" fill="#F5F5F5"/>
<path d="M12.2827 44.5576C10.79 44.5576 9.57812 43.3422 9.57812 41.8453C9.57812 40.3483 10.79 39.1406 12.2827 39.1406H69.606C71.0911 39.1406 72.303 40.356 72.303 41.8453C72.303 43.3346 71.0911 44.5576 69.606 44.5576H12.2827Z" fill="#161616"/>
<path d="M20.0095 49.9716C18.5168 49.9716 17.3125 48.7563 17.3125 47.2594C17.3125 45.7624 18.5168 44.5547 20.0095 44.5547H77.3327C78.8255 44.5547 80.0298 45.77 80.0298 47.2594C80.0298 48.7487 78.8255 49.9716 77.3327 49.9716H20.0095Z" fill="#F5F5F5"/>
<path d="M2.70462 55.3857C1.21189 55.3857 0 54.1704 0 52.6734C0 51.1765 1.21189 49.9688 2.70462 49.9688H60.0278C61.5206 49.9688 62.7249 51.1841 62.7249 52.6734C62.7249 54.1628 61.5206 55.3857 60.0278 55.3857H2.70462Z" fill="#161616"/>
<path d="M5.64993 60.7998C4.1572 60.7998 2.94531 59.5844 2.94531 58.0875C2.94531 56.5905 4.1572 55.3828 5.64993 55.3828H62.9655C64.4583 55.3828 65.6702 56.5981 65.6702 58.0875C65.6702 59.5768 64.4583 60.7998 62.9655 60.7998H5.64993Z" fill="#F5F5F5"/>
</g>
<defs>
<clipPath id="clip0_1161_178">
<rect width="200" height="120" fill="white"/>
</clipPath>
</defs>
</svg>
