<svg width="129" height="120" viewBox="0 0 129 120" fill="none" xmlns="http://www.w3.org/2000/svg">
<g clip-path="url(#clip0_1161_162)">
<path d="M13.2823 79.4453L0.917179 108.645C-0.978908 111.95 0.159946 116.17 3.45631 118.066C4.54108 118.692 5.719 118.987 6.88489 118.987C9.27078 118.987 11.5906 117.747 12.8646 115.526L25.0495 86.6897L13.2823 79.4453Z" fill="#161616"/>
<path d="M41.0743 118.989C37.2701 118.989 34.1811 115.895 34.1811 112.088V88.7508L8.63347 73.0281C7.34437 71.734 6.61719 69.9763 6.61719 68.1494V32.6559C6.61719 29.8118 8.35401 27.2595 10.9983 26.2272C13.6396 25.1889 26.4885 25.8781 28.4117 27.9728L44.0852 49.0889H52.6882C56.4924 49.0889 59.4883 49.6849 59.4883 53.9647C59.4883 57.7749 56.4954 58.7802 52.6882 58.7802H41.0713C39.1451 58.7802 37.3122 57.9706 36.005 56.562L30.2416 50.3018V65.2842L45.9422 81.0129C47.2343 82.3071 47.9585 84.0587 47.9585 85.8916V112.088C47.9585 115.898 44.8725 118.989 41.0683 118.989H41.0743Z" fill="#161616"/>
<path d="M90.2578 64.499C90.2578 63.8128 90.8167 63.25 91.4988 63.25H100.213C100.898 63.25 101.46 63.8128 101.46 64.499V67.6141C101.46 68.3003 102.019 68.8631 102.704 68.8631H111.418C112.103 68.8631 112.659 68.3003 112.659 67.6141V64.499C112.659 63.8128 113.221 63.25 113.906 63.25H122.614C123.303 63.25 123.862 63.8128 123.862 64.499V90.0484C123.862 90.7377 123.303 91.2975 122.614 91.2975H91.5018C90.8197 91.2975 90.2608 90.7377 90.2608 90.0484V64.499H90.2578Z" fill="#161616"/>
<path d="M90.2578 33.2803C90.2578 32.5941 90.8167 32.0312 91.4988 32.0312H100.213C100.898 32.0312 101.46 32.5941 101.46 33.2803V36.3953C101.46 37.0815 102.019 37.6444 102.704 37.6444H111.418C112.103 37.6444 112.659 37.0815 112.659 36.3953V33.2803C112.659 32.5941 113.221 32.0312 113.906 32.0312H122.614C123.303 32.0312 123.862 32.5941 123.862 33.2803V58.8327C123.862 59.5219 123.303 60.0817 122.614 60.0817H91.5018C90.8197 60.0817 90.2608 59.5219 90.2608 58.8327V33.2803H90.2578Z" fill="#161616"/>
<path d="M124.673 104.541H81.1322C78.7433 104.541 76.8051 102.602 76.8051 100.207V58.3476H65.3114C62.9225 58.3476 60.9844 56.4094 60.9844 54.0137C60.9844 51.6179 62.9225 49.6797 65.3114 49.6797H81.1322C83.5211 49.6797 85.4592 51.624 85.4592 54.0137V95.8727H124.673C127.062 95.8727 129 97.8139 129 100.207C129 102.599 127.062 104.541 124.673 104.541Z" fill="#161616"/>
<path d="M97.8994 114.037C97.8994 117.33 95.234 119.997 91.9497 119.997C88.6653 119.997 86 117.33 86 114.037C86 110.745 88.6653 108.078 91.9497 108.078C95.234 108.078 97.8994 110.751 97.8994 114.037Z" fill="#161616"/>
<path d="M121.696 114.037C121.696 117.33 119.031 119.997 115.747 119.997C112.462 119.997 109.797 117.33 109.797 114.037C109.797 110.745 112.462 108.078 115.747 108.078C119.031 108.078 121.696 110.751 121.696 114.037Z" fill="#161616"/>
<path d="M12.1172 12.5078C12.628 18.2774 17.4629 22.804 23.3585 22.804C29.2541 22.804 34.092 18.2744 34.6028 12.5078H12.1172Z" fill="#161616"/>
<path d="M39.9779 7.69582H34.0493C32.5438 3.2234 28.331 0 23.3549 0C17.1167 0 12.0625 5.06233 12.0625 11.3075H39.9779C40.9726 11.3075 41.7809 10.4979 41.7809 9.50164C41.7809 8.50543 40.9726 7.69582 39.9779 7.69582Z" fill="#161616"/>
</g>
<defs>
<clipPath id="clip0_1161_162">
<rect width="129" height="120" fill="white"/>
</clipPath>
</defs>
</svg>
