<svg width="602" height="308" viewBox="0 0 602 308" fill="none" xmlns="http://www.w3.org/2000/svg">
<path d="M26.3003 6.116L25.8323 12.056C23.7803 11.66 20.1803 10.976 14.7803 10.976C10.5323 10.976 7.32825 11.336 5.78025 11.516L6.03225 5.504C7.83225 5.324 10.8203 5.072 14.4203 5.072C20.3603 5.072 24.4643 5.792 26.3003 6.116ZM8.48025 17.024L12.5843 20.264C11.7923 20.768 8.80425 22.676 8.80425 24.188C8.80425 25.628 10.6043 26.06 11.3963 26.24C13.0883 26.6 14.8883 26.852 17.9483 26.852C23.7443 26.852 27.8483 25.952 30.4763 25.34L30.8723 31.568C26.8403 32.36 22.7723 32.684 18.7043 32.684C14.8883 32.684 2.82825 32.684 2.82825 24.908C2.82825 22.928 3.58425 20.444 8.48025 17.024ZM29.2883 1.544L31.8083 0.139998C33.3203 2.3 34.1843 4.172 35.3362 7.016L32.6363 8.492C31.6283 5.612 30.8003 3.848 29.2883 1.544ZM24.4643 2.732L26.9843 1.364C28.4963 3.56 29.4323 5.576 30.5123 8.24L27.8123 9.716C26.8043 6.872 26.0483 5.288 24.4643 2.732ZM53.9122 2.732V1.22H58.5563V2.732H62.9122V1.22H67.6283V2.732H71.2643V6.584H67.6283V7.772H70.3283V10.796H67.6283V12.056H71.9123V15.836H62.9122V16.916H70.3283V25.772H71.9123V29.624H70.3283V32.36C70.3283 34.304 69.3203 35.456 67.3043 35.456H61.7963L61.1483 31.316H64.8563C65.5043 31.316 65.6483 30.956 65.6483 30.596V29.624H55.7482V35.456H51.1042V29.624H49.7722V25.772H51.1042V16.916H58.3763V15.836H49.7722V12.056H53.9122V10.796H51.2482V7.772H53.9122V6.584H50.3482V2.732H53.9122ZM40.9882 35.636L37.2442 32.792C38.3602 31.28 39.0442 29.984 39.8362 26.708H38.9002V1.976H49.1962V26.708H40.2322L43.6882 28.328C43.5442 29.048 42.6442 33.224 40.9882 35.636ZM45.4162 13.028H43.2202V15.512H45.4162V13.028ZM45.4162 6.836H43.2202V9.284H45.4162V6.836ZM45.4162 19.472H43.2202V21.956H45.4162V19.472ZM58.3763 20.156H55.7482V21.56H58.3763V20.156ZM58.3763 24.296H55.7482V25.772H58.3763V24.296ZM65.6483 20.156H62.9122V21.56H65.6483V20.156ZM65.6483 24.296H62.9122V25.772H65.6483V24.296ZM62.9122 6.584H58.5563V7.772H62.9122V6.584ZM62.9122 10.796H58.5563V12.056H62.9122V10.796ZM44.3002 28.364L47.6842 26.96C49.0162 29.156 50.0603 32.396 50.2762 33.116L46.6042 34.772C45.9562 32 45.4522 30.668 44.3002 28.364ZM80.8402 7.844V2.372H95.8162C95.7442 13.568 97.3282 23.792 110.396 30.02L106.724 35.384C95.4922 29.156 93.5122 21.38 92.7562 18.464C90.0922 27.788 83.6122 32.612 78.6442 35.384L75.1522 30.236C85.5202 25.232 89.8762 16.484 90.2002 7.844H80.8402ZM133.667 9.212L133.523 2.984H139.211L139.319 8.888C141.659 8.672 142.811 8.492 144.647 8.204V13.928C141.551 14.288 140.939 14.36 139.427 14.468L139.607 21.884C141.839 22.856 143.747 23.792 146.231 25.592L144.035 30.848C142.415 29.516 141.119 28.724 139.571 27.896C139.463 29.156 139.067 33.728 132.263 33.728C128.375 33.728 123.947 31.892 123.947 26.996C123.947 23.864 126.071 20.336 131.795 20.336C132.371 20.336 132.407 20.336 133.919 20.48L133.811 14.792C131.399 14.864 128.159 14.864 124.271 14.648L124.307 8.96C128.159 9.212 130.355 9.284 133.667 9.212ZM134.063 25.628C133.631 25.484 132.875 25.232 131.759 25.232C130.175 25.232 128.987 25.88 128.987 27.032C128.987 28.256 130.499 28.832 131.687 28.832C134.099 28.832 134.099 27.32 134.063 25.628ZM117.071 3.092L122.939 3.776C121.607 9.716 120.887 15.008 120.887 21.092C120.887 26.384 121.499 29.948 122.039 32.576L116.531 33.404C115.559 29.3 115.307 25.088 115.307 20.876C115.307 12.812 116.531 6.152 117.071 3.092ZM152.6 4.82L158.432 5.756C158.144 7.592 157.496 11.336 157.496 15.62C157.496 22.064 159.044 26.168 160.412 26.168C161.816 26.168 163.292 21.632 163.796 19.796L168.476 22.928C165.704 31.244 162.716 32.864 160.124 32.864C156.632 32.864 151.556 28.832 151.556 15.368C151.556 11.732 151.916 8.384 152.6 4.82ZM182.516 25.916L176.504 27.644C176.792 19.724 174.416 13.532 171.176 9.824L175.928 6.944C182.588 13.964 182.552 23.252 182.516 25.916ZM187.559 9.464L198.611 7.088C202.895 6.152 205.271 6.116 206.675 6.116C215.783 6.116 219.563 12.02 219.563 18.104C219.563 31.676 204.659 32.36 197.747 32.324L196.415 26.42C200.195 26.564 203.795 26.132 206.171 25.556C207.755 25.16 213.371 23.828 213.371 17.96C213.371 14.216 210.923 11.732 206.747 11.732C204.227 11.732 200.087 12.272 189.323 15.44L187.559 9.464ZM234.034 7.988L235.222 2.264L240.91 3.128L239.866 8.132C242.242 8.132 244.582 7.988 246.958 7.808L246.274 13.244C244.546 13.352 242.458 13.46 238.714 13.46L238.102 16.376C241.702 16.304 243.106 16.232 246.094 16.016L245.374 21.668C242.566 21.848 240.046 21.884 236.95 21.884C236.878 22.46 236.77 23.144 236.77 24.08C236.77 25.268 236.77 28.4 242.638 28.4C245.59 28.4 249.334 27.68 249.334 23.756C249.334 21.452 248.146 19.472 247.606 18.608L252.97 16.808C253.51 17.708 255.13 20.624 255.13 24.188C255.13 29.3 252.034 33.872 242.782 33.872C235.294 33.872 231.082 30.596 231.082 24.368C231.082 23.468 231.118 23.036 231.262 21.776C227.77 21.56 226.654 21.308 225.214 20.732L226.186 15.188C227.914 15.764 229.246 16.016 232.342 16.232L232.954 13.28C229.174 13.064 227.662 12.668 226.798 12.452L227.77 7.052C230.182 7.664 232.522 7.88 234.034 7.988ZM280.51 33.62L277.054 28.868C281.014 27.644 286.558 25.124 286.558 18.176C286.558 16.448 286.27 10.652 279.502 9.284C278.962 13.064 278.026 19.544 275.398 25.664C273.958 28.976 272.158 31.676 268.99 31.676C264.922 31.676 260.89 26.636 260.89 19.76C260.89 10.652 267.73 3.884 277.378 3.884C286.27 3.884 292.498 9.608 292.498 18.248C292.498 29.588 282.634 32.9 280.51 33.62ZM273.778 9.608C268.81 11.192 266.47 15.44 266.47 19.94C266.47 23.216 267.694 25.556 268.774 25.556C269.638 25.556 270.538 23.036 270.97 21.812C272.806 16.52 273.49 11.66 273.778 9.608ZM313.491 35.456L310.395 33.188L307.983 34.448C307.191 32.36 305.535 29.552 304.851 28.472L308.019 26.78H300.063L303.987 28.508C303.483 30.164 302.295 33.44 300.567 35.564L296.607 32.468C298.335 30.596 299.307 27.932 299.631 26.78H298.191V2.3H310.755V26.78H308.595C309.531 28.076 309.999 28.868 310.503 29.624C312.267 25.736 312.663 21.128 312.663 17.276V2.3H331.059V7.376H317.559V10.94H330.015C330.015 17.456 329.655 21.344 326.415 26.924C328.287 28.832 330.231 29.876 331.563 30.56L328.827 35.42C327.711 34.772 325.551 33.476 323.211 31.064C321.303 33.116 319.395 34.304 317.415 35.312L315.291 31.712C314.715 33.296 314.139 34.304 313.491 35.456ZM306.111 13.208H303.087V15.656H306.111V13.208ZM306.111 7.052H303.087V9.392H306.111V7.052ZM306.111 19.616H303.087V22.064H306.111V19.616ZM317.559 15.764V17.24L321.303 16.304C321.591 18.248 322.059 20.264 323.283 22.676C324.687 19.796 324.975 17.348 325.191 15.764H317.559ZM317.523 20.228C317.343 24.44 316.443 28.22 315.759 30.344C318.063 29.12 319.431 27.788 320.223 26.996C318.783 24.44 318.027 22.172 317.523 20.228ZM335.703 23.756V15.836H368.643V23.864H363.027V20.444H341.319V23.756H335.703ZM344.019 21.56H349.815C349.455 31.856 344.307 34.448 336.999 35.672L334.767 30.308C340.743 29.264 343.947 28.004 344.019 21.56ZM363.819 25.736L369.363 26.816C369.183 28.976 368.967 31.568 368.427 32.9C367.491 35.132 365.439 35.132 365.259 35.132H356.763C354.531 35.132 353.307 33.872 353.307 31.604V21.56H358.923V28.904C358.923 29.732 359.139 29.84 359.751 29.84H362.199C363.423 29.84 363.567 29.588 363.819 25.736ZM335.055 8.276V3.344H349.131V1.292H355.035V3.344H369.111V8.276H355.035V10.004H367.455V14.468H336.855V10.004H349.131V8.276H335.055ZM394.779 8.924V11.804H406.731V16.808H394.779V19.76H404.715V34.448H381.603V19.76H389.559V8.924H380.595V19.184C380.595 24.584 379.479 31.28 376.707 35.42L372.423 31.28C374.511 28.292 375.195 22.244 375.195 19.004V3.848H387.687V1.04H393.303V3.848H406.659V8.924H394.779ZM399.351 29.48V24.548H386.895V29.48H399.351ZM421.563 23.108L424.047 20.264H422.139V19.472L420.663 21.848C420.195 21.308 420.087 21.164 419.259 19.832V35.384H414.219V24.296C413.319 26.816 412.383 28.22 411.699 29.3L410.079 21.92C413.067 18.464 413.895 13.244 414.111 12.092H410.691V7.232H414.219V1.292H419.259V7.232H421.959V12.092H419.259V13.532C419.871 14.648 421.167 16.268 422.139 17.168V15.836H430.851V14.252H423.723V10.544H430.851V9.032H422.571V4.748H426.279C425.559 2.768 425.271 2.228 424.983 1.724L430.239 1.148C431.211 2.948 431.679 4.316 431.823 4.748H435.315C435.459 4.388 435.999 3.056 436.431 1.112L441.759 1.76C441.579 2.264 441.147 3.416 440.463 4.748H444.135V9.032H435.927V10.544H443.307V14.252H435.927V15.836H444.747V20.264H441.759L445.143 22.856C442.947 25.268 442.515 25.736 440.859 27.104C442.983 28.796 444.063 29.228 445.215 29.66L443.163 34.916C440.607 33.44 438.267 31.748 435.927 28.4V32.144C435.927 34.916 434.127 35.384 432.759 35.384H427.863L427.215 32.108C424.083 33.764 422.571 34.34 421.671 34.7L420.015 29.804C421.059 29.48 424.695 28.436 428.871 26.276L429.627 30.272C430.311 30.272 430.851 30.272 430.851 29.228V20.264H425.523C427.035 21.38 427.899 22.208 429.339 23.72L425.991 27.068C424.839 25.7 422.967 24.008 421.563 23.108ZM435.927 20.264V21.056C436.215 21.74 436.827 22.784 437.799 24.008C439.599 22.46 440.427 21.38 441.219 20.264H435.927ZM458.903 2.48L464.699 3.488C464.123 6.692 463.907 7.7 463.439 9.788C469.919 9.824 472.691 12.524 472.691 19.904C472.691 32.396 468.803 33.62 464.483 33.62C464.015 33.62 462.287 33.62 460.091 33.116L460.127 27.464C461.207 27.824 462.359 28.04 463.511 28.04C465.455 28.04 465.959 27.14 466.211 26.204C466.787 24.224 466.931 21.02 466.931 19.544C466.931 15.512 465.995 14.936 462.143 15.116C459.623 24.404 457.031 29.912 454.367 34.268L449.435 31.064C453.539 24.476 455.303 18.932 456.239 15.8C453.323 16.196 452.351 16.376 450.083 16.772L449.399 11.264L457.571 10.292C458.039 8.168 458.363 6.62 458.903 2.48ZM481.259 21.992L475.751 23.756C475.571 20.876 475.103 14.396 469.991 9.032L474.311 6.08C480.359 12.164 481.079 19.22 481.259 21.992ZM509.142 5.468L507.162 10.652C500.97 8.348 496.506 7.664 492.366 7.196L494.238 2.264C497.478 2.588 502.446 3.2 509.142 5.468ZM490.062 7.88L495.678 9.104C494.922 12.092 494.67 13.244 493.95 16.664C495.138 16.052 498.954 14.036 503.922 14.036C510.294 14.036 514.578 17.42 514.578 22.928C514.578 27.608 511.59 30.848 507.702 32.216C506.406 32.648 503.454 33.584 497.694 33.584C494.742 33.584 493.014 33.368 491.682 33.188L490.602 27.356C492.258 27.644 494.778 28.076 498.126 28.076C500.106 28.076 508.674 28.076 508.674 22.856C508.674 19.328 504.606 19.328 503.634 19.328C502.554 19.328 497.298 19.328 491.862 24.188L487.254 22.82C487.686 19.868 488.406 14.972 490.062 7.88ZM527.333 21.848C530.537 21.848 533.237 24.404 533.237 27.716C533.237 30.992 530.573 33.62 527.333 33.62C524.057 33.62 521.429 30.992 521.429 27.716C521.429 24.44 524.129 21.848 527.333 21.848ZM527.333 24.26C525.461 24.26 523.877 25.772 523.877 27.716C523.877 29.696 525.497 31.172 527.333 31.172C529.133 31.172 530.789 29.732 530.789 27.716C530.789 25.736 529.169 24.26 527.333 24.26ZM2.088 53.056H11.376C17.208 53.056 21.024 56.728 21.024 62.344C21.024 68.176 17.136 71.344 10.836 71.344H8.172V82H2.088V53.056ZM8.172 65.764H10.152C12.312 65.764 14.94 65.764 14.94 62.272C14.94 59.176 13.104 58.636 10.152 58.636H8.172V65.764ZM49.8358 74.044V80.488C46.8478 81.928 43.8598 82.576 40.5478 82.576C30.1078 82.576 25.0678 75.34 25.0678 67.564C25.0678 58.348 31.9078 52.48 40.5118 52.48C43.8238 52.48 47.0638 53.452 49.8358 55.252L47.8558 60.796C47.0278 60.076 44.7598 58.06 40.5478 58.06C34.4638 58.06 31.1518 62.344 31.1518 67.528C31.1518 72.568 34.2478 76.996 40.9438 76.996C45.4438 76.996 48.4318 74.98 49.8358 74.044ZM60.5922 61.372C63.9402 61.372 66.7482 64.108 66.7482 67.528C66.7482 70.948 63.9762 73.684 60.5922 73.684C57.2082 73.684 54.4362 70.948 54.4362 67.528C54.4362 64.108 57.2082 61.372 60.5922 61.372ZM103.053 79.444L98.4448 83.512C97.4368 82.18 94.0528 77.608 89.2648 73.432C87.1048 75.88 82.7848 80.416 74.8288 83.944L71.2648 79.048C76.9168 76.636 86.2048 71.596 90.7768 60.328H73.9648V54.712H98.9488C97.1488 61.66 95.0248 65.404 92.7928 68.86C94.8088 70.552 98.5888 73.72 103.053 79.444ZM130.75 79.444L126.142 83.512C120.526 76.744 115.198 72.424 112.678 70.444L116.638 66.304C119.914 68.716 121.822 70.408 122.29 70.84C125.206 67.456 127.834 63.892 129.382 61.84H107.746V56.152H136.258L138.382 59.068C133.378 66.412 129.634 70.912 126.43 74.728C128.086 76.42 128.77 77.104 130.75 79.444ZM162.287 58.924H174.239V64.468H162.287V78.76C162.287 83.944 158.327 83.944 153.611 83.908L152.279 78.292C153.791 78.328 155.231 78.364 155.303 78.364C156.311 78.364 156.527 78.148 156.527 77.068V64.468H143.855V58.924H156.527V52.696H162.287V58.924ZM175.247 77.464L170.207 80.596C169.235 78.472 167.399 74.368 163.619 68.968L168.371 65.944C170.279 68.608 172.691 72.136 175.247 77.464ZM147.383 80.848L142.559 77.428C146.123 73.468 148.247 69.94 149.939 65.944L154.979 68.536C153.107 72.892 150.911 76.708 147.383 80.848ZM186.436 56.044L210.484 54.28L210.952 60.04C208.36 60.076 204.796 60.184 200.98 62.344C199.144 63.352 194.788 66.232 194.788 71.02C194.788 76.888 201.988 78.112 205.516 78.364L202.816 84.052C193.96 83.008 188.776 78.328 188.776 71.524C188.776 64.792 193.132 61.84 195.328 60.328L180.28 62.272L179.848 56.26C181.432 56.224 184.672 56.188 186.436 56.044ZM200.944 65.836L203.968 64.108C205.444 65.872 206.596 67.816 208.072 70.84L204.904 72.676C203.68 69.868 202.708 68.14 200.944 65.836ZM205.84 63.1L208.9 61.48C210.88 63.82 212.212 66.304 213.112 68.104L209.908 69.868C208.54 66.952 207.676 65.44 205.84 63.1ZM225.258 59.32H231.918V69.904H222.378V85.456H217.302V59.536L215.25 57.088C217.914 55.108 219.282 53.344 220.434 51.112L226.05 51.58C225.87 52.084 225.834 52.192 225.618 52.66H232.278V55.9C233.61 54.532 234.654 52.804 235.302 51.004L240.738 51.508C240.558 52.048 240.486 52.228 240.306 52.66H249.774V57.088H244.338C244.554 57.448 244.842 57.88 245.166 58.6L241.062 59.32H248.406V81.748C248.406 83.116 248.406 85.456 245.346 85.456H239.586L239.19 83.404H224.61V71.092H241.026V80.092H242.358C242.97 80.092 243.258 79.912 243.258 79.192V69.904H233.826V59.32H233.934L231.558 57.088H228.462C228.714 57.556 229.11 58.348 229.218 58.672L225.258 59.32ZM227.202 62.092H222.378V63.316H227.202V62.092ZM220.83 59.32H224.106C223.962 58.78 223.638 57.772 223.314 57.088H222.81C222.378 57.592 221.874 58.24 220.83 59.32ZM227.202 65.692H222.378V66.952H227.202V65.692ZM243.222 62.092H238.578V63.316H243.222V62.092ZM235.914 59.32H239.694C239.622 59.032 239.298 58.132 238.794 57.088H237.858C237.03 58.204 236.382 58.852 235.914 59.32ZM243.222 65.692H238.578V66.952H243.222V65.692ZM236.31 74.368H229.326V75.736H236.31V74.368ZM236.31 78.472H229.326V79.948H236.31V78.472ZM255.606 56.98H258.63C257.91 55.468 257.19 54.136 256.254 52.768L261.546 51.04C262.806 52.732 263.994 54.784 264.678 56.512L263.202 56.98H268.602C267.666 54.712 267.306 53.92 266.154 52.012L271.626 50.86C272.706 52.552 273.714 54.568 274.362 56.512L271.986 56.98H276.882C278.142 54.712 278.79 53.164 279.51 50.968L285.27 52.372C284.91 53.272 284.406 54.424 282.894 56.98H285.702V73.648H273.318V75.628H287.826V80.56H273.318V85.42H267.99V80.56H253.482V75.628H267.99V73.648H255.606V56.98ZM267.99 61.48H260.898V63.46H267.99V61.48ZM267.99 67.06H260.898V69.112H267.99V67.06ZM280.446 61.48H273.318V63.46H280.446V61.48ZM280.446 67.06H273.318V69.112H280.446V67.06ZM319.254 65.8V67.42H315.438V70.156H324.798V74.944H315.438V78.868C315.438 79.768 315.726 80.02 316.482 80.02H318.966C319.974 80.02 320.37 79.768 320.442 76.096L325.662 76.996C325.374 82.504 324.654 84.952 321.702 84.952H312.918C311.118 84.952 309.966 83.692 309.966 82.18V74.944H305.934C305.034 79.3 302.55 83.332 294.054 85.564L291.318 80.308C295.854 79.624 299.202 78.04 300.318 74.944H292.146V70.156H301.038V67.42H297.654V65.764C295.674 66.844 294.594 67.348 293.082 68.068L290.742 62.812C292.398 62.308 293.478 61.948 295.35 61.084C293.982 59.752 292.614 58.672 292.038 58.24L294.63 55.72V52.084H310.758C311.478 53.092 311.91 53.668 312.882 54.748C313.278 54.388 314.934 52.948 316.446 51.04L320.406 53.272C318.534 55.432 316.446 57.412 316.122 57.7C316.77 58.204 316.878 58.24 317.634 58.708C320.37 56.044 321.306 54.856 321.882 54.1L325.806 56.476C324.402 58.24 323.538 59.104 321.702 60.904C323.502 61.732 324.33 62.092 326.094 62.776L323.862 67.924C321.954 67.204 320.874 66.7 319.254 65.8ZM302.514 62.668H314.43C312.45 61.156 310.758 59.752 308.454 57.088C307.05 58.816 305.754 60.22 302.514 62.668ZM309.966 70.156V67.42H306.33V70.156H309.966ZM302.73 56.26H296.826C297.87 57.052 298.626 57.664 299.634 58.672C301.218 57.592 301.83 57.052 302.73 56.26ZM338.982 57.484H349.566C346.866 55.36 344.85 54.316 343.95 53.884L348.99 50.716C350.826 51.688 353.49 53.236 356.046 55.252L352.374 57.484H362.634V62.56H353.562V68.104H361.446V73.18H353.562V79.48H363.354V84.52H337.65V79.48H347.946V73.18H340.17V68.104H347.946V62.56H338.982V57.484ZM329.91 55.324L332.826 51.148C336.174 52.624 338.262 54.136 339.198 54.784L335.994 59.248C334.122 57.736 332.79 56.836 329.91 55.324ZM328.866 64.576L331.782 60.256C333.942 61.264 335.994 62.524 337.938 64.108L334.878 68.572C332.79 66.844 331.206 65.8 328.866 64.576ZM335.094 69.688L339.162 73.036C336.138 80.164 333.726 83.512 332.142 85.564L328.758 80.452C331.926 76.528 334.014 72.1 335.094 69.688ZM368.502 53.056H374.946L374.19 73.504H369.258L368.502 53.056ZM368.682 82V76.168H374.73V82H368.682ZM5.544 135.384V123.036C4.536 123.936 3.672 124.584 2.376 125.52L0.252 119.652C4.716 116.772 6.84 113.64 8.856 109.968H0.936V104.604H11.052C11.556 103.02 11.772 102.084 12.024 100.896L18.18 101.04C17.928 102.12 17.748 102.804 17.172 104.604H35.064V109.968H15.084C14.544 111.084 13.356 113.568 11.088 116.772V135.384H5.544ZM26.46 115.98H34.2V121.272H26.46V129.084H35.064V134.412H12.348V129.084H20.916V121.272H13.32V115.98H20.916V111.084H26.46V115.98ZM56.844 109.752V108.168H46.296V119.832C46.296 125.196 45.18 130.632 42.588 135.384L38.052 131.352C40.968 126.204 40.968 120.3 40.968 119.688V103.488H53.64V101.184H59.148V103.488H72.576V108.168H61.956V109.752H72.072V113.676H61.956V115.08H70.776V126.42H61.956V127.824H72.504V132.252H61.956V135.42H56.844V132.252H46.08V127.824H56.844V126.42H48.096V115.08H56.844V113.676H46.944V109.752H56.844ZM56.844 117.996H53.1V119.58H56.844V117.996ZM56.844 121.848H53.1V123.468H56.844V121.848ZM65.772 117.996H61.956V119.58H65.772V117.996ZM65.772 121.848H61.956V123.468H65.772V121.848ZM93.6 102.588V108.204C92.952 108.132 92.52 108.06 91.8 108.06C89.388 108.06 85.824 108.6 83.52 114.252C84.348 113.712 85.968 112.56 88.704 112.56C93.24 112.56 98.244 115.98 98.244 122.352C98.244 128.328 93.636 132.576 87.876 132.576C82.44 132.576 76.788 128.868 76.788 119.436C76.788 110.688 81.9 102.48 91.26 102.48C91.908 102.48 92.808 102.516 93.6 102.588ZM92.124 122.352C92.124 118.248 88.848 117.924 87.768 117.924C85.5 117.924 82.944 119.4 82.944 122.136C82.944 124.512 84.708 126.996 87.768 126.996C90.972 126.996 92.124 124.44 92.124 122.352ZM113.046 132.576C110.85 132.576 107.25 131.928 104.838 128.112C102.606 124.656 102.498 119.652 102.498 117.528C102.498 112.416 103.434 109.104 104.91 106.836C106.782 103.884 109.878 102.48 113.046 102.48C116.178 102.48 119.31 103.848 121.218 106.872C123.378 110.256 123.594 115.008 123.594 117.528C123.594 121.74 122.982 125.448 121.254 128.148C118.842 131.928 115.206 132.576 113.046 132.576ZM113.046 126.996C116.466 126.996 117.51 122.928 117.51 117.528C117.51 111.66 116.25 108.06 113.046 108.06C109.626 108.06 108.582 112.2 108.582 117.528C108.582 123.396 109.806 126.996 113.046 126.996ZM152.939 117.024H142.499C141.383 123.972 138.575 130.308 130.655 135.456L127.019 130.416C134.723 126.096 137.423 120.336 137.423 111.048V107.592H127.739V102.264H161.723V107.592H143.075V111.804H158.807C158.735 124.08 157.439 130.2 156.971 131.604C156.683 132.468 155.747 135.348 152.111 135.348H144.695L143.651 129.732H149.483C151.319 129.732 151.679 128.616 151.931 127.788C152.291 126.492 152.939 122.28 152.939 117.024ZM199.739 103.56V108.744H184.871V110.868H197.219V124.728H167.843V110.868H179.111V101.184H184.871V103.56H199.739ZM191.495 119.76V115.8H173.531V119.76H191.495ZM169.319 135.96L164.747 132.54C166.835 130.272 168.095 127.824 168.887 124.872L173.711 126.78C172.595 130.524 171.587 133.044 169.319 135.96ZM180.731 135.204L174.899 135.312C175.295 133.332 175.403 130.74 175.403 129.984C175.403 128.436 175.331 127.14 175.223 126.384H180.407C180.695 128.472 180.767 131.352 180.767 132.504C180.767 133.296 180.731 134.592 180.731 135.204ZM190.451 134.628L184.583 135.276C184.295 131.676 183.647 129.12 182.783 126.6L188.003 125.988C188.867 128.22 189.875 131.64 190.451 134.628ZM200.243 133.044L195.059 135.744C194.303 133.584 192.755 129.768 191.099 127.104L195.851 124.8C197.903 128.004 198.551 129.264 200.243 133.044ZM204.347 126.708L207.767 122.82C211.043 125.016 213.707 127.212 216.299 130.2L212.483 134.16C210.179 131.352 207.803 129.156 204.347 126.708ZM259.942 129.156L253.966 130.848C253.93 125.412 252.706 120.084 251.05 114.9C249.322 117.492 246.01 122.136 240.61 126.816V128.436C240.61 129.372 240.934 129.444 241.546 129.444H245.146C246.154 129.444 246.946 129.12 247.054 122.928L252.346 124.584C252.166 127.464 251.626 131.208 250.978 132.504C249.826 134.808 247.522 134.808 247.342 134.808H238.558C236.506 134.808 235.318 132.972 235.318 131.46V130.848C232.762 132.468 230.494 133.728 227.938 134.7L225.166 129.66C226.354 129.264 227.83 128.724 229.738 127.752L225.13 124.872C226.57 122.064 227.614 119.292 228.226 112.344L233.554 113.244C233.014 118.644 232.114 123.72 230.458 127.356C231.25 126.96 232.942 126.024 235.318 124.26V109.932H240.61V119.544C245.506 114.504 249.034 108.348 251.302 101.724L256.594 103.74C255.91 105.648 254.578 109.212 252.094 113.244L255.838 111.876C257.458 116.16 259.438 123.432 259.942 129.156ZM233.482 105.684L235.966 101.076C242.374 102.264 246.226 104.136 247.81 104.892L244.93 109.824C242.05 107.988 236.83 106.224 233.482 105.684ZM263.506 120.012H272.866C273.19 119.4 273.658 118.536 273.802 118.212H264.982V108.6H273.838V106.872H263.758V102.228H297.346V106.872H287.194V108.6H296.194V118.212H280.138C279.922 118.752 279.814 119.076 279.274 120.012H297.49V124.584H291.73C291.226 125.592 290.578 126.78 289.138 128.364C293.242 129.48 295.438 130.344 296.878 130.884L292.738 135.708C291.298 134.988 288.85 133.764 284.314 132.108C280.534 134.052 273.874 135.24 265.882 135.384L264.082 130.272C265.882 130.344 266.674 130.344 268.186 130.344C272.578 130.344 274.99 130.092 276.826 129.84C272.794 128.724 269.59 128.256 267.142 127.896C267.97 126.996 268.834 126.024 269.95 124.584H263.506V120.012ZM278.662 112.128V114.648H282.262V112.128H278.662ZM278.662 106.872V108.6H282.262V106.872H278.662ZM270.166 112.128V114.648H273.838V112.128H270.166ZM287.194 112.128V114.648H290.938V112.128H287.194ZM285.682 124.584H276.394C276.07 125.016 275.962 125.196 275.422 125.844C277.366 126.06 279.994 126.348 283.414 127.068C284.602 126.024 285.106 125.34 285.682 124.584ZM333.613 126.42L330.913 131.352C328.969 129.984 327.817 129.264 326.269 128.436C326.233 129.084 326.125 130.488 325.081 131.784C323.749 133.404 321.229 134.052 318.817 134.052C314.065 134.052 310.321 131.64 310.321 127.5C310.321 123.9 313.417 120.84 318.493 120.84C319.393 120.84 320.077 120.948 320.545 120.984C320.329 117.276 320.293 116.412 320.293 114.36L325.801 114.468C325.801 115.692 326.125 121.236 326.161 122.352C328.105 123.108 330.337 124.116 333.613 126.42ZM320.797 126.096C319.717 125.772 318.565 125.7 318.025 125.7C316.153 125.7 315.325 126.564 315.325 127.392C315.325 128.616 316.765 129.192 318.349 129.192C320.941 129.192 320.905 127.968 320.797 126.096ZM310.933 102.084L316.873 103.2C316.621 103.92 316.009 105.72 315.577 106.98C315.757 106.944 318.457 106.584 319.681 106.332L319.357 111.912C317.017 112.308 314.713 112.56 313.597 112.632C310.429 121.38 307.981 126.564 306.973 128.724L301.465 126.384C304.705 120.3 306.649 115.368 307.513 112.992C306.001 113.064 305.173 113.064 303.049 113.028L302.905 107.376C306.109 107.52 306.793 107.52 309.385 107.448C310.105 105.144 310.393 104.136 310.933 102.084ZM320.617 110.724L323.029 106.008C325.549 106.908 329.221 108.348 333.469 110.76L331.057 115.872C327.277 113.316 324.145 111.768 320.617 110.724ZM361.025 132.54H346.553V121.956H362.933V129.804H364.121C364.949 129.804 365.093 129.408 365.093 128.76V120.228C364.625 120.732 364.229 120.876 362.861 120.876H357.641C356.993 120.876 354.905 120.876 354.905 118.644V114.684H353.285C352.673 118.536 350.261 120.3 345.725 122.028L344.393 119.544V135.312H339.173V110.4H345.725C345.689 109.968 345.473 108.708 345.077 107.808H337.769V103.164H352.061V101.292H357.605V103.164H371.825V107.808H364.697C364.373 108.996 364.049 109.896 363.833 110.4H370.313V132.144C370.313 133.044 370.313 135.312 367.217 135.312H361.637L361.025 132.54ZM362.645 115.512L365.093 116.088V114.684H359.405V116.664C359.405 117.384 359.909 117.384 360.197 117.384H361.025C361.961 117.384 362.465 117.384 362.645 115.512ZM351.377 110.4H358.145C358.469 109.536 358.685 108.78 358.865 107.808H350.693C351.161 109.32 351.269 109.824 351.377 110.4ZM344.393 114.684V117.708C345.869 117.348 347.993 116.556 348.641 114.684H344.393ZM358.145 128.436V125.844H351.305V128.436H358.145ZM379.997 102.3H405.233V115.728H379.997V102.3ZM400.013 106.98H385.253V111.156H400.013V106.98ZM376.613 117.816H391.193V134.628H376.613V117.816ZM386.081 122.676H381.689V129.732H386.081V122.676ZM393.389 117.816H408.545V134.628H393.389V117.816ZM403.433 122.676H398.429V129.732H403.433V122.676ZM424.423 133.404L424.459 127.752C425.107 127.932 426.007 128.148 427.087 128.148C428.959 128.148 430.579 128.112 430.579 119.112C430.579 115.656 429.247 115.044 426.475 115.188C425.287 119.616 423.091 127.176 418.663 134.34L413.659 131.136C417.979 124.26 419.635 118.752 420.499 115.872C416.827 116.448 416.323 116.52 414.631 116.808L413.947 111.228L421.867 110.292C422.299 108.276 422.587 106.872 423.163 102.48L429.031 103.416C428.455 106.62 428.239 107.808 427.771 109.86C435.187 110.04 436.051 114.864 436.051 119.904C436.051 130.92 433.531 133.728 428.095 133.728C426.871 133.728 425.647 133.62 424.423 133.404ZM445.087 122.28L439.723 124.116C439.039 115.836 435.763 111.552 433.387 109.464L437.419 106.584C443.143 112.416 444.547 118.752 445.087 122.28ZM437.491 103.992L439.759 102.264C441.523 104.1 442.747 105.936 444.259 108.528L441.811 110.4C440.407 107.736 439.363 106.188 437.491 103.992ZM441.559 101.868L443.827 100.14C445.627 102.012 446.707 103.668 448.327 106.404L445.879 108.276C444.475 105.576 443.467 104.136 441.559 101.868ZM473.692 111.192L473.8 121.236C473.836 125.16 473.296 131.856 463.216 135.096L459.616 130.668C464.26 129.156 466.132 127.32 466.816 126.6C466.276 126.852 465.628 127.14 464.368 127.14C460.804 127.14 457.492 124.368 457.492 119.904C457.492 114.684 461.74 112.596 465.268 112.596C466.744 112.596 467.536 112.92 468.148 113.172L468.112 111.336L458.86 111.552C454.468 111.66 452.524 111.84 451.768 111.876L451.624 106.296C454.18 106.404 456.952 106.368 458.752 106.332L468.004 106.116L467.896 102.228H473.584L473.656 106.008L475.672 105.972C479.452 105.9 481.072 105.756 482.8 105.612L482.908 111.192C480.856 111.084 477.976 111.12 475.78 111.156L473.692 111.192ZM467.968 119.832C467.968 117.744 466.6 117.024 465.484 117.024C464.044 117.024 462.892 118.176 462.892 119.868C462.892 121.704 464.188 122.676 465.484 122.676C466.888 122.676 467.968 121.56 467.968 119.832ZM508.872 101.94L513.12 106.512C508.188 110.076 504.12 112.524 496.884 116.772C495.912 117.348 495.336 117.672 495.336 118.104C495.336 118.536 495.516 118.608 497.136 119.436C506.568 124.332 510.132 126.816 514.164 129.84L509.916 134.592C502.896 129.084 498.324 126.528 492.384 123.252C490.404 122.172 488.244 120.948 488.244 118.248C488.244 115.512 490.476 114.18 492.168 113.136C498.72 109.104 503.04 106.44 508.872 101.94ZM506.1 114.072L508.98 112.2C510.816 114 512.184 115.908 513.768 118.428L510.744 120.48C509.16 117.708 508.08 116.232 506.1 114.072ZM510.708 110.94L513.552 108.996C515.424 110.76 516.792 112.632 518.448 115.152L515.46 117.24C513.804 114.468 512.796 113.1 510.708 110.94ZM544.964 113.676V116.016H554.468V134.916H530.636V116.016H539.996V113.676H529.448V117.852C529.448 124.584 528.08 131.064 525.56 135.384L521.168 131.064C523.724 126.456 524.12 120.948 524.12 117.636V102.264H554.432V113.676H544.964ZM539.996 123.288V120.408H535.748V123.288H539.996ZM549.392 123.288V120.408H544.964V123.288H549.392ZM539.996 130.308V127.248H535.748V130.308H539.996ZM549.392 130.308V127.248H544.964V130.308H549.392ZM549.104 109.392V106.98H529.448V109.392H549.104ZM581.213 101.976L585.425 106.548C580.241 110.22 575.993 112.704 569.225 116.7C567.605 117.636 567.389 117.744 567.389 118.176C567.389 118.536 567.533 118.572 568.865 119.256C577.685 123.684 581.825 126.384 586.433 129.84L582.257 134.592C574.877 128.868 568.901 125.664 564.149 123.108C562.241 122.064 560.369 120.84 560.369 118.32C560.369 115.584 562.529 114.252 564.329 113.172C570.089 109.644 575.813 106.08 581.213 101.976ZM592.138 103.056H598.582L597.826 123.504H592.894L592.138 103.056ZM592.318 132V126.168H598.366V132H592.318Z" fill="#161616"/>
<path d="M21.71 178.44L33.735 180.065C33.15 181.69 32.825 182.665 31.33 186.11H63.44V196.575H54.015C53.235 199.045 51.74 203.53 47.71 208.6C49.79 209.315 55.51 211.33 62.335 215.035L55.315 225.11C48.425 220.56 40.625 217.505 38.675 216.725C27.3 223.745 10.79 224.98 5.85 225.37L2.275 213.8C10.01 214.06 17.615 213.54 24.245 211.59C15.275 208.73 9.165 207.365 5.85 206.585C7.8 203.92 10.205 200.605 12.675 196.575H1.495V186.11H18.46C19.63 183.64 20.475 181.625 21.71 178.44ZM41.925 196.575H26.065C24.7 198.98 23.92 200.15 23.14 201.32C29.51 203.01 31.85 203.725 36.075 204.895C39.39 201.71 40.95 198.525 41.925 196.575ZM3.185 184.225V167.715H26.91V163.295H38.22V167.715H61.88V184.225H50.895V177.53H14.3V184.225H3.185ZM73.905 183.575L84.565 184.68C83.98 203.725 80.99 211.85 78.325 217.765L68.38 209.705C69.745 206.845 72.995 200.085 73.905 183.575ZM87.035 217.18V181.105H98.215V211.915C98.215 213.41 98.54 213.605 99.775 213.605H103.48C104.065 213.605 105.04 213.475 105.43 212.305C105.95 210.745 106.21 204.115 106.275 201.97L117.065 205.155C116.025 222.445 113.425 224.525 106.34 224.525H93.925C87.75 224.525 87.035 220.43 87.035 217.18ZM83.98 173.37L88.14 163.23C98.735 165.115 104.325 166.545 115.83 171.03L110.955 182.015C100.945 177.075 95.615 175.71 83.98 173.37ZM111.865 184.55L122.655 181.105C127.4 192.09 129.87 202.75 131.625 215.035L119.6 217.7C118.3 204.7 115.96 195.015 111.865 184.55ZM185.202 177.27L188.647 188.58C176.752 191.18 167.327 193.975 161.997 195.99C158.487 197.29 150.752 200.345 150.752 205.155C150.752 207.885 152.702 210.485 164.402 210.485C175.127 210.485 184.747 208.73 188.387 208.08L189.232 220.105C185.722 220.56 176.037 221.665 166.417 221.665C158.552 221.665 138.597 221.535 138.597 205.87C138.597 195.86 147.632 190.465 153.027 187.995C152.312 185.655 151.987 183.965 151.467 181.56L148.542 167.195L160.567 164.92L163.102 179.025C163.362 180.455 163.752 182.145 164.142 183.575C169.147 181.885 172.592 180.715 185.202 177.27ZM217.153 174.54H209.353V177.66H217.153V174.54ZM229.698 220.235L219.298 223.095C219.038 221.665 218.843 220.235 218.258 218.155C207.403 220.755 204.153 221.535 197.328 222.705L195.768 212.045C197.263 211.915 197.848 211.85 199.213 211.655V165.31H227.618V198.005H209.353V210.42C210.653 210.225 214.033 209.77 215.528 209.51C214.618 207.04 213.903 205.35 212.863 202.945L222.158 200.215C225.278 206.325 227.293 211.395 229.698 220.235ZM217.153 185.2H209.353V188.58H217.153V185.2ZM230.153 165.31H256.608V210.485C256.608 217.83 251.148 217.83 249.263 217.83H242.958L240.423 206.65H243.803C245.233 206.65 246.143 206.39 246.143 204.505V175.905H240.163V225.24H230.153V165.31ZM281.633 198.2V225.24H273.508V199.37C267.593 200.085 266.618 200.15 264.863 200.28L264.018 190.66C265.188 190.66 265.578 190.66 267.918 190.53C269.413 188.58 269.998 187.8 270.453 187.15C267.398 183.25 265.773 181.56 263.173 179.415L267.203 170.12C267.593 170.445 268.048 170.705 268.698 171.225C271.103 166.87 271.948 164.27 272.338 162.97L280.983 164.725C279.618 168.69 277.538 172.07 274.353 176.815C275.458 177.985 275.848 178.44 276.108 178.83C279.423 173.695 280.723 171.42 281.633 169.665L290.018 172.785C288.003 176.23 285.858 179.675 277.408 189.945L282.218 189.62C281.633 187.41 281.373 186.76 280.918 185.655L286.638 183.835C288.458 187.67 289.303 190.14 290.213 193.52V171.03H302.303V163.425H311.923V171.03H324.468V219.455C324.468 224.72 320.438 225.24 319.268 225.24H308.218L306.073 214.97H312.768C314.068 214.97 314.523 214.905 314.523 213.28V205.415L311.208 210.745C309.063 207.56 307.633 202.88 306.788 198.785C306.138 202.62 304.578 207.95 302.433 211.2L299.638 206.975V225.24H290.213V198.655L284.168 200.605C284.038 199.175 283.973 198.785 283.843 197.875C283.323 198.005 283.128 198.005 281.633 198.2ZM311.143 181.235V182.015C311.143 185.85 311.598 191.96 314.523 197.68V181.235H311.143ZM299.638 181.235V196.835C302.173 191.57 302.823 184.94 303.018 181.235H299.638ZM269.738 222.51L263.108 217.375C264.148 214.255 264.928 209.9 265.123 201.775L271.948 202.295C271.883 204.245 271.753 214.06 269.738 222.51ZM288.978 216.725L283.388 217.7C283.518 213.67 283.128 206.325 282.868 202.165L287.743 201.515C288.003 203.465 288.848 211.98 288.978 216.725ZM353.201 164.725L364.251 167.195C363.731 167.975 363.536 168.3 361.846 171.16C368.216 170.64 373.026 170.055 379.526 168.755L379.266 179.155C367.501 180.715 361.846 181.04 355.671 181.365C355.476 181.755 354.566 183.25 354.371 183.575C355.281 183.38 356.581 183.055 358.466 183.055C363.666 183.055 367.111 185.395 368.801 188.255C375.951 185.33 376.731 185.005 383.166 182.6L387.196 192.35C381.151 194.365 372.506 197.55 370.816 198.265C370.946 201.71 370.881 203.725 370.816 209.12L360.221 209.445C360.416 206.39 360.416 205.415 360.481 202.945C356.451 205.22 354.566 206.845 354.566 208.86C354.566 211.59 357.556 212.37 363.536 212.37C364.706 212.37 371.596 212.37 382.906 210.42L381.866 221.405C376.991 221.99 371.206 222.445 366.136 222.445C356.646 222.445 353.461 221.275 351.771 220.625C345.986 218.35 343.841 213.605 343.841 209.51C343.841 200.54 352.811 195.925 359.181 192.675C357.946 191.505 356.321 191.505 355.866 191.505C349.366 191.505 345.011 197.875 340.591 204.31L332.011 198.2C336.366 193.065 340.461 187.605 343.906 181.755C340.786 181.82 339.486 181.82 335.131 181.82L335.391 171.355C338.381 171.485 342.151 171.68 346.896 171.68H349.691C350.861 169.6 351.446 168.365 353.201 164.725ZM26.65 269.15H9.23V264.99H3.38V249.26H26.91V245.75H37.7V249.26H61.685V264.99H55.38V269.15H37.05V271.49H57.2V278.9H36.465C36.335 279.485 36.27 279.94 36.075 281.175H63.18V290.405H43.55C45.63 292.095 49.92 295.605 63.83 296.905L59.41 307.5C44.005 304.77 36.595 298.4 32.37 292.355C28.535 298.92 18.98 304.835 5.395 307.63L1.04 297.23C4.485 296.645 16.835 294.5 21.32 290.405H1.69V281.175H25.74C26 280.005 26.065 279.42 26.195 278.9H7.475V271.49H26.65V269.15ZM13.78 261.155H26.65V258.1H13.78V261.155ZM37.05 261.155H51.025V258.1H37.05V261.155ZM87.425 307.76L81.965 298.595C78.065 299.57 72.93 300.935 69.94 301.585L68.315 290.47C69.94 290.34 71.825 290.21 75.27 289.56V276.95H70.2V267.2H75.27V258.165H69.16V248.09H90.415V258.165H85.215V267.2H89.57V276.95H85.215V287.35C88.205 286.57 89.31 286.18 90.415 285.725L90.74 294.11C93.08 292.81 96.525 290.795 96.915 285.075H92.365V247.05H129.025V285.075H118.885V294.955C118.885 295.475 118.885 296.58 120.12 296.58H121.29C122.525 296.58 122.59 295.67 122.72 294.825C122.785 294.11 123.11 291.12 123.045 288.845L131.365 290.535C130.65 301.845 130.39 306.59 124.995 306.59H115.18C112.905 306.59 109.005 306.59 109.005 301.65V285.075H106.535C105.495 298.985 98.41 303.6 87.425 307.76ZM118.755 264.99H102.505V267.85H118.755V264.99ZM118.755 255.955H102.505V258.75H118.755V255.955ZM118.755 274.09H102.505V277.015H118.755V274.09ZM143.119 247.765L155.339 248.48L154.039 282.215C153.844 287.415 154.234 293.2 162.359 293.2C170.419 293.2 176.399 287.48 180.949 273.765L191.349 279.485C186.734 291.965 178.869 304.77 162.229 304.77C153.064 304.77 145.654 301 142.989 293.07C141.689 289.105 141.819 284.815 141.884 282.41L143.119 247.765ZM219.631 254.135L219.566 247.245H230.811V254.07C242.641 253.875 243.031 253.875 250.766 253.55L250.636 263.885C236.206 264.145 234.646 264.145 230.876 264.21L230.941 267.655C240.496 267.265 241.536 267.265 247.971 266.875V277.015C241.406 277.275 238.351 277.405 231.006 277.535L231.071 282.735C238.156 284.685 244.006 287.415 249.856 291.185L244.591 301.975C239.066 297.75 234.321 295.54 230.811 294.045C230.031 303.21 221.646 304.705 216.251 304.705C206.046 304.705 200.131 299.765 200.131 292.81C200.131 289.3 201.821 280.2 219.826 280.98V277.73C210.466 277.795 209.491 277.795 201.041 277.795L201.106 267.59C210.141 267.85 211.636 267.85 219.696 267.85V264.34C209.816 264.405 207.606 264.405 198.831 264.34L198.961 253.875C208.776 254.135 210.596 254.135 219.631 254.135ZM219.761 290.6C218.656 290.47 217.291 290.405 216.186 290.405C214.886 290.405 210.206 290.535 210.206 292.875C210.206 294.695 213.456 295.085 215.016 295.085C219.631 295.085 219.696 293.005 219.761 290.6ZM299.756 263.82L299.951 281.435C300.016 290.08 298.391 301.195 279.996 306.72L273.041 298.075C277.266 296.775 282.076 294.825 285.781 291.705C284.936 291.965 283.961 292.355 282.206 292.355C276.031 292.355 269.726 287.61 269.726 279.355C269.726 270.71 276.486 266.16 284.026 266.16C286.301 266.16 287.601 266.55 288.641 266.875L288.576 264.08L272.781 264.47C265.046 264.665 261.406 264.925 259.586 265.055L259.326 253.94C264.461 254.2 271.416 254.005 272.586 254.005L288.316 253.68L288.186 247.05H299.626L299.691 253.42L302.616 253.355C303.916 253.355 310.156 253.225 315.876 252.77L316.071 263.82C312.431 263.69 306.841 263.69 302.876 263.755L299.756 263.82ZM288.316 279.095C288.316 275.975 286.496 274.61 284.481 274.61C282.076 274.61 280.386 276.625 280.386 279.225C280.386 282.15 282.466 283.71 284.481 283.71C286.626 283.71 288.316 282.085 288.316 279.095Z" fill="#EB5C03"/>
<path d="M331.8 245.475H346.5L344.775 288H333.525L331.8 245.475ZM332.325 306V293.025H345.975V306H332.325ZM359.116 245.475H373.816L372.091 288H360.841L359.116 245.475ZM359.641 306V293.025H373.291V306H359.641Z" fill="#EB5C03"/>
</svg>
