<svg width="175" height="175" viewBox="0 0 175 175" fill="none" xmlns="http://www.w3.org/2000/svg">
<circle cx="87.1934" cy="87.1934" r="87.1934" fill="#006948"/>
<path d="M34.328 45.424L35.56 47.872C34.072 48.464 32.408 49.456 31.528 50.48C30.952 49.984 30.344 49.472 29.848 49.104C30.44 48.56 30.584 48.448 31.048 48.064C30.056 48.144 27.368 48.288 26.008 48.256L25.88 45.584C26.84 45.744 28.808 45.792 29.864 45.792C31.88 45.792 33.64 45.52 34.328 45.424ZM27.048 51.616L28.84 53.136C28.392 53.52 27.592 54.352 27.592 54.88C27.592 56.032 29.784 56.032 30.456 56.032C32.632 56.032 34.792 55.696 36.872 55.072C36.888 55.472 36.92 56.352 37.288 57.792C36.056 58.144 33.8 58.528 31.032 58.528C28.536 58.528 27.544 58.256 26.76 57.936C26.248 57.728 24.728 56.976 24.728 55.36C24.728 53.696 26.392 52.208 27.048 51.616ZM36.584 45.104L37.496 44.016C37.736 44.24 38.2 44.656 39 45.584C38.584 45.936 38.232 46.32 37.976 46.672C37.64 46.208 36.952 45.44 36.584 45.104ZM35.24 46.432L36.264 45.376C36.696 45.776 37.368 46.528 37.72 47.056C37.48 47.296 37.272 47.488 36.776 48.208C36.104 47.344 36.008 47.248 35.24 46.432ZM44.728 56.784V55.472H44.088C44.408 56.64 44.952 57.584 45.176 57.952C44.728 58.176 44.104 58.56 43.544 58.96C43.048 58.064 42.648 56.864 42.552 56.416H42.408C42.232 56.896 41.672 58.32 41.224 59.104C40.344 58.688 39.96 58.56 39.208 58.432C39.752 57.632 40.264 56.784 40.664 55.472H40.136V45.008H44.792V55.296H45.544V51.664H48.552V51.184H45.048V49.6H46.888V49.008H45.528V47.664H46.888V47.12H45.144V45.504H46.888V44.64L49.08 44.784C49.192 44.784 49.288 44.864 49.288 44.944C49.288 45.12 49.048 45.2 48.936 45.248V45.504H50.008V44.656L52.2 44.752C52.376 44.752 52.456 44.88 52.456 44.944C52.456 45.136 52.232 45.2 52.056 45.216V45.504H53.912V47.12H52.056V47.664H53.256V49.008H52.056V49.6H54.2V51.184H50.472V51.664H53.512V55.296H54.376V56.848H53.512V57.68C53.512 58.4 53.512 59.392 50.664 59.216C50.616 58.496 50.52 58.096 50.232 57.36C50.424 57.392 50.92 57.456 51.08 57.456C51.416 57.456 51.432 57.312 51.432 56.848H47.624V59.216H45.544V56.784H44.728ZM50.472 55.296H51.432V54.688H50.472V55.296ZM47.624 55.296H48.552V54.688H47.624V55.296ZM50.472 53.632H51.432V53.04H50.472V53.632ZM47.624 53.632H48.552V53.04H47.624V53.632ZM42.904 49.664H42.024V50.8H42.904V49.664ZM42.904 52.432H42.024V53.632H42.904V52.432ZM42.024 48.048H42.904V46.912H42.024V48.048ZM42.76 56.08L43.96 55.472H41.448L42.584 55.984C42.664 56.016 42.696 56.048 42.76 56.08ZM50.008 47.12H48.936V47.664H50.008V47.12ZM50.008 49.008H48.936V49.6H50.008V49.008ZM61.192 47.856L62.568 48.112C62.552 47.568 62.552 47.424 62.536 47.056H59.032V44.704H65.144C65.128 45.12 65.032 46.96 65.032 47.328C65.032 52.192 67.624 55.584 70.904 57.6C69.96 58.144 69.368 58.608 68.808 59.344C66.824 57.968 63.928 54.96 63.016 51.28C62.488 53.072 61.24 56.384 56.968 59.36C56.264 58.496 55.848 58.096 55 57.568C59.912 54.416 60.76 51.024 61.192 47.856ZM80.584 44.96L83.4 45.44C83.48 45.456 83.608 45.472 83.608 45.616C83.608 45.808 83.384 45.856 83.24 45.872C83.192 46.224 83.128 46.672 83.08 47.792C84.328 47.568 84.872 47.392 85.448 47.2V49.616C85.08 49.712 84.344 49.888 83.016 50.128C83.016 51.712 83.176 53.264 83.272 53.808C84.504 54.224 85.72 54.88 86.312 55.456C86.056 55.92 85.576 56.96 85.224 57.712C84.712 57.216 84.184 56.784 83.512 56.496C83.448 58.544 81.4 58.784 80.392 58.784C77.992 58.784 76.792 57.472 76.792 55.984C76.792 54.08 78.68 53.36 80.76 53.408C80.632 51.584 80.616 51.376 80.584 50.448C79.672 50.528 79.016 50.528 78.744 50.528C78.232 50.528 77.896 50.512 77.56 50.48V47.968C78.136 48.032 78.952 48.144 80.568 48.08C80.568 47.408 80.568 46 80.584 44.96ZM81.064 55.568C80.872 55.488 80.584 55.36 80.088 55.36C79.736 55.36 78.968 55.472 78.968 55.968C78.968 56.384 79.496 56.56 80.008 56.56C80.136 56.56 81.096 56.56 81.096 55.776C81.096 55.696 81.096 55.632 81.064 55.568ZM73.24 45.008L75.8 45.792C75.928 45.84 76.008 45.904 76.008 46.016C76.008 46.208 75.704 46.24 75.56 46.256C74.6 49.552 74.6 51.92 74.6 52.416C74.6 53.216 74.664 53.584 74.712 54.016C74.92 53.712 75.256 53.2 75.464 52.88C75.784 53.488 76.152 53.984 76.616 54.464C76.296 54.928 75.272 56.48 75.288 58.384L73.144 58.784C72.92 58.016 72.28 55.744 72.28 52.336C72.28 50.704 72.456 47.824 73.24 45.008ZM88.824 45.392L91.432 46.128C91.576 46.176 91.752 46.224 91.752 46.368C91.752 46.576 91.56 46.608 91.416 46.624C91.08 47.6 90.52 49.28 90.52 51.44C90.52 53.392 91.128 54.752 91.592 54.752C92.104 54.752 92.712 53.344 93.144 52.336C93.736 53.152 94.344 53.696 94.824 54.032C93.544 57.136 92.088 58.224 91.304 58.224C90.408 58.224 88.04 56.32 88.04 51.376C88.04 49.328 88.392 47.456 88.824 45.392ZM97.096 47.552L99.16 46.24C100.92 48.608 102.12 51.328 102.392 54.288C101.448 54.656 100.312 55.2 99.784 55.472C99.592 52.08 98.6 49.744 97.096 47.552ZM104.424 50.8L103.416 47.712C104.12 47.632 104.552 47.552 105.432 47.328C109.944 46.144 111.032 45.872 112.792 45.872C116.632 45.872 118.312 48.416 118.312 51.232C118.312 57.264 111.032 57.712 108.456 57.84C108.296 56.944 108.008 56.08 107.64 55.28C110.52 55.296 115.608 55.2 115.608 51.264C115.608 50.432 115.32 48.208 112.488 48.208C110.104 48.208 106.152 49.824 104.424 50.8ZM125.976 44.288L128.568 45.264C128.744 45.328 128.84 45.376 128.84 45.52C128.84 45.744 128.568 45.792 128.376 45.808C128.2 46.08 128.008 46.4 127.432 47.488C128.28 47.568 129.096 47.6 129.432 47.6C129.768 47.6 129.992 47.584 130.216 47.568C129.896 48.24 129.576 49.616 129.512 50.096C129.032 50.112 127.896 50.128 126.488 49.952C126.296 50.384 126.072 50.96 125.912 51.36C126.312 51.424 127.496 51.584 129.464 51.6C129.16 52.464 128.904 53.472 128.776 53.968C127.8 53.904 126.696 53.808 125.192 53.584C125.144 53.76 125.016 54.288 125.016 54.88C125.016 56.832 126.824 56.832 127.608 56.832C128.296 56.832 130.712 56.832 130.712 54.512C130.712 53.488 129.976 52.128 129.896 52.016C130.936 51.808 131.544 51.568 132.312 51.152C132.696 51.856 133.416 53.376 133.416 54.784C133.416 58.304 129.704 59.12 127.608 59.12C124.392 59.12 122.616 57.456 122.616 55.104C122.616 54.224 122.76 53.552 122.856 53.168C122.12 53.024 121.48 52.832 120.776 52.576L121.32 50.208C122.232 50.56 122.344 50.592 123.48 50.896C123.544 50.688 123.656 50.336 123.96 49.472C123.08 49.264 122.456 49.04 121.576 48.672L122.056 46.192C123.384 46.704 124.056 46.864 124.888 47.072C125.048 46.64 125.816 44.688 125.976 44.288ZM144.872 58.72C144.344 57.792 143.992 57.312 143.208 56.464C146.68 55.824 147.704 53.136 147.704 51.472C147.704 50.176 147.016 47.792 144.008 47.552C143.512 53.408 141.096 57.776 139.4 57.776C138.152 57.776 135.832 55.664 135.832 52.704C135.832 49.264 138.968 45.248 143.672 45.248C147.176 45.248 150.232 47.632 150.232 51.456C150.232 52.192 150.168 54.24 148.344 56.4C147.368 57.536 146.232 58.128 144.872 58.72ZM141.32 48.032C139.464 48.72 138.2 51.072 138.2 52.512C138.2 53.744 138.888 54.672 139.224 54.672C139.608 54.672 139.912 53.952 140.088 53.536C140.776 51.952 141.304 50.112 141.32 48.032Z" fill="#FFEB00"/>
<path d="M45.449 82.095L47.262 83.501C46.263 90.531 45.079 93.787 42.933 97.45C45.745 100.336 47.928 101.594 49.223 102.334C48.816 102.667 48.631 102.815 47.003 104.11C46.448 104.591 45.56 105.553 45.079 106.071C43.414 105.146 42.082 104.073 39.714 101.742C38.9 102.593 37.124 104.406 33.831 106.293C32.499 104.591 32.018 104.11 30.39 102.963C29.391 104.554 28.873 105.146 28.244 105.812C25.802 104.295 24.581 104.036 23.582 103.851C24.137 103.148 24.877 102.186 25.728 100.78C24.322 101.631 24.1 101.779 23.619 102.075C22.916 101.261 22.731 100.965 21.473 98.375H21.436C20.511 101.113 19.512 103.37 18.032 105.59C16.626 104.443 14.776 103.592 13.333 103.111C14.813 100.891 15.701 99.337 16.885 96.118H15.553V72.66H27.208V96.118H25.099C25.728 97.413 26.505 98.523 26.727 98.893C27.393 97.524 28.984 94.268 28.984 85.758V72.66H48.187V77.359H34.053V82.095H45.449ZM23.027 82.983H19.808V85.573H23.027V82.983ZM23.027 89.162H19.808V91.789H23.027V89.162ZM19.808 79.431H23.027V77.1H19.808V79.431ZM21.658 97.376L23.508 96.118H18.18L21.658 97.376ZM41.49 86.757H37.457C37.827 88.57 38.419 90.79 39.677 93.047C40.565 91.123 41.268 88.829 41.49 86.757ZM33.72 92.048C33.572 93.602 33.128 97.672 30.982 101.853C33.054 100.928 34.83 99.818 36.569 97.931C35.237 96.266 34.09 93.01 33.72 92.048ZM52.035 86.054H84.928V93.787H79.267V90.346H57.807V93.972H52.035V86.054ZM61.729 90.901L67.908 91.678C68.204 91.715 68.426 91.826 68.426 92.085C68.426 92.677 67.649 92.751 67.279 92.751C66.095 103.814 57.696 105.923 54.921 106.552C54.329 104.702 52.812 102.889 51.48 101.89C59.102 100.336 61.655 97.968 61.729 90.901ZM80.377 105.331H73.902C72.311 105.331 69.351 105.331 69.351 101.002V91.16L74.864 91.271C75.197 91.271 75.715 91.271 75.715 91.752C75.715 92.085 75.604 92.122 74.864 92.455V98.856C74.864 100.225 75.197 100.484 76.011 100.484H78.379C79.674 100.484 80.081 99.966 80.266 98.93C80.414 98.079 80.599 96.636 80.747 95.748C82.486 97.117 84.188 98.116 85.853 98.19C85.483 101.446 85.039 105.331 80.377 105.331ZM71.312 75.102H85.261V79.579H71.312V80.726H81.45V85.018H55.439V80.726H65.54V79.579H51.665V75.102H65.54V71.92L71.534 72.142C71.756 72.142 72.089 72.253 72.089 72.586C72.089 72.882 71.682 73.104 71.312 73.326V75.102ZM109.533 83.131H122.15V87.682H109.533V91.234H119.967V105.886H114.491V104.665H102.133V105.886H96.953V91.234H103.724V80.023H96.398V87.312C96.398 89.421 95.991 94.786 95.473 97.265C94.807 100.484 94.03 102.815 92.328 105.701C91.551 105.183 89.775 104.036 87.259 103.444C90.737 97.672 90.737 89.199 90.737 86.979V75.398H102.577V71.624L108.571 71.883C108.756 71.883 109.126 71.92 109.126 72.364C109.126 72.549 109.015 72.697 108.904 72.808C108.645 73.067 108.571 73.178 108.386 73.326V75.398H122.15V80.023H110.384C110.421 80.319 110.421 80.578 109.533 80.8V83.131ZM102.133 95.896V100.225H114.491V95.896H102.133ZM137.616 102.371L135.988 98.56C137.468 98.042 140.539 96.969 145.571 93.602V89.347H141.723C142.278 89.939 143.61 91.53 144.572 93.047C143.055 94.046 142.167 94.786 141.168 95.674C140.65 94.823 138.541 92.27 137.801 91.456L140.687 89.347H137.542C137.838 89.717 137.949 89.865 138.319 90.235C137.098 91.382 136.506 92.714 136.062 94.194C135.359 93.269 134.952 92.714 134.397 91.826V105.96H129.55V93.972C128.551 96.377 127.996 97.302 127.7 97.746C126.331 96.007 125.887 95.6 124.222 94.379C125.85 91.863 127.774 88.348 128.958 82.724H125.258V78.247H129.291V72.068L134.397 72.327C134.804 72.364 135.248 72.475 135.248 72.882C135.248 73.326 134.73 73.437 134.397 73.511V78.247H137.098V82.724H134.397V83.908C134.989 85.388 135.84 87.275 137.283 89.088V85.351H145.571V83.982H139.318V80.504H145.571V79.135H137.616V75.398H141.242C140.576 74.214 140.021 73.511 139.614 73.03L143.943 70.995C145.127 72.66 145.756 73.659 146.348 74.769L145.127 75.398H149.197C149.863 74.14 150.27 73.326 151.01 71.291L155.746 72.697C156.19 72.845 156.486 72.993 156.486 73.252C156.486 73.733 156.005 73.77 155.376 73.77C155.117 74.251 155.08 74.362 154.488 75.398H158.78V79.135H150.751V80.504H156.93V83.982H150.751V85.351H159.557V89.347H156.819L159.446 91.493C159.705 91.678 159.816 91.863 159.816 92.048C159.816 92.603 159.187 92.529 158.78 92.529C157.67 94.083 156.708 95.082 155.006 96.562C156.116 97.45 157.781 98.745 160.556 99.744C160.075 100.151 158.595 101.446 157.744 103.592C156.079 102.63 153.526 101.113 150.751 97.82V100.706C150.751 104.776 149.456 105.96 143.647 106.182C143.277 104.295 142.722 102.556 141.612 101.002C142.167 101.076 142.833 101.187 143.943 101.187C145.534 101.187 145.571 100.78 145.571 99.855V98.486C144.831 98.93 142.389 100.41 138.911 102.186C138.948 102.408 139.022 103.37 138.504 103.37C138.097 103.37 137.838 102.889 137.616 102.371ZM150.751 89.347V91.456C150.973 91.9 151.38 92.64 152.268 93.75C153.193 92.788 154.636 91.16 155.672 89.347H150.751Z" fill="#FFEB00"/>
<path d="M71.592 116.84L75.552 118.112C75.816 118.184 76.032 118.256 76.032 118.472C76.032 118.808 75.528 118.856 75.384 118.856C75.024 120.488 74.88 121.112 74.712 121.736C76.776 121.736 80.208 121.808 80.208 127.616C80.208 131.576 78.96 134.96 77.808 136.496C77.4 137.048 76.416 138.176 74.256 138.176C73.512 138.176 72.432 138.08 71.712 137.912C71.736 137.648 71.784 137.432 71.784 137.024C71.784 136.664 71.76 135.656 71.424 133.808C71.976 134.12 72.6 134.336 73.512 134.336C74.16 134.336 74.544 134.24 74.928 133.88C75.744 133.16 76.512 130.472 76.512 127.496C76.512 125.024 74.784 125.168 73.752 125.24C71.856 131.744 69.6 135.392 67.656 137.912C66.648 137.168 65.088 136.376 64.128 136.016C66.672 133.064 68.664 129.68 69.84 125.96C68.688 126.248 66.792 126.8 66.024 127.184L64.704 123.32C65.688 123.128 69.96 122.24 70.848 122.096C71.352 119.792 71.496 118.04 71.592 116.84ZM79.104 121.232L82.032 119.36C84.672 122.312 86.352 126.32 86.352 128.216C86.352 129.464 85.944 130.136 84.648 130.76C84.432 130.856 83.472 131.312 82.248 131.504C81.744 130.088 81.456 129.392 80.856 128.288C81.504 128.144 82.392 127.952 82.392 127.184C82.392 126.584 81.792 125 81.144 123.896C80.52 122.816 79.608 121.808 79.104 121.232ZM94.512 119.864L95.76 116.648C96.6 116.768 100.296 117.32 103.824 119.312C102.912 120.584 102.312 121.616 101.664 122.816C99.648 121.4 96.72 120.344 94.512 119.864ZM93.096 120.992L97.08 122.264C97.248 122.312 97.44 122.36 97.44 122.576C97.44 122.864 97.152 122.888 96.888 122.912C96.312 123.992 95.664 125.408 95.304 127.064C97.44 125.6 100.224 124.832 102.312 124.832C106.44 124.832 108.456 127.88 108.456 130.736C108.456 135.32 104.136 138.464 96.192 138.464C95.496 138.464 94.896 138.44 94.44 138.416C94.296 137.096 94.104 136.448 93.312 134.384C94.128 134.576 94.968 134.744 96.864 134.744C102.312 134.744 104.472 132.704 104.472 130.688C104.472 129.992 104.136 128.24 101.664 128.24C98.232 128.24 95.736 130.448 94.008 132.176L90.576 130.928C91.272 126.824 91.992 124.208 93.096 120.992Z" fill="#FFEB00"/>
</svg>
