<svg width="361" height="60" viewBox="0 0 361 60" fill="none" xmlns="http://www.w3.org/2000/svg">
<path d="M360.461 30.0002L342.279 59.9995L193.188 59.9999L211.37 30.0001L193.188 0.000371753L342.279 -7.94752e-07L360.461 30.0002Z" fill="#006948"/>
<path d="M200.461 30.0002L182.279 59.9996L0.461359 60L0.461362 0.000435288L182.279 -7.94752e-07L200.461 30.0002Z" fill="#006948"/>
<path d="M242.434 23.4381L239.987 24.0725C239.788 20.5201 238.881 17.7832 238.229 15.7351C236.181 18.9976 233.879 21.1907 232.502 22.3507V23.4563C232.502 23.9275 232.647 23.9456 232.973 23.9456H235.438C235.855 23.9456 236.054 23.8006 236.199 23.4381C236.435 22.84 236.525 21.2994 236.561 20.6288L238.809 21.245C238.428 25.4681 237.758 26.2112 236.29 26.2112H231.613C230.816 26.2112 230.218 25.6675 230.218 24.8338V24.0725C228.097 25.4319 226.937 25.8487 226.194 26.1206L225.107 24C225.958 23.71 227.789 23.0756 230.218 21.2632V13.8139H232.502V19.3057C235.22 16.6595 237.268 13.4152 238.555 9.84458L240.748 10.7146C240.386 11.6389 239.715 13.3245 238.283 15.6445L240.404 14.8651C241.401 17.6382 242.198 20.5019 242.434 23.4381ZM226.72 15.2458L228.985 15.6264C228.804 17.2576 228.333 20.3932 227.155 22.7313L225.052 21.4625C225.433 20.7194 226.321 19.0338 226.72 15.2458ZM229.402 11.4033L230.417 9.39146C231.65 9.62708 233.933 10.0983 236.326 11.3308L235.13 13.4695C233.48 12.4908 231.251 11.7296 229.402 11.4033ZM244.337 18.9613H249.267C249.521 18.5263 249.666 18.2726 249.901 17.8195H245.134V12.9802H249.575V11.9289H244.409V10.0077H261.266V11.9289H255.973V12.9802H260.577V17.8195H252.457C252.33 18.1095 252.221 18.3451 251.877 18.9613H261.302V20.9188H258.202C257.931 21.4988 257.568 22.2782 256.662 23.2388C258.13 23.6738 259.399 24.145 260.794 24.7069L259.036 26.6825C258.057 26.2112 256.499 25.4681 254.632 24.7975C252.566 25.9394 248.904 26.4287 245.443 26.4831L244.663 24.3444C247.001 24.3625 249.231 24.2538 251.659 23.855C250.699 23.6013 249.267 23.2388 246.276 22.7494C246.766 22.26 247.255 21.7525 247.908 20.9188H244.337V18.9613ZM251.605 14.5751V16.2245H253.925V14.5751H251.605ZM251.605 11.9289V12.9802H253.925V11.9289H251.605ZM247.291 14.5751V16.2245H249.575V14.5751H247.291ZM255.973 14.5751V16.2245H258.402V14.5751H255.973ZM255.737 20.9188H250.59C250.264 21.3357 250.228 21.39 249.901 21.7888C251.297 22.0063 252.91 22.2782 254.342 22.6225C255.157 21.9338 255.466 21.39 255.737 20.9188ZM279.292 22.2963L278.15 24.3988C277.661 24.0544 276.627 23.3113 275.612 22.8219C275.54 24.4531 274.724 25.8487 271.969 25.8487C269.595 25.8487 267.837 24.6344 267.837 22.695C267.837 20.9913 269.287 19.5413 271.734 19.5413C272.35 19.5413 272.857 19.6319 273.184 19.6863C273.075 18.0007 273.057 17.1851 273.039 16.007L275.359 16.0614C275.359 16.9676 275.377 17.2939 275.54 20.2663C276.211 20.5201 277.352 20.9732 279.292 22.2963ZM273.292 21.8432C272.767 21.6982 272.024 21.6075 271.516 21.6075C270.628 21.6075 269.957 22.0063 269.957 22.6588C269.957 23.4019 270.773 23.7825 271.77 23.7825C273.329 23.7825 273.329 22.9125 273.329 22.55C273.329 22.4413 273.311 22.3688 273.292 21.8432ZM268.236 9.95332L270.719 10.4246C270.61 10.7508 270.229 11.8564 269.994 12.5633C270.972 12.4545 271.426 12.4002 272.368 12.2189L272.241 14.5751C270.936 14.7926 269.504 14.9014 269.16 14.9376C267.583 19.2876 266.314 21.97 265.789 23.0575L263.469 22.0607C264.665 19.8132 265.734 17.4751 266.604 15.0826C265.807 15.1189 265.372 15.1189 264.158 15.1189L264.067 12.7083C265.608 12.7989 265.988 12.7808 267.402 12.7627C267.764 11.7114 267.928 11.0952 268.236 9.95332ZM273.147 14.0133L274.162 12.0377C275.232 12.4364 276.972 13.107 279.219 14.3758L278.204 16.5145C276.609 15.4814 274.978 14.5933 273.147 14.0133ZM285.926 14.6114L285.128 10.4971L287.593 10.0258L288.336 14.0858C288.373 14.3214 288.536 15.0101 288.663 15.4633C289.841 15.0464 290.33 14.9014 294.771 13.7051L295.496 16.0976C287.176 17.9101 284.566 19.4144 284.566 21.1907C284.566 22.1694 285.237 23.13 289.514 23.13C291.907 23.13 294.372 22.7494 295.532 22.5682L295.731 25.015C293.846 25.2869 291.599 25.45 289.696 25.45C287.611 25.45 282.138 25.3956 282.138 21.3538C282.138 18.8707 284.077 17.4026 286.343 16.3876C286.161 15.7351 285.998 14.992 285.926 14.6114ZM312.494 13.7051L313.237 15.7351C311.968 16.152 310.917 16.442 309.377 16.7682C309.612 17.1489 310.645 18.762 311.823 20.1938L310.682 21.4082C309.449 20.8826 308.416 20.5926 306.821 20.3751L306.567 18.6895C307.274 18.762 308.18 18.9976 308.271 19.0157C307.709 18.2001 307.51 17.9101 307.038 17.167C304.719 17.5113 302.852 17.7288 298.81 17.8557L298.502 15.7351C300.64 15.7895 303.395 15.6807 305.933 15.3183C305.824 15.1189 305.353 14.267 305.262 14.1039C302.942 14.3576 301.474 14.4301 299.299 14.4301L299.009 12.3277C300.804 12.3639 302.525 12.3277 304.265 12.1464C304.03 11.6752 303.903 11.4214 303.432 10.4064L305.86 9.91707C306.241 10.8596 306.404 11.2039 306.676 11.8202C307.256 11.7296 309.068 11.4396 310.953 10.6964L311.642 12.6539C310.102 13.2158 308.633 13.542 307.618 13.7233C307.745 13.977 308.09 14.5933 308.253 14.9014C309.775 14.5751 310.972 14.3033 312.494 13.7051ZM311.117 23.0213L311.044 25.3956C310.029 25.5406 308.579 25.7762 306.513 25.7762C304.646 25.7762 299.662 25.7037 299.662 22.0425C299.662 20.1938 301.075 19.4688 301.619 19.1788L303.16 20.5201C302.634 20.7738 302.072 21.1907 302.072 21.8613C302.072 22.7857 302.779 23.565 306.35 23.565C307.546 23.565 309.105 23.4563 311.117 23.0213ZM317.188 10.7327L319.671 11.0046C319.363 12.3639 318.62 15.4814 318.62 19.3601C318.62 22.26 319.055 24.2538 319.272 25.1781L316.88 25.4681C316.408 23.4925 316.263 21.4444 316.263 19.4144C316.263 15.4633 316.88 12.3639 317.188 10.7327ZM321.773 14.6839L321.81 12.2733C322.825 12.1645 324.619 11.9652 326.957 11.9652C328.498 11.9652 329.404 12.0377 330.074 12.092L330.02 14.4664C329.567 14.4301 328.479 14.3214 326.848 14.3214C324.474 14.3214 322.661 14.5751 321.773 14.6839ZM330.818 21.8069L330.763 24.29C329.893 24.4169 328.425 24.6163 326.649 24.6163C323.985 24.6163 321.066 24.2356 321.066 21.39C321.066 20.4657 321.375 19.7044 321.864 18.907L323.894 19.3057C323.314 20.1394 323.26 20.6832 323.26 20.9551C323.26 21.8975 324.13 22.2419 326.54 22.2419C328.353 22.2419 329.748 22.0063 330.818 21.8069ZM255.377 36.1102L256.7 36.092C258.603 36.0739 259.564 35.9652 260.126 35.9289L260.18 38.2308C259.22 38.1764 257.788 38.1764 256.755 38.2126L255.395 38.2489L255.45 43.5413C255.468 45.39 255.196 48.6344 250.483 50.4106L248.907 48.4531C249.976 48.0906 251.716 47.3475 252.677 46.0063C252.35 46.1694 251.861 46.4232 251.045 46.4232C249.197 46.4232 247.62 44.9913 247.62 42.7257C247.62 40.4601 249.269 39.0464 251.299 39.0464C252.26 39.0464 252.767 39.282 253.148 39.4814L253.112 38.3033L248.037 38.4301C246.75 38.4664 245.807 38.5026 244.611 38.5933L244.575 36.2552C245.39 36.2914 246.387 36.3095 248 36.2733L253.057 36.1645L253.021 34.0077H255.341L255.377 36.1102ZM253.021 42.7438C253.021 41.2395 251.879 41.0401 251.462 41.0401C250.574 41.0401 249.903 41.7651 249.903 42.7257C249.903 43.7951 250.61 44.4113 251.462 44.4113C252.35 44.4113 253.021 43.7044 253.021 42.7438ZM273.308 33.8808L275.085 35.8202C272.203 37.9226 269.955 39.2639 266.838 41.1489C266.222 41.5113 265.932 41.6926 265.932 41.9282C265.932 42.1457 266.04 42.2001 266.947 42.6895C271.568 45.1363 273.381 46.405 275.61 48.1269L273.816 50.1387C270.354 47.3113 267.599 45.7707 264.989 44.3207C263.938 43.7226 262.995 43.197 262.995 41.9826C262.995 40.7682 263.775 40.2789 265.587 39.1551C269.683 36.6177 271.351 35.4033 273.308 33.8808ZM271.75 39.862L273.055 38.9376C273.997 39.8257 274.613 40.6595 275.52 42.0188L274.142 43.0338C273.345 41.6745 272.783 40.9314 271.75 39.862ZM274.088 38.2308L275.375 37.2702C276.299 38.122 276.988 39.0101 277.876 40.3332L276.516 41.3664C275.683 40.007 275.157 39.3364 274.088 38.2308ZM291.1 39.3908V40.8407H296.138V50.2475H284.067V40.8407H289.015V39.3908H283.252V42.1276C283.252 44.1394 282.926 47.6738 281.312 50.5375L279.5 48.7431C280.769 46.4413 281.004 43.5413 281.004 42.0732V34.0077H295.975V39.3908H291.1ZM289.015 44.5926V42.6895H286.206V44.5926H289.015ZM294.036 44.5926V42.6895H291.1V44.5926H294.036ZM289.015 48.3444V46.2963H286.206V48.3444H289.015ZM294.036 48.3444V46.2963H291.1V48.3444H294.036ZM293.782 37.542V35.9833H283.252V37.542H293.782ZM309.715 33.9171L311.509 35.8927C308.953 37.6689 305.691 39.6082 302.99 41.2214C302.03 41.7832 302.03 41.8013 302.03 41.9826C302.03 42.182 302.102 42.2182 302.791 42.5626C307.721 45.0638 309.715 46.405 311.98 48.1088L310.24 50.1206C306.452 47.1844 304.078 45.9157 301.015 44.2844C299.927 43.7044 299.13 43.1245 299.13 42.0551C299.13 40.8407 300.072 40.2426 300.797 39.8076C304.132 37.7776 306.434 36.4002 309.715 33.9171Z" fill="#FEF600"/>
<path d="M35.2912 10.7146H37.7562V20.3207H35.2912V10.7146ZM44.0998 10.4246H46.5648V16.5507C46.5648 20.5744 45.6586 24.1088 39.623 25.9394L38.3905 23.7463C43.5742 22.3507 44.0998 19.3963 44.0998 16.3514V10.4246ZM50.2955 11.4939H64.7228L65.7559 12.7808C65.1578 13.8683 63.6716 16.4964 61.0616 19.0701L59.1041 17.5838C60.3729 16.4239 61.0979 15.572 62.2216 13.9045H50.2955V11.4939ZM56.2042 15.8076H58.7235C58.7054 20.3388 57.4004 23.8188 53.4673 25.9937L51.5824 24.1631C55.2617 22.3325 56.2042 19.7226 56.2042 15.8076ZM71.148 10.6602H73.6311V14.992C73.6311 18.0551 73.468 22.2963 69.6799 25.9212L67.8131 24.1269C70.3868 21.5713 71.148 19.0157 71.148 15.1914V10.6602ZM75.3167 10.4064H77.7636V22.115C79.6848 20.9913 81.2073 19.3419 82.4941 17.5476L84.1979 19.2876C82.2223 22.0244 79.3586 24.6525 75.3167 25.74V10.4064ZM89.6422 26.03L88.0291 24.0363C91.4547 22.9669 93.2128 21.5169 94.6809 19.9582C92.7597 18.5626 91.5272 17.8376 89.7329 16.8407C89.026 17.602 88.301 18.2182 87.866 18.5988L86.0354 16.9495C87.4129 15.862 89.2616 14.1401 90.8385 11.1314H100.825C100.028 18.4538 96.3121 23.7463 89.6422 26.03ZM97.8528 13.4152H92.3428C91.8716 14.2126 91.2553 15.0101 91.201 15.1008C92.7416 15.9164 94.1009 16.6414 96.1128 18.0188C97.309 16.0251 97.6896 14.2308 97.8528 13.4152ZM112.811 15.8076V25.885H110.292V17.2576C107.682 18.6351 106.051 19.2151 104.402 19.7769L103.151 17.5657C110.383 15.2639 114.497 11.6389 116.291 10.0258L118.213 11.6208C116.672 13.0345 115.258 14.2126 112.811 15.8076ZM136.32 24.6163L134.109 25.7762C133.873 25.1962 133.511 24.29 132.949 23.1663L121.023 24.8338L120.461 22.5138L123.016 22.1694C124.43 18.7438 125.572 16.0251 127.493 10.2433L129.849 11.0589C127.983 16.5689 126.406 20.3569 125.771 21.8069L131.825 21.0276C130.828 19.2694 129.958 18.0551 129.596 17.5476L131.626 16.3876C133.257 18.6351 134.816 21.1363 136.32 24.6163ZM142.013 11.947L154.174 11.0589L154.374 13.4877C153.123 13.542 151.274 13.5964 149.226 14.7564C147.994 15.4633 145.964 16.9857 145.964 19.4144C145.964 22.5319 149.697 23.2388 151.528 23.42L150.386 25.7944C146.018 25.2325 143.426 22.9669 143.426 19.6138C143.426 17.7288 144.296 15.9164 145.674 14.7926C146.091 14.4664 146.816 13.977 147.486 13.6145L139.04 14.6114L138.823 12.0739C139.983 12.0377 141.306 12.0014 142.013 11.947ZM149.426 16.6414L150.821 15.8076C151.637 16.7864 152.217 17.7832 152.906 19.1607L151.456 20.0669C150.803 18.617 150.314 17.7832 149.426 16.6414ZM151.909 15.2458L153.304 14.4301C154.211 15.5176 154.754 16.442 155.425 17.7651L153.975 18.6532C153.286 17.1851 152.833 16.4239 151.909 15.2458ZM33.2573 34.0258V36.1283H29.3786V38.7201H32.7136V50.1569H20.8781V38.7201H24.1768V36.1283H20.7331V34.0258H33.2573ZM27.4393 38.7201V36.1283H26.098V38.7201H27.4393ZM27.4393 48.0725V40.732H26.098V48.0725H27.4393ZM24.2131 48.0725V40.732H22.89V48.0725H24.2131ZM30.6836 48.0725V40.732H29.3242V48.0725H30.6836ZM19.6456 38.2126V50.5919H17.4888V42.472C17.1988 42.8526 17.0719 43.0157 16.6732 43.4507L15.9119 40.4601C16.8 39.282 17.8694 37.6326 18.395 33.4458L20.6606 33.6271C20.3887 35.7477 20.0806 36.8895 19.6456 38.2126ZM46.6515 34.7871H51.5452V36.7445C50.8565 37.832 50.2765 38.5933 48.9896 39.8076C50.204 40.3876 51.0921 40.732 52.6146 41.1126L51.6721 43.2694C49.6421 42.5807 48.5365 41.9826 47.1953 41.1489C45.8903 41.9645 44.9115 42.5082 42.9178 43.2876H51.2371V50.175H42.6459V43.3963C42.5009 43.4507 42.4466 43.4688 42.2835 43.5232L41.4316 41.4751C43.1172 41.0764 44.1322 40.6414 45.5097 39.8801C45.0384 39.4814 44.3497 38.9014 43.7516 38.0133C43.2984 38.3576 43.0447 38.5208 42.5734 38.8108L41.4316 36.9983V38.7383H39.8004V39.8257C40.0722 40.4782 40.7428 41.8376 42.0841 43.3238L41.0872 45.245C40.5253 44.4476 40.2354 43.9763 39.8004 43.0701V50.5556H37.716V42.7801C36.9729 44.9369 36.0123 46.405 35.6317 46.985L34.8704 44.0669C36.5017 42.0188 37.1541 40.297 37.5891 38.7383H35.2148V36.6539H37.716V33.4458H39.8004V36.6539H41.4316V36.9439C42.4284 36.3458 43.8059 35.5483 44.9297 33.4277L47.1953 33.6996C47.0321 34.0439 46.9053 34.3521 46.6515 34.7871ZM49.0802 36.7445H45.1653C45.8178 37.687 46.6696 38.3214 47.1953 38.7383C48.3371 37.7958 48.6452 37.3789 49.0802 36.7445ZM49.0984 48.145V45.2813H44.7665V48.145H49.0984ZM57.5807 38.7745C59.1939 38.7745 60.4807 40.0795 60.4807 41.6745C60.4807 43.2876 59.1576 44.5744 57.5807 44.5744C55.9858 44.5744 54.6808 43.2876 54.6808 41.6745C54.6808 40.0795 55.9676 38.7745 57.5807 38.7745ZM67.9079 35.3489L69.811 36.1102C68.7598 37.8683 67.5635 39.5176 66.2948 41.1126C66.5667 41.1126 67.7448 41.022 67.9804 41.022C67.8173 40.5326 67.7085 40.3151 67.5454 39.9526L69.0135 39.427C69.3216 40.007 69.7022 40.7501 70.1372 42.2182V35.947H73.7622V33.464H75.7015V35.947H79.4715V48.9062C79.4715 49.5769 79.3627 50.5737 77.8221 50.5737H75.2484L74.7228 48.3806H76.8071C77.3146 48.3806 77.3871 48.2538 77.3871 47.8006V45.1725L76.3178 46.5138C75.2303 44.6832 74.8315 42.5626 74.7047 41.7832C74.5959 42.617 74.3422 44.6651 73.2366 46.55L72.1672 45.3538V50.5737H70.1372V42.9613L68.6329 43.5051C68.5785 43.1788 68.5423 43.0882 68.4879 42.7982C68.3248 42.8345 68.1073 42.8526 67.4366 42.9432V50.5737H65.5335V43.1245C64.5729 43.197 63.7573 43.2513 62.9055 43.2876L62.7605 41.2395C63.5036 41.2395 63.7211 41.2395 64.0292 41.2214C64.5367 40.6051 64.7904 40.2426 64.9898 39.9526C64.2467 39.0101 63.5398 38.3758 62.6517 37.6326L63.6123 35.7839C63.9023 35.9652 63.9567 36.0195 64.1742 36.1827C65.0079 34.8958 65.4067 33.8446 65.5879 33.3733L67.491 33.9533C66.8023 35.4577 65.7873 37.0164 65.4973 37.4514C65.896 37.8864 66.0048 38.0314 66.1679 38.2308C66.9292 37.0345 67.4548 36.1283 67.9079 35.3489ZM77.3871 38.0858H75.7015C75.774 40.6957 76.6078 42.9432 77.3871 44.1757V38.0858ZM72.1672 38.0858V44.2119C72.711 43.3601 73.1641 42.2545 73.5084 40.0795C73.6534 39.1189 73.7259 38.3214 73.7441 38.0858H72.1672ZM64.3554 49.5044L62.6336 48.6888C63.0505 47.4744 63.1955 46.6225 63.3042 44.1213L64.9536 44.2844C64.9536 45.1182 64.8448 47.6375 64.3554 49.5044ZM69.666 48.0725L68.1979 48.4169C68.1979 47.1663 68.1073 45.4625 67.9441 44.2482L69.2491 44.0669C69.4666 45.2994 69.6116 47.13 69.666 48.0725ZM83.0783 34.9139V33.4821H85.1627V34.9139H88.117V33.4821H90.2013V34.9139H91.3613V36.9077H90.2013V43.8494H91.3251V45.8069H81.8458V43.8494H83.0783V36.9077H82.0996V34.9139H83.0783ZM88.117 39.7351H85.1627V40.9132H88.117V39.7351ZM88.117 36.9077H85.1627V38.0133H88.117V36.9077ZM88.117 42.5445H85.1627V43.8494H88.117V42.5445ZM91.7601 33.9533H98.4119V48.9787C98.4119 50.465 97.4694 50.5194 96.7806 50.5194H94.4063L94.0438 48.3625H95.7113C96.2006 48.3625 96.2731 48.1088 96.2731 47.7644V45.1182H93.5726C93.2644 48.5619 92.1407 49.9937 91.7238 50.5375L89.8932 49.015C91.1982 47.2025 91.7601 45.4807 91.7601 40.3695V33.9533ZM96.2731 36.0739H93.79V38.5933H96.2731V36.0739ZM96.2731 40.5689H93.79C93.7719 41.5295 93.7719 42.0188 93.7538 43.0882H96.2731V40.5689ZM84.1296 45.9157L85.942 46.8219C85.3802 48.145 84.1658 49.7219 83.1508 50.5556L81.6465 48.9969C82.6433 48.1994 83.6402 46.7857 84.1296 45.9157ZM86.8664 47.0032L88.3526 45.9338C88.8782 46.405 89.6395 47.2206 90.2557 48.2356L88.7332 49.5587C88.3345 48.8519 87.6639 47.8731 86.8664 47.0032ZM106.462 49.4681L106.48 47.0756C106.861 47.1844 107.314 47.3113 107.894 47.3113C108.963 47.3113 109.869 47.1481 109.869 42.6713C109.869 40.5145 109.344 40.0432 107.259 40.1701C106.679 42.472 105.483 46.3869 103.326 49.9031L101.224 48.5438C102.474 46.55 103.761 44.0669 104.758 40.4601C104.359 40.5145 101.586 40.9495 101.459 40.9857L101.169 38.6295L105.32 38.122C105.737 36.092 105.846 35.3852 106.009 34.1346L108.492 34.5514C108.147 36.4002 108.039 36.8895 107.803 37.9045C110.775 37.9408 112.153 39.0283 112.153 42.762C112.153 48.1813 110.92 49.6494 108.256 49.6494C107.368 49.6494 106.734 49.5225 106.462 49.4681ZM116.666 43.9763L114.4 44.7738C114.02 41.2395 112.57 38.8651 111.011 37.4877L112.697 36.237C113.766 37.2702 115.959 39.6264 116.666 43.9763ZM112.914 34.9502L114.002 34.0802C114.944 35.0227 115.524 35.8564 116.34 37.1795L115.162 38.1039C114.419 36.7808 113.875 36.0014 112.914 34.9502ZM114.962 33.7177L116.068 32.8477C116.974 33.754 117.572 34.6239 118.388 35.947L117.228 36.8895C116.467 35.5302 115.959 34.8052 114.962 33.7177ZM129.155 49.2687L128.321 46.985C130.913 46.7675 133.722 45.4444 133.722 42.4357C133.722 39.9707 131.801 39.3001 130.659 39.3001C129.137 39.3001 127.705 40.007 126.182 41.4026C126.146 44.4838 126.182 47.3294 126.219 49.7944H123.899L123.935 43.9582C123.174 45.0276 122.503 46.0607 121.814 47.1844L120.056 45.5532C121.869 43.0882 123.808 40.3876 123.953 40.1882V39.4451C122.612 39.6445 122.213 39.6807 120.944 39.7714L120.709 37.3789C121.651 37.3608 123.047 37.3064 123.953 37.1977L123.971 34.2071H126.291C126.291 34.8052 126.219 38.5208 126.219 38.7383C127.451 37.832 128.937 37.0708 130.822 37.0708C133.324 37.0708 136.187 38.5933 136.187 42.4901C136.187 46.8582 132.617 48.8519 129.155 49.2687ZM144.389 34.1346L146.727 34.6239C146.437 36.2914 146.328 36.7989 146.074 37.8864C150.098 37.8139 150.859 39.8257 150.859 42.762C150.859 48.9787 149.01 49.5225 146.817 49.5225C145.839 49.5225 145.186 49.3775 144.769 49.2687L144.787 46.9125C145.15 47.0213 145.784 47.2206 146.564 47.2206C147.47 47.2206 148.485 47.1663 148.485 42.7076C148.485 40.7501 148.177 40.0795 146.346 40.0795C146.092 40.0795 146.002 40.0795 145.53 40.0976C143.972 45.7707 142.34 48.5981 141.634 49.8125L139.622 48.4531C141.742 45.0094 142.576 42.1638 143.12 40.3695C141.416 40.6051 140.51 40.7682 139.694 40.9132L139.368 38.6476L143.682 38.122C143.954 36.9077 144.117 36.0377 144.389 34.1346ZM155.082 43.8494L152.726 44.6288C152.508 41.9463 151.657 39.3545 149.735 37.397L151.62 36.0558C152.563 37.0708 154.683 39.5176 155.082 43.8494ZM158.949 45.4263L157.463 43.6138L165.692 36.8352C163.48 37.0889 162.266 37.1795 159.928 37.2339L159.729 34.9502C163.263 34.9864 166.054 34.8777 168.918 34.4789L169.951 36.2189C167.595 37.832 165.945 39.1189 164.912 39.9164C165.402 39.8076 166.018 39.6445 166.942 39.6445C170.35 39.6445 172.235 41.7832 172.235 44.3932C172.235 47.4563 169.752 49.885 165.692 49.885C163.317 49.885 160.87 48.9606 160.87 46.8219C160.87 45.2632 162.175 44.1213 164.042 44.1213C165.674 44.1213 167.504 44.9913 168.483 46.9125C169.86 46.0063 169.86 44.7557 169.86 44.4476C169.86 43.3057 169.135 41.602 166.163 41.602C163.045 41.602 161.269 43.2694 158.949 45.4263ZM166.453 47.8188C165.547 46.115 164.133 46.115 163.952 46.115C163.48 46.115 163.009 46.3507 163.009 46.7857C163.009 47.565 164.441 47.9094 165.438 47.9094C165.909 47.9094 166.254 47.855 166.453 47.8188Z" fill="#FEF600"/>
</svg>
