<svg width="178" height="180" viewBox="0 0 178 180" fill="none" xmlns="http://www.w3.org/2000/svg">
<path d="M177.912 89.7555C177.912 92.2686 169.4 94.3907 169.19 96.8479C168.979 99.3051 176.993 102.913 176.573 105.348C176.152 107.783 167.397 108.408 166.766 110.798C166.135 113.188 173.407 118.136 172.566 120.46C171.725 122.783 163.002 121.856 161.962 124.101C160.921 126.346 167.231 132.489 166.002 134.644C164.773 136.8 156.35 134.332 154.933 136.364C153.516 138.397 158.685 145.546 157.102 147.455C155.52 149.365 147.649 145.456 145.901 147.221C144.152 148.986 148.026 156.916 146.133 158.524C144.24 160.132 137.167 154.905 135.142 156.335C133.116 157.765 135.573 166.253 133.437 167.504C131.301 168.755 125.235 162.366 122.988 163.427C120.741 164.488 121.704 173.267 119.379 174.127C117.055 174.987 112.195 167.627 109.805 168.275C107.414 168.923 106.849 177.735 104.403 178.171C101.957 178.606 98.4588 170.497 95.9794 170.721C93.4999 170.944 91.4411 179.522 88.9616 179.522C86.4822 179.522 84.368 170.933 81.9328 170.721C79.4976 170.509 75.9223 178.595 73.5093 178.171C71.0962 177.746 70.4764 168.911 68.1076 168.275C65.7388 167.638 60.8353 174.976 58.5329 174.127C56.2306 173.279 57.1493 164.477 54.9244 163.427C52.6995 162.377 46.6116 168.744 44.4753 167.504C42.339 166.264 44.7852 157.765 42.7706 156.335C40.7561 154.905 33.6719 160.121 31.7791 158.524C29.8863 156.927 33.7605 148.986 32.0116 147.221C30.2627 145.456 22.4037 149.365 20.8097 147.455C19.2158 145.546 24.3961 138.408 22.9793 136.364C21.5624 134.321 13.15 136.8 11.9103 134.644C10.6705 132.489 17.002 126.368 15.9504 124.101C14.8989 121.833 6.19864 122.805 5.34633 120.46C4.49402 118.114 11.7885 113.211 11.1465 110.798C10.5045 108.386 1.77104 107.816 1.33935 105.348C0.907659 102.879 8.94376 99.3498 8.72238 96.8479C8.501 94.346 0 92.2686 0 89.7667C0 87.2648 8.51207 85.1315 8.72238 82.6742C8.93269 80.217 0.918728 76.6094 1.33935 74.1745C1.75997 71.7396 10.5156 71.1141 11.1465 68.7239C11.7774 66.3337 4.50509 61.3858 5.34633 59.0626C6.18758 56.7394 14.91 57.6665 15.9504 55.4215C16.9909 53.1764 10.6816 47.0334 11.9103 44.8778C13.1389 42.7221 21.5624 45.1905 22.9793 43.1577C24.3961 41.1249 19.2269 33.9766 20.8097 32.0667C22.3926 30.1568 30.2627 34.066 32.0116 32.3013C33.7605 30.5365 29.8863 22.6064 31.7791 20.9981C33.6719 19.3897 40.745 24.6169 42.7706 23.1872C44.7963 21.7576 42.339 13.269 44.4753 12.018C46.6116 10.7671 52.6774 17.1559 54.9244 16.0948C57.1714 15.0337 56.2084 6.25474 58.5329 5.39471C60.8574 4.53469 65.7167 11.8952 68.1076 11.2474C70.4985 10.5995 71.063 1.78707 73.5093 1.35147C75.9555 0.915873 79.4533 9.02469 81.9328 8.80131C84.4123 8.57793 86.4711 0 88.9505 0C91.43 0 93.5442 8.5891 95.9794 8.80131C98.4146 9.01353 101.99 0.927042 104.403 1.35147C106.816 1.7759 107.436 10.6107 109.805 11.2474C112.173 11.884 117.077 4.54585 119.379 5.39471C121.682 6.24357 120.763 15.0449 122.988 16.0948C125.213 17.1447 131.301 10.7783 133.437 12.018C135.573 13.2578 133.127 21.7576 135.142 23.1872C137.156 24.6169 144.24 19.4009 146.133 20.9981C148.026 22.5952 144.152 30.5365 145.901 32.3013C147.649 34.066 155.508 30.1568 157.102 32.0667C158.696 33.9766 153.516 41.1137 154.933 43.1577C156.35 45.2017 164.762 42.7221 166.002 44.8778C167.242 47.0334 160.91 53.1541 161.962 55.4215C163.013 57.6888 171.714 56.7171 172.566 59.0626C173.418 61.4081 166.124 66.3114 166.766 68.7239C167.408 71.1365 176.141 71.7061 176.573 74.1745C177.005 76.6429 168.968 80.1723 169.19 82.6742C169.411 85.1761 177.912 87.2536 177.912 89.7555Z" fill="#FFEB00"/>
<path d="M54.8708 44.0954L52.2148 44.8474C52.1988 42.4314 51.6548 40.0634 50.9188 37.7594C50.1508 38.9114 48.6788 40.9754 46.2788 43.0554V43.7754C46.2788 44.1914 46.4228 44.2234 46.6948 44.2234H48.2948C48.7428 44.2234 49.0948 44.0794 49.1428 41.3274L51.4948 42.0634C51.4148 43.3434 51.1748 45.0074 50.8868 45.5834C50.3748 46.6074 49.3508 46.6074 49.2708 46.6074H45.3668C44.4548 46.6074 43.9268 45.7914 43.9268 45.1194V44.8474C42.7908 45.5674 41.7828 46.1274 40.6468 46.5594L39.4148 44.3194C39.9428 44.1434 40.5988 43.9034 41.4468 43.4714L39.3988 42.1914C40.0388 40.9434 40.5028 39.7114 40.7748 36.6234L43.1428 37.0234C42.9028 39.4234 42.5028 41.6794 41.7668 43.2954C42.1188 43.1194 42.8708 42.7034 43.9268 41.9194V35.5514H46.2788V39.8234C48.4548 37.5834 50.0228 34.8474 51.0308 31.9034L53.3828 32.7994C53.0788 33.6474 52.4868 35.2314 51.3828 37.0234L53.0468 36.4154C53.7668 38.3194 54.6468 41.5514 54.8708 44.0954ZM43.1108 33.6634L44.2148 31.6154C47.0628 32.1434 48.7748 32.9754 49.4788 33.3114L48.1988 35.5034C46.9188 34.6874 44.5988 33.9034 43.1108 33.6634ZM58.6948 40.0314H62.8548C62.9988 39.7594 63.2068 39.3754 63.2708 39.2314H59.3508V34.9594H63.2868V34.1914H58.8068V32.1274H73.7348V34.1914H69.2228V34.9594H73.2228V39.2314H66.0868C65.9908 39.4714 65.9428 39.6154 65.7028 40.0314H73.7989V42.0634H71.2388C71.0148 42.5114 70.7268 43.0394 70.0868 43.7434C71.9108 44.2394 72.8868 44.6234 73.5268 44.8634L71.6868 47.0074C71.0468 46.6874 69.9588 46.1434 67.9428 45.4074C66.2628 46.2714 63.3028 46.7994 59.7508 46.8634L58.9508 44.5914C59.7508 44.6234 60.1028 44.6234 60.7748 44.6234C62.7268 44.6234 63.7988 44.5114 64.6148 44.3994C62.8228 43.9034 61.3988 43.6954 60.3108 43.5354C60.6788 43.1354 61.0628 42.7034 61.5588 42.0634H58.6948V40.0314ZM65.4308 36.5274V37.6474H67.0308V36.5274H65.4308ZM65.4308 34.1914V34.9594H67.0308V34.1914H65.4308ZM61.6548 36.5274V37.6474H63.2868V36.5274H61.6548ZM69.2228 36.5274V37.6474H70.8868V36.5274H69.2228ZM68.5508 42.0634H64.4228C64.2788 42.2554 64.2308 42.3354 63.9908 42.6234C64.8548 42.7194 66.0228 42.8474 67.5428 43.1674C68.0708 42.7034 68.2948 42.3994 68.5508 42.0634ZM92.0936 42.8794L90.8936 45.0714C90.0296 44.4634 89.5176 44.1434 88.8296 43.7754C88.8136 44.0634 88.7656 44.6874 88.3016 45.2634C87.7096 45.9834 86.5896 46.2714 85.5176 46.2714C83.4056 46.2714 81.7416 45.1994 81.7416 43.3594C81.7416 41.7594 83.1176 40.3994 85.3736 40.3994C85.7736 40.3994 86.0776 40.4474 86.2856 40.4634C86.1896 38.8154 86.1736 38.4314 86.1736 37.5194L88.6216 37.5674C88.6216 38.1114 88.7656 40.5754 88.7816 41.0714C89.6456 41.4074 90.6376 41.8554 92.0936 42.8794ZM86.3976 42.7354C85.9176 42.5914 85.4056 42.5594 85.1656 42.5594C84.3336 42.5594 83.9656 42.9434 83.9656 43.3114C83.9656 43.8554 84.6056 44.1114 85.3096 44.1114C86.4616 44.1114 86.4456 43.5674 86.3976 42.7354ZM82.0136 32.0634L84.6536 32.5594C84.5416 32.8794 84.2696 33.6794 84.0776 34.2394C84.1576 34.2234 85.3576 34.0634 85.9016 33.9514L85.7576 36.4314C84.7176 36.6074 83.6936 36.7194 83.1976 36.7514C81.7896 40.6394 80.7016 42.9434 80.2536 43.9034L77.8056 42.8634C79.2456 40.1594 80.1096 37.9674 80.4936 36.9114C79.8216 36.9434 79.4536 36.9434 78.5096 36.9274L78.4456 34.4154C79.8696 34.4794 80.1736 34.4794 81.3256 34.4474C81.6456 33.4234 81.7736 32.9754 82.0136 32.0634ZM86.3176 35.9034L87.3896 33.8074C88.5096 34.2074 90.1416 34.8474 92.0296 35.9194L90.9576 38.1914C89.2776 37.0554 87.8856 36.3674 86.3176 35.9034ZM96.5327 32.3034H101.797V45.9994H96.5327V32.3034ZM99.8767 38.0474V34.5434H98.6767V38.0474H99.8767ZM99.8767 43.8074V40.0474H98.6767V43.8074H99.8767ZM105.157 45.1034L104.149 45.5994C103.525 44.2714 103.173 43.7114 102.389 42.6554L104.309 41.7754H102.325V39.4874H107.621V38.4474H102.181V36.1914H105.541V35.0394H102.645V32.8954H105.541V31.6794H107.941V32.8954H110.901V35.0394H107.941V36.1914H111.333V38.4474H110.021V39.4874H111.205V41.7754H110.021V45.1674C110.021 45.6474 110.005 46.8314 108.405 46.8314H105.461L105.157 45.1034ZM107.621 41.7754H104.549C105.637 43.2474 105.749 43.4234 106.293 44.4634H107.109C107.621 44.4634 107.621 44.0794 107.621 43.9034V41.7754ZM116.752 32.7514L119.36 33.0394C118.768 35.5674 118.448 37.8074 118.448 40.3994C118.448 43.0874 118.848 44.9114 119.024 45.6634L116.48 45.9514C116.288 45.0554 115.952 43.3594 115.952 40.4794C115.952 37.1674 116.4 34.6234 116.752 32.7514ZM120.864 36.6234L120.912 34.0634C121.824 33.9674 123.408 33.7914 125.472 33.7914C126.864 33.7914 127.792 33.8714 128.352 33.9194L128.288 36.4154C127.872 36.3834 126.88 36.2874 125.44 36.2874C123.28 36.2874 121.616 36.5114 120.864 36.6234ZM129.008 42.3034L128.944 44.9114C128.176 45.0234 126.864 45.1994 125.232 45.1994C122.72 45.1994 120.224 44.7994 120.224 42.1914C120.224 41.1674 120.624 40.4474 120.864 40.0154L123.008 40.4474C122.544 41.1674 122.544 41.6794 122.544 41.7434C122.544 42.4634 123.2 42.6874 125.232 42.6874C126.88 42.6874 128.32 42.4314 129.008 42.3034ZM65.2046 57.1114L65.2526 61.5754C65.2686 63.3194 65.0286 66.2954 60.5486 67.7354L58.9486 65.7674C61.0126 65.0954 61.8446 64.2794 62.1486 63.9594C61.9086 64.0714 61.6206 64.1994 61.0606 64.1994C59.4766 64.1994 58.0046 62.9674 58.0046 60.9834C58.0046 58.6634 59.8926 57.7354 61.4606 57.7354C62.1166 57.7354 62.4686 57.8794 62.7406 57.9914L62.7246 57.1754L58.6126 57.2714C56.6606 57.3194 55.7966 57.3994 55.4606 57.4154L55.3966 54.9354C56.5326 54.9834 57.7646 54.9674 58.5646 54.9514L62.6766 54.8554L62.6286 53.1274H65.1566L65.1886 54.8074L66.0846 54.7914C67.7646 54.7594 68.4846 54.6954 69.2526 54.6314L69.3006 57.1114C68.3886 57.0634 67.1086 57.0794 66.1326 57.0954L65.2046 57.1114ZM62.6606 60.9514C62.6606 60.0234 62.0526 59.7034 61.5566 59.7034C60.9166 59.7034 60.4046 60.2154 60.4046 60.9674C60.4046 61.7834 60.9806 62.2154 61.5566 62.2154C62.1806 62.2154 62.6606 61.7194 62.6606 60.9514ZM83.0802 52.9994L84.9682 55.0314C82.7762 56.6154 80.9682 57.7034 77.7522 59.5914C77.3202 59.8474 77.0642 59.9914 77.0642 60.1834C77.0642 60.3754 77.1442 60.4074 77.8642 60.7754C82.0562 62.9514 83.6402 64.0554 85.4322 65.3994L83.5442 67.5114C80.4242 65.0634 78.3922 63.9274 75.7522 62.4714C74.8722 61.9914 73.9122 61.4474 73.9122 60.2474C73.9122 59.0314 74.9042 58.4394 75.6562 57.9754C78.5682 56.1834 80.4882 54.9994 83.0802 52.9994ZM81.8482 58.3914L83.1282 57.5594C83.9442 58.3594 84.5522 59.2074 85.2562 60.3274L83.9122 61.2394C83.2082 60.0074 82.7282 59.3514 81.8482 58.3914ZM83.8962 56.9994L85.1602 56.1354C85.9922 56.9194 86.6002 57.7514 87.3362 58.8714L86.0082 59.7994C85.2722 58.5674 84.8242 57.9594 83.8962 56.9994ZM101.361 58.2154V59.2554H105.585V67.6554H94.9932V59.2554H99.1532V58.2154H94.4652V60.0714C94.4652 63.0634 93.8572 65.9434 92.7372 67.8634L90.7852 65.9434C91.9212 63.8954 92.0972 61.4474 92.0972 59.9754V53.1434H105.569V58.2154H101.361ZM99.1532 62.4874V61.2074H97.2652V62.4874H99.1532ZM103.329 62.4874V61.2074H101.361V62.4874H103.329ZM99.1532 65.6074V64.2474H97.2652V65.6074H99.1532ZM103.329 65.6074V64.2474H101.361V65.6074H103.329ZM103.201 56.3114V55.2394H94.4652V56.3114H103.201ZM119.712 53.0154L121.584 55.0474C119.28 56.6794 117.392 57.7834 114.384 59.5594C113.664 59.9754 113.568 60.0234 113.568 60.2154C113.568 60.3754 113.632 60.3914 114.224 60.6954C118.144 62.6634 119.984 63.8634 122.032 65.3994L120.176 67.5114C116.896 64.9674 114.24 63.5434 112.128 62.4074C111.28 61.9434 110.448 61.3994 110.448 60.2794C110.448 59.0634 111.408 58.4714 112.208 57.9914C114.768 56.4234 117.312 54.8394 119.712 53.0154Z" fill="#EB5C01"/>
<path d="M65.5369 155.075L63.6469 153.275C66.6919 151.775 67.3819 149.615 67.3819 146.555H69.8719C69.8719 147.08 69.8569 147.38 69.8269 147.875C70.6219 147.17 71.1919 146.555 72.1069 145.235H62.6419V142.865H74.6269L75.6169 144.095C75.0919 145.055 73.9669 147.125 71.7619 149.36L69.8269 147.89C69.6019 150.23 68.9119 153.185 65.5369 155.075ZM83.8326 146.66V154.91H81.3426V148.1C79.2876 149.135 77.7126 149.66 76.7226 149.99L75.5076 147.83C78.8526 146.75 82.4676 145.205 86.3826 141.59L88.2726 143.18C87.2376 144.14 85.9326 145.31 83.8326 146.66ZM91.8871 155.105L90.0871 153.215C93.8071 151.865 94.0471 149.615 94.1521 148.28H88.6921V145.97H101.577V148.28H96.6571C96.4921 150.71 95.9221 153.425 91.8871 155.105ZM90.3421 142.37H99.8821V144.695H90.3421V142.37ZM109.393 148.04L111.448 146.87C112.183 147.905 113.878 150.29 115.318 153.74L113.128 154.91C112.753 154.04 112.588 153.65 112.213 152.84L102.553 154.19L101.983 151.85L104.068 151.595C104.533 150.515 105.898 147.23 107.638 141.89L110.083 142.67C108.553 147.2 107.158 150.47 106.813 151.265L111.118 150.74C110.473 149.585 109.978 148.85 109.393 148.04Z" fill="black"/>
<path d="M78.9032 101.926C80.5515 101.167 82.1998 100.934 84.1651 100.934C92.4954 100.934 99.0252 107.533 99.0252 116.568C99.0252 128.186 90.9232 133.413 80.8685 133.413C70.8138 133.413 62.5469 128.259 62.5469 116.641C62.5469 112.54 64.4361 107.68 67.5045 101.693L78.4214 80.3672H90.2131L78.8905 101.926H78.9032ZM80.8685 124.464C85.5852 124.464 88.0196 121.428 88.0196 117.021C88.0196 112.614 85.5852 109.663 80.8685 109.663C76.1518 109.663 73.5525 112.699 73.5525 117.021C73.5525 121.342 75.9869 124.464 80.8685 124.464Z" fill="black"/>
<path d="M124.088 132.74H113.082V91.4465L105.297 96.3802V86.1333L114.185 80.3672H124.088V132.74Z" fill="black"/>
<path d="M25.2513 97.7698V92.7321C24.6716 93.2428 24.3266 93.4636 23.9677 93.7121L23.1948 91.9593C23.8711 91.5314 25.4031 90.5791 26.7971 87.9016H23.4571V86.2454H27.4871C27.708 85.6105 27.8046 85.1688 27.915 84.672H29.861C29.7368 85.1274 29.654 85.4725 29.378 86.2454H36.403V87.9016H28.7155C28.2186 88.9367 27.6666 89.9304 27.0179 90.7861V97.7698H25.2513ZM32.8422 90.5515H36.0166V92.1939H32.8422V95.7271H36.403V97.3833H27.5423V95.7271H31.117V92.1939H27.9702V90.5515H31.117V88.357H32.8422V90.5515ZM47.1407 87.9292H51.3364V89.2403H47.1407V89.9028H50.7291V94.3193H47.1407V95.0094H51.4744V96.431H47.1407V97.7836H45.5397V96.431H41.137V95.0094H45.5397V94.3193H42.0341V89.9028H45.5397V89.2403H41.4406V87.9292H45.5397V87.3909H47.1407V87.9292ZM45.5397 90.9103H43.6075V91.6556H45.5397V90.9103ZM45.5397 92.5389H43.6075V93.298H45.5397V92.5389ZM49.1419 90.9103H47.1407V91.6556H49.1419V90.9103ZM49.1419 92.5389H47.1407V93.298H49.1419V92.5389ZM51.5296 85.6657V87.1701H41.1646V91.766C41.1646 95.3407 40.1985 97.0245 39.7844 97.7283L38.3766 96.4586C39.4532 94.6092 39.5084 92.6769 39.5084 91.7522V85.6657H44.4218V84.7272H46.2022V85.6657H51.5296Z" fill="black"/>
<path d="M32.1654 120.042L32.0366 117.208C32.7021 117.229 33.0242 117.229 33.4535 117.208C34.1191 116.37 34.3123 116.113 34.4841 115.898C34.2908 115.64 33.3033 114.245 31.8648 113.086L33.3462 110.466C33.6038 110.638 33.6897 110.703 33.84 110.831C34.4841 109.715 34.7846 109.2 35.3643 108.019L37.8977 108.856C37.64 109.457 37.318 110.209 35.6434 112.613C35.7937 112.807 35.9654 113 36.2875 113.386C37.3395 111.84 37.8118 110.896 38.2197 110.123L40.9248 111.11C39.6581 113.236 38.1768 115.211 36.5451 117.057C36.8027 117.036 38.1553 116.972 38.4559 116.95C38.1768 116.048 38.1338 115.92 37.9621 115.533L40.0875 114.825C40.6457 115.812 41.4401 118.195 41.7407 119.376L39.2073 120.192C39.1214 119.784 39.0999 119.634 39.0355 119.312C38.8208 119.355 38.6491 119.376 38.005 119.462V128.479H35.2784V119.784C33.3891 119.977 32.8524 119.999 32.1654 120.042ZM32.5089 120.772L34.7632 121.051C34.7417 121.587 34.5914 125.473 33.9688 127.47L31.8004 126.117C32.2083 124.636 32.5304 122.489 32.5089 120.772ZM43.222 108.105L46.378 108.341C46.2492 108.985 46.1204 109.651 45.7125 110.788H51.9171C51.7883 119.827 51.7453 124.185 51.273 126.182C51.1013 126.933 50.5216 128.479 48.804 128.479H44.0808L43.4367 125.259H47.1724C47.7091 125.259 47.9882 125.259 48.1814 124.293C48.5249 122.596 48.6108 117.272 48.6538 113.816H44.3814C43.4367 115.533 42.8356 116.177 42.2345 116.843L40.0661 114.288C41.4401 112.849 42.7068 110.66 43.222 108.105ZM38.4988 120.943L40.796 120.557C41.2469 122.296 41.4616 124.4 41.526 125.516L38.9282 125.946C38.9282 125.538 38.7994 122.382 38.4988 120.943ZM41.9983 117.465L44.7464 116.199C45.6695 117.422 46.7859 119.333 47.4085 121.33L44.5746 122.79C44.1882 121.652 43.2006 119.118 41.9983 117.465Z" fill="black"/>
<path d="M149.965 117.53H143.739C143.074 121.673 141.399 125.452 136.676 128.522L134.508 125.516C139.102 122.94 140.712 119.505 140.712 113.966V111.905H134.937V108.727H155.204V111.905H144.083V114.417H153.465C153.422 121.738 152.649 125.387 152.37 126.225C152.198 126.74 151.64 128.458 149.472 128.458H145.049L144.426 125.108H147.904C148.999 125.108 149.214 124.443 149.364 123.949C149.579 123.176 149.965 120.664 149.965 117.53Z" fill="black"/>
</svg>
