<svg width="66" height="58" viewBox="0 0 66 58" fill="none" xmlns="http://www.w3.org/2000/svg">
<mask id="mask0_1173_34" style="mask-type:alpha" maskUnits="userSpaceOnUse" x="0" y="0" width="66" height="58">
<rect width="66" height="58" fill="#D9D9D9"/>
</mask>
<g mask="url(#mask0_1173_34)">
<path d="M0 -4H66V52C66 55.3137 63.3137 58 60 58H6C2.68629 58 0 55.3137 0 52V-4Z" fill="#006949"/>
<path d="M20.4247 43.544C18.3507 43.544 14.9507 42.932 12.6727 39.328C10.5647 36.064 10.4627 31.338 10.4627 29.332C10.4627 24.504 11.3467 21.376 12.7407 19.234C14.5087 16.446 17.4327 15.12 20.4247 15.12C23.3827 15.12 26.3407 16.412 28.1427 19.268C30.1827 22.464 30.3867 26.952 30.3867 29.332C30.3867 33.31 29.8087 36.812 28.1767 39.362C25.8987 42.932 22.4647 43.544 20.4247 43.544ZM20.4247 38.274C23.6547 38.274 24.6407 34.432 24.6407 29.332C24.6407 23.79 23.4507 20.39 20.4247 20.39C17.1947 20.39 16.2087 24.3 16.2087 29.332C16.2087 34.874 17.3647 38.274 20.4247 38.274ZM34.302 41.266L35.934 36.132C36.75 36.676 39.13 38.274 43.278 38.274C46.882 38.274 48.82 36.676 48.82 34.398C48.82 32.766 47.63 31.032 43.686 31.032H40.558V26.272H43.312C46.27 26.272 47.324 24.708 47.324 23.246C47.324 21.002 45.114 20.39 43.89 20.39C40.932 20.39 38.756 21.852 37.226 23.552L35.22 18.554C37.634 16.378 40.762 15.12 44.06 15.12C49.568 15.12 53.036 18.452 53.036 22.736C53.036 26.102 50.962 27.496 50.01 28.142C51.506 28.89 54.566 30.488 54.566 34.976C54.566 38.954 51.608 43.544 43.278 43.544C38.586 43.544 35.73 42.048 34.302 41.266Z" fill="white"/>
</g>
</svg>
