<svg width="396" height="66" viewBox="0 0 396 66" fill="none" xmlns="http://www.w3.org/2000/svg">
<path d="M396 33.0002L376 65.9996L212 66L232 33.0002L212 0.000408929L376 -8.74228e-07L396 33.0002Z" fill="#006948"/>
<path d="M220 33.0002L200 65.9996L0.000210738 66.0001L0.000213623 0.000478817L200 -8.74228e-07L220 33.0002Z" fill="#006948"/>
<path d="M265.918 26.38L263.218 27.08C262.998 23.16 261.998 20.14 261.278 17.88C259.018 21.48 256.478 23.9 254.958 25.18V26.4C254.958 26.92 255.118 26.94 255.478 26.94H258.198C258.658 26.94 258.878 26.78 259.038 26.38C259.298 25.72 259.398 24.02 259.438 23.28L261.918 23.96C261.498 28.62 260.758 29.44 259.138 29.44H253.978C253.098 29.44 252.438 28.84 252.438 27.92V27.08C250.098 28.58 248.818 29.04 247.998 29.34L246.798 27C247.738 26.68 249.758 25.98 252.438 23.98V15.76H254.958V21.82C257.958 18.9 260.218 15.32 261.638 11.38L264.058 12.34C263.658 13.36 262.918 15.22 261.338 17.78L263.678 16.92C264.778 19.98 265.658 23.14 265.918 26.38ZM248.578 17.34L251.078 17.76C250.878 19.56 250.358 23.02 249.058 25.6L246.738 24.2C247.158 23.38 248.138 21.52 248.578 17.34ZM251.538 13.1L252.658 10.88C254.018 11.14 256.538 11.66 259.178 13.02L257.858 15.38C256.038 14.3 253.578 13.46 251.538 13.1ZM268.018 21.44H273.458C273.738 20.96 273.898 20.68 274.158 20.18H268.898V14.84H273.798V13.68H268.098V11.56H286.698V13.68H280.858V14.84H285.938V20.18H276.978C276.838 20.5 276.718 20.76 276.338 21.44H286.738V23.6H283.318C283.018 24.24 282.618 25.1 281.618 26.16C283.238 26.64 284.638 27.16 286.178 27.78L284.238 29.96C283.158 29.44 281.438 28.62 279.378 27.88C277.098 29.14 273.058 29.68 269.238 29.74L268.378 27.38C270.958 27.4 273.418 27.28 276.098 26.84C275.038 26.56 273.458 26.16 270.158 25.62C270.698 25.08 271.238 24.52 271.958 23.6H268.018V21.44ZM276.038 16.6V18.42H278.598V16.6H276.038ZM276.038 13.68V14.84H278.598V13.68H276.038ZM271.278 16.6V18.42H273.798V16.6H271.278ZM280.858 16.6V18.42H283.538V16.6H280.858ZM280.598 23.6H274.918C274.558 24.06 274.518 24.12 274.158 24.56C275.698 24.8 277.478 25.1 279.058 25.48C279.958 24.72 280.298 24.12 280.598 23.6ZM306.59 25.12L305.33 27.44C304.79 27.06 303.65 26.24 302.53 25.7C302.45 27.5 301.55 29.04 298.51 29.04C295.89 29.04 293.95 27.7 293.95 25.56C293.95 23.68 295.55 22.08 298.25 22.08C298.93 22.08 299.49 22.18 299.85 22.24C299.73 20.38 299.71 19.48 299.69 18.18L302.25 18.24C302.25 19.24 302.27 19.6 302.45 22.88C303.19 23.16 304.45 23.66 306.59 25.12ZM299.97 24.62C299.39 24.46 298.57 24.36 298.01 24.36C297.03 24.36 296.29 24.8 296.29 25.52C296.29 26.34 297.19 26.76 298.29 26.76C300.01 26.76 300.01 25.8 300.01 25.4C300.01 25.28 299.99 25.2 299.97 24.62ZM294.39 11.5L297.13 12.02C297.01 12.38 296.59 13.6 296.33 14.38C297.41 14.26 297.91 14.2 298.95 14L298.81 16.6C297.37 16.84 295.79 16.96 295.41 17C293.67 21.8 292.27 24.76 291.69 25.96L289.13 24.86C290.45 22.38 291.63 19.8 292.59 17.16C291.71 17.2 291.23 17.2 289.89 17.2L289.79 14.54C291.49 14.64 291.91 14.62 293.47 14.6C293.87 13.44 294.05 12.76 294.39 11.5ZM299.81 15.98L300.93 13.8C302.11 14.24 304.03 14.98 306.51 16.38L305.39 18.74C303.63 17.6 301.83 16.62 299.81 15.98ZM313.91 16.64L313.03 12.1L315.75 11.58L316.57 16.06C316.61 16.32 316.79 17.08 316.93 17.58C318.23 17.12 318.77 16.96 323.67 15.64L324.47 18.28C315.29 20.28 312.41 21.94 312.41 23.9C312.41 24.98 313.15 26.04 317.87 26.04C320.51 26.04 323.23 25.62 324.51 25.42L324.73 28.12C322.65 28.42 320.17 28.6 318.07 28.6C315.77 28.6 309.73 28.54 309.73 24.08C309.73 21.34 311.87 19.72 314.37 18.6C314.17 17.88 313.99 17.06 313.91 16.64ZM343.227 15.64L344.047 17.88C342.647 18.34 341.487 18.66 339.787 19.02C340.047 19.44 341.187 21.22 342.487 22.8L341.227 24.14C339.867 23.56 338.727 23.24 336.967 23L336.687 21.14C337.467 21.22 338.467 21.48 338.567 21.5C337.947 20.6 337.727 20.28 337.207 19.46C334.647 19.84 332.587 20.08 328.127 20.22L327.787 17.88C330.147 17.94 333.187 17.82 335.987 17.42C335.867 17.2 335.347 16.26 335.247 16.08C332.687 16.36 331.067 16.44 328.667 16.44L328.347 14.12C330.327 14.16 332.227 14.12 334.147 13.92C333.887 13.4 333.747 13.12 333.227 12L335.907 11.46C336.327 12.5 336.507 12.88 336.807 13.56C337.447 13.46 339.447 13.14 341.527 12.32L342.287 14.48C340.587 15.1 338.967 15.46 337.847 15.66C337.987 15.94 338.367 16.62 338.547 16.96C340.227 16.6 341.547 16.3 343.227 15.64ZM341.707 25.92L341.627 28.54C340.507 28.7 338.907 28.96 336.627 28.96C334.567 28.96 329.067 28.88 329.067 24.84C329.067 22.8 330.627 22 331.227 21.68L332.927 23.16C332.347 23.44 331.727 23.9 331.727 24.64C331.727 25.66 332.507 26.52 336.447 26.52C337.767 26.52 339.487 26.4 341.707 25.92ZM348.407 12.36L351.147 12.66C350.807 14.16 349.987 17.6 349.987 21.88C349.987 25.08 350.467 27.28 350.707 28.3L348.067 28.62C347.547 26.44 347.387 24.18 347.387 21.94C347.387 17.58 348.067 14.16 348.407 12.36ZM353.467 16.72L353.507 14.06C354.627 13.94 356.607 13.72 359.187 13.72C360.887 13.72 361.887 13.8 362.627 13.86L362.567 16.48C362.067 16.44 360.867 16.32 359.067 16.32C356.447 16.32 354.447 16.6 353.467 16.72ZM363.447 24.58L363.387 27.32C362.427 27.46 360.807 27.68 358.847 27.68C355.907 27.68 352.687 27.26 352.687 24.12C352.687 23.1 353.027 22.26 353.567 21.38L355.807 21.82C355.167 22.74 355.107 23.34 355.107 23.64C355.107 24.68 356.067 25.06 358.727 25.06C360.727 25.06 362.267 24.8 363.447 24.58ZM280.201 40.88L281.661 40.86C283.761 40.84 284.821 40.72 285.441 40.68L285.501 43.22C284.441 43.16 282.861 43.16 281.721 43.2L280.221 43.24L280.281 49.08C280.301 51.12 280.001 54.7 274.801 56.66L273.061 54.5C274.241 54.1 276.161 53.28 277.221 51.8C276.861 51.98 276.321 52.26 275.421 52.26C273.381 52.26 271.641 50.68 271.641 48.18C271.641 45.68 273.461 44.12 275.701 44.12C276.761 44.12 277.321 44.38 277.741 44.6L277.701 43.3L272.101 43.44C270.681 43.48 269.641 43.52 268.321 43.62L268.281 41.04C269.181 41.08 270.281 41.1 272.061 41.06L277.641 40.94L277.601 38.56H280.161L280.201 40.88ZM277.601 48.2C277.601 46.54 276.341 46.32 275.881 46.32C274.901 46.32 274.161 47.12 274.161 48.18C274.161 49.36 274.941 50.04 275.881 50.04C276.861 50.04 277.601 49.26 277.601 48.2ZM299.987 38.42L301.947 40.56C298.767 42.88 296.287 44.36 292.847 46.44C292.167 46.84 291.847 47.04 291.847 47.3C291.847 47.54 291.967 47.6 292.967 48.14C298.067 50.84 300.067 52.24 302.527 54.14L300.547 56.36C296.727 53.24 293.687 51.54 290.807 49.94C289.647 49.28 288.607 48.7 288.607 47.36C288.607 46.02 289.467 45.48 291.467 44.24C295.987 41.44 297.827 40.1 299.987 38.42ZM298.267 45.02L299.707 44C300.747 44.98 301.427 45.9 302.427 47.4L300.907 48.52C300.027 47.02 299.407 46.2 298.267 45.02ZM300.847 43.22L302.267 42.16C303.287 43.1 304.047 44.08 305.027 45.54L303.527 46.68C302.607 45.18 302.027 44.44 300.847 43.22ZM319.619 44.5V46.1H325.179V56.48H311.859V46.1H317.319V44.5H310.959V47.52C310.959 49.74 310.599 53.64 308.819 56.8L306.819 54.82C308.219 52.28 308.479 49.08 308.479 47.46V38.56H324.999V44.5H319.619ZM317.319 50.24V48.14H314.219V50.24H317.319ZM322.859 50.24V48.14H319.619V50.24H322.859ZM317.319 54.38V52.12H314.219V54.38H317.319ZM322.859 54.38V52.12H319.619V54.38H322.859ZM322.579 42.46V40.74H310.959V42.46H322.579ZM340.16 38.46L342.14 40.64C339.32 42.6 335.72 44.74 332.74 46.52C331.68 47.14 331.68 47.16 331.68 47.36C331.68 47.58 331.76 47.62 332.52 48C337.96 50.76 340.16 52.24 342.66 54.12L340.74 56.34C336.56 53.1 333.94 51.7 330.56 49.9C329.36 49.26 328.48 48.62 328.48 47.44C328.48 46.1 329.52 45.44 330.32 44.96C334 42.72 336.54 41.2 340.16 38.46Z" fill="#FEF600"/>
<path d="M37.6858 12.34H40.4058V22.94H37.6858V12.34ZM47.4058 12.02H50.1258V18.78C50.1258 23.22 49.1258 27.12 42.4658 29.14L41.1058 26.72C46.8258 25.18 47.4058 21.92 47.4058 18.56V12.02ZM54.2425 13.2H70.1625L71.3025 14.62C70.6425 15.82 69.0025 18.72 66.1225 21.56L63.9625 19.92C65.3625 18.64 66.1625 17.7 67.4025 15.86H54.2425V13.2ZM60.7625 17.96H63.5425C63.5225 22.96 62.0825 26.8 57.7425 29.2L55.6625 27.18C59.7225 25.16 60.7625 22.28 60.7625 17.96ZM77.2525 12.28H79.9925V17.06C79.9925 20.44 79.8125 25.12 75.6325 29.12L73.5725 27.14C76.4125 24.32 77.2525 21.5 77.2525 17.28V12.28ZM81.8525 12H84.5525V24.92C86.6725 23.68 88.3525 21.86 89.7725 19.88L91.6525 21.8C89.4725 24.82 86.3125 27.72 81.8525 28.92V12ZM97.6602 29.24L95.8802 27.04C99.6602 25.86 101.6 24.26 103.22 22.54C101.1 21 99.7402 20.2 97.7602 19.1C96.9802 19.94 96.1802 20.62 95.7002 21.04L93.6802 19.22C95.2002 18.02 97.2402 16.12 98.9802 12.8H110C109.12 20.88 105.02 26.72 97.6602 29.24ZM106.72 15.32H100.64C100.12 16.2 99.4402 17.08 99.3802 17.18C101.08 18.08 102.58 18.88 104.8 20.4C106.12 18.2 106.54 16.22 106.72 15.32ZM123.227 17.96V29.08H120.447V19.56C117.567 21.08 115.767 21.72 113.947 22.34L112.567 19.9C120.547 17.36 125.087 13.36 127.067 11.58L129.187 13.34C127.487 14.9 125.927 16.2 123.227 17.96ZM149.167 27.68L146.727 28.96C146.467 28.32 146.067 27.32 145.447 26.08L132.287 27.92L131.667 25.36L134.487 24.98C136.047 21.2 137.307 18.2 139.427 11.82L142.027 12.72C139.967 18.8 138.227 22.98 137.527 24.58L144.207 23.72C143.107 21.78 142.147 20.44 141.747 19.88L143.987 18.6C145.787 21.08 147.507 23.84 149.167 27.68ZM155.449 13.7L168.869 12.72L169.089 15.4C167.709 15.46 165.669 15.52 163.409 16.8C162.049 17.58 159.809 19.26 159.809 21.94C159.809 25.38 163.929 26.16 165.949 26.36L164.689 28.98C159.869 28.36 157.009 25.86 157.009 22.16C157.009 20.08 157.969 18.08 159.489 16.84C159.949 16.48 160.749 15.94 161.489 15.54L152.169 16.64L151.929 13.84C153.209 13.8 154.669 13.76 155.449 13.7ZM163.629 18.88L165.169 17.96C166.069 19.04 166.709 20.14 167.469 21.66L165.869 22.66C165.149 21.06 164.609 20.14 163.629 18.88ZM166.369 17.34L167.909 16.44C168.909 17.64 169.509 18.66 170.249 20.12L168.649 21.1C167.889 19.48 167.389 18.64 166.369 17.34ZM35.4415 38.58V40.9H31.1615V43.76H34.8415V56.38H21.7815V43.76H25.4215V40.9H21.6215V38.58H35.4415ZM29.0215 43.76V40.9H27.5415V43.76H29.0215ZM29.0215 54.08V45.98H27.5415V54.08H29.0215ZM25.4615 54.08V45.98H24.0015V54.08H25.4615ZM32.6015 54.08V45.98H31.1015V54.08H32.6015ZM20.4215 43.2V56.86H18.0415V47.9C17.7215 48.32 17.5815 48.5 17.1415 48.98L16.3015 45.68C17.2815 44.38 18.4615 42.56 19.0415 37.94L21.5415 38.14C21.2415 40.48 20.9015 41.74 20.4215 43.2ZM50.2215 39.42H55.6215V41.58C54.8615 42.78 54.2215 43.62 52.8015 44.96C54.1415 45.6 55.1215 45.98 56.8015 46.4L55.7615 48.78C53.5215 48.02 52.3015 47.36 50.8215 46.44C49.3815 47.34 48.3015 47.94 46.1015 48.8H55.2815V56.4H45.8015V48.92C45.6415 48.98 45.5815 49 45.4015 49.06L44.4615 46.8C46.3215 46.36 47.4415 45.88 48.9615 45.04C48.4415 44.6 47.6815 43.96 47.0215 42.98C46.5215 43.36 46.2415 43.54 45.7215 43.86L44.4615 41.86V43.78H42.6615V44.98C42.9615 45.7 43.7015 47.2 45.1815 48.84L44.0815 50.96C43.4615 50.08 43.1415 49.56 42.6615 48.56V56.82H40.3615V48.24C39.5415 50.62 38.4815 52.24 38.0615 52.88L37.2215 49.66C39.0215 47.4 39.7415 45.5 40.2215 43.78H37.6015V41.48H40.3615V37.94H42.6615V41.48H44.4615V41.8C45.5615 41.14 47.0815 40.26 48.3215 37.92L50.8215 38.22C50.6415 38.6 50.5015 38.94 50.2215 39.42ZM52.9015 41.58H48.5815C49.3015 42.62 50.2415 43.32 50.8215 43.78C52.0815 42.74 52.4215 42.28 52.9015 41.58ZM52.9215 54.16V51H48.1415V54.16H52.9215ZM62.2815 43.82C64.0615 43.82 65.4815 45.26 65.4815 47.02C65.4815 48.8 64.0215 50.22 62.2815 50.22C60.5215 50.22 59.0815 48.8 59.0815 47.02C59.0815 45.26 60.5015 43.82 62.2815 43.82ZM73.6771 40.04L75.7771 40.88C74.6171 42.82 73.2971 44.64 71.8971 46.4C72.1971 46.4 73.4971 46.3 73.7571 46.3C73.5771 45.76 73.4571 45.52 73.2771 45.12L74.8971 44.54C75.2371 45.18 75.6571 46 76.1371 47.62V40.7H80.1371V37.96H82.2771V40.7H86.4371V55C86.4371 55.74 86.3171 56.84 84.6171 56.84H81.7771L81.1971 54.42H83.4971C84.0571 54.42 84.1371 54.28 84.1371 53.78V50.88L82.9571 52.36C81.7571 50.34 81.3171 48 81.1771 47.14C81.0571 48.06 80.7771 50.32 79.5571 52.4L78.3771 51.08V56.84H76.1371V48.44L74.4771 49.04C74.4171 48.68 74.3771 48.58 74.3171 48.26C74.1371 48.3 73.8971 48.32 73.1571 48.42V56.84H71.0571V48.62C69.9971 48.7 69.0971 48.76 68.1571 48.8L67.9971 46.54C68.8171 46.54 69.0571 46.54 69.3971 46.52C69.9571 45.84 70.2371 45.44 70.4571 45.12C69.6371 44.08 68.8571 43.38 67.8771 42.56L68.9371 40.52C69.2571 40.72 69.3171 40.78 69.5571 40.96C70.4771 39.54 70.9171 38.38 71.1171 37.86L73.2171 38.5C72.4571 40.16 71.3371 41.88 71.0171 42.36C71.4571 42.84 71.5771 43 71.7571 43.22C72.5971 41.9 73.1771 40.9 73.6771 40.04ZM84.1371 43.06H82.2771C82.3571 45.94 83.2771 48.42 84.1371 49.78V43.06ZM78.3771 43.06V49.82C78.9771 48.88 79.4771 47.66 79.8571 45.26C80.0171 44.2 80.0971 43.32 80.1171 43.06H78.3771ZM69.7571 55.66L67.8571 54.76C68.3171 53.42 68.4771 52.48 68.5971 49.72L70.4171 49.9C70.4171 50.82 70.2971 53.6 69.7571 55.66ZM75.6171 54.08L73.9971 54.46C73.9971 53.08 73.8971 51.2 73.7171 49.86L75.1571 49.66C75.3971 51.02 75.5571 53.04 75.6171 54.08ZM90.4171 39.56V37.98H92.7171V39.56H95.9771V37.98H98.2771V39.56H99.5571V41.76H98.2771V49.42H99.5171V51.58H89.0571V49.42H90.4171V41.76H89.3371V39.56H90.4171ZM95.9771 44.88H92.7171V46.18H95.9771V44.88ZM95.9771 41.76H92.7171V42.98H95.9771V41.76ZM95.9771 47.98H92.7171V49.42H95.9771V47.98ZM99.9971 38.5H107.337V55.08C107.337 56.72 106.297 56.78 105.537 56.78H102.917L102.517 54.4H104.357C104.897 54.4 104.977 54.12 104.977 53.74V50.82H101.997C101.657 54.62 100.417 56.2 99.9571 56.8L97.9371 55.12C99.3771 53.12 99.9971 51.22 99.9971 45.58V38.5ZM104.977 40.84H102.237V43.62H104.977V40.84ZM104.977 45.8H102.237C102.217 46.86 102.217 47.4 102.197 48.58H104.977V45.8ZM91.5771 51.7L93.5771 52.7C92.9571 54.16 91.6171 55.9 90.4971 56.82L88.8371 55.1C89.9371 54.22 91.0371 52.66 91.5771 51.7ZM94.5971 52.9L96.2371 51.72C96.8171 52.24 97.6571 53.14 98.3371 54.26L96.6571 55.72C96.2171 54.94 95.4771 53.86 94.5971 52.9ZM116.22 55.62L116.24 52.98C116.66 53.1 117.16 53.24 117.8 53.24C118.98 53.24 119.98 53.06 119.98 48.12C119.98 45.74 119.4 45.22 117.1 45.36C116.46 47.9 115.14 52.22 112.76 56.1L110.44 54.6C111.82 52.4 113.24 49.66 114.34 45.68C113.9 45.74 110.84 46.22 110.7 46.26L110.38 43.66L114.96 43.1C115.42 40.86 115.54 40.08 115.72 38.7L118.46 39.16C118.08 41.2 117.96 41.74 117.7 42.86C120.98 42.9 122.5 44.1 122.5 48.22C122.5 54.2 121.14 55.82 118.2 55.82C117.22 55.82 116.52 55.68 116.22 55.62ZM127.48 49.56L124.98 50.44C124.56 46.54 122.96 43.92 121.24 42.4L123.1 41.02C124.28 42.16 126.7 44.76 127.48 49.56ZM123.34 39.6L124.54 38.64C125.58 39.68 126.22 40.6 127.12 42.06L125.82 43.08C125 41.62 124.4 40.76 123.34 39.6ZM125.6 38.24L126.82 37.28C127.82 38.28 128.48 39.24 129.38 40.7L128.1 41.74C127.26 40.24 126.7 39.44 125.6 38.24ZM141.261 55.4L140.341 52.88C143.201 52.64 146.301 51.18 146.301 47.86C146.301 45.14 144.181 44.4 142.921 44.4C141.241 44.4 139.661 45.18 137.981 46.72C137.941 50.12 137.981 53.26 138.021 55.98H135.461L135.501 49.54C134.661 50.72 133.921 51.86 133.161 53.1L131.221 51.3C133.221 48.58 135.361 45.6 135.521 45.38V44.56C134.041 44.78 133.601 44.82 132.201 44.92L131.941 42.28C132.981 42.26 134.521 42.2 135.521 42.08L135.541 38.78H138.101C138.101 39.44 138.021 43.54 138.021 43.78C139.381 42.78 141.021 41.94 143.101 41.94C145.861 41.94 149.021 43.62 149.021 47.92C149.021 52.74 145.081 54.94 141.261 55.4ZM158.071 38.7L160.651 39.24C160.331 41.08 160.211 41.64 159.931 42.84C164.371 42.76 165.211 44.98 165.211 48.22C165.211 55.08 163.171 55.68 160.751 55.68C159.671 55.68 158.951 55.52 158.491 55.4L158.511 52.8C158.911 52.92 159.611 53.14 160.471 53.14C161.471 53.14 162.591 53.08 162.591 48.16C162.591 46 162.251 45.26 160.231 45.26C159.951 45.26 159.851 45.26 159.331 45.28C157.611 51.54 155.811 54.66 155.031 56L152.811 54.5C155.151 50.7 156.071 47.56 156.671 45.58C154.791 45.84 153.791 46.02 152.891 46.18L152.531 43.68L157.291 43.1C157.591 41.76 157.771 40.8 158.071 38.7ZM169.871 49.42L167.271 50.28C167.031 47.32 166.091 44.46 163.971 42.3L166.051 40.82C167.091 41.94 169.431 44.64 169.871 49.42ZM174.138 51.16L172.498 49.16L181.578 41.68C179.138 41.96 177.798 42.06 175.218 42.12L174.998 39.6C178.898 39.64 181.978 39.52 185.138 39.08L186.278 41C183.678 42.78 181.858 44.2 180.718 45.08C181.258 44.96 181.938 44.78 182.958 44.78C186.718 44.78 188.798 47.14 188.798 50.02C188.798 53.4 186.058 56.08 181.578 56.08C178.958 56.08 176.258 55.06 176.258 52.7C176.258 50.98 177.698 49.72 179.758 49.72C181.558 49.72 183.578 50.68 184.658 52.8C186.178 51.8 186.178 50.42 186.178 50.08C186.178 48.82 185.378 46.94 182.098 46.94C178.658 46.94 176.698 48.78 174.138 51.16ZM182.418 53.8C181.418 51.92 179.858 51.92 179.658 51.92C179.138 51.92 178.618 52.18 178.618 52.66C178.618 53.52 180.198 53.9 181.298 53.9C181.818 53.9 182.198 53.84 182.418 53.8Z" fill="#FEF600"/>
</svg>
