<svg width="52" height="49" viewBox="0 0 52 49" fill="none" xmlns="http://www.w3.org/2000/svg">
<mask id="mask0_1168_2364" style="mask-type:alpha" maskUnits="userSpaceOnUse" x="0" y="0" width="51" height="49">
<rect width="51" height="49" fill="#D9D9D9"/>
</mask>
<g mask="url(#mask0_1168_2364)">
</g>
<g clip-path="url(#clip0_1168_2364)">
<path d="M44.6239 7.09665C42.5087 5.17787 39.6637 4.00781 36.4609 4.00781H36.4295C33.2277 4.00781 30.3847 5.17686 28.2705 7.09564C26.1441 9.02452 24.8934 11.6678 24.8934 14.603V21.387H5.11221C4.41794 21.387 3.79461 21.6921 3.37906 22.1862C3.30102 22.2781 3.30305 22.3761 3.23717 22.4883C3.03953 22.8238 3 23.2067 3 23.6179V40.7404C3 41.3598 3.18041 41.9236 3.58988 42.3308L3.55339 42.3379C3.96387 42.7471 4.49193 43.0078 5.1112 43.0078H33.4618C34.0821 43.0078 34.6456 42.7461 35.0551 42.3379L35.0642 42.3318C35.4737 41.9236 35.7362 41.3568 35.7362 40.7374V23.6169C35.7362 23.1006 35.5416 22.4954 35.2436 22.1923C35.1808 22.1923 35.118 22.0629 35.0571 22.0013V22.0245C34.6456 21.6153 34.0811 21.3839 33.4598 21.3839H30.6685V16.3036C30.6685 14.7566 31.3729 13.3511 32.3905 12.3326C33.4061 11.3161 34.8443 10.6796 36.3869 10.6776L36.4335 10.6735H36.4558L36.467 10.6776C38.0086 10.6796 39.3312 11.3141 40.3468 12.3296C41.3654 13.3481 41.9188 14.7576 41.9188 16.3046V21.5436C41.9188 21.776 42.311 22.0912 42.5441 22.0912H47.6716C47.9047 22.0912 48 21.776 48 21.5436V14.599C48 11.6647 46.7483 9.0225 44.6229 7.09362L44.6239 7.09665ZM16.9554 36.8463L18.4757 31.1627C17.8443 30.8596 17.4064 30.2018 17.4064 29.4581C17.4064 28.4255 18.2507 27.5768 19.2865 27.5768C20.3224 27.5768 21.1666 28.4154 21.1666 29.448C21.1666 30.1917 20.7288 30.8616 20.0973 31.1647L21.6176 36.8473H16.9554V36.8463Z" fill="#006949"/>
</g>
<defs>
<clipPath id="clip0_1168_2364">
<rect width="51.4626" height="41.8773" fill="white" transform="translate(0 1.03906)"/>
</clipPath>
</defs>
</svg>
