<svg width="49" height="43" viewBox="0 0 49 43" fill="none" xmlns="http://www.w3.org/2000/svg">
<path fill-rule="evenodd" clip-rule="evenodd" d="M36.2662 21.7578C34.5651 21.7815 32.787 21.7578 31.111 21.5151C25.7231 20.7145 21.961 18.0449 19.7174 15.8622C19.6136 15.7408 19.4596 15.692 19.2787 15.692C19.0979 15.6683 18.9439 15.7408 18.815 15.8622C16.9598 17.6083 14.2274 18.1189 12.6535 18.2639C12.3187 18.2876 12.0859 18.5555 12.0859 18.8455V23.868C12.0859 27.0956 13.4773 30.0064 15.7208 32.1418C17.9895 34.252 21.082 35.5632 24.5109 35.5632C27.9399 35.5632 31.0323 34.2536 33.2759 32.1418C35.5446 30.0064 36.9359 27.0956 36.9359 23.868V22.363C36.9359 22.1928 36.8589 22.0478 36.73 21.9265C36.6011 21.8051 36.447 21.7326 36.2662 21.7563V21.7578ZM24.5109 33.089C23.8663 33.089 23.2217 33.0401 22.6039 32.9188C21.9593 32.8211 21.3415 32.6524 20.7739 32.4334C20.4122 32.312 20.2331 31.948 20.362 31.6092C20.516 31.294 20.9028 31.1238 21.2377 31.2451C21.7785 31.439 22.2942 31.5855 22.8366 31.6817C23.3774 31.7541 23.945 31.803 24.5126 31.803C25.0802 31.803 25.6461 31.7541 26.1618 31.6817C26.7026 31.5839 27.2451 31.439 27.7607 31.2451C28.1224 31.1238 28.5075 31.294 28.6364 31.6092C28.7653 31.9496 28.6113 32.312 28.2496 32.4334C27.6569 32.6524 27.0374 32.8211 26.4196 32.9188C25.775 33.0401 25.1572 33.089 24.5126 33.089H24.5109Z" fill="white"/>
<path fill-rule="evenodd" clip-rule="evenodd" d="M33.0191 20.4224C33.6888 20.446 35.107 20.4713 36.2924 20.4713C36.654 20.4476 36.937 20.1797 36.937 19.8645V18.3358C36.937 15.1335 35.5456 12.1975 33.2769 10.0857C31.0351 7.95025 27.9158 6.64062 24.512 6.64062C21.1081 6.64062 17.9906 7.95025 15.7219 10.0857C13.994 11.7121 12.7584 13.8459 12.2929 16.224C12.241 16.4179 12.2929 16.6117 12.447 16.7583C12.601 16.9033 12.7818 16.9521 13.0146 16.9285C14.4578 16.7583 16.5976 16.2493 18.0157 14.7931C18.2216 14.574 18.2484 14.2588 18.0408 14.0161C17.4481 13.2644 17.1651 12.779 17.1651 12.779C16.9592 12.4638 17.0881 12.0761 17.3979 11.9059C17.7327 11.7357 18.1446 11.8334 18.3254 12.1486C18.3505 12.1486 18.7641 12.8515 19.6398 13.8711C19.6649 13.8711 19.6649 13.8948 19.6917 13.8948C19.7168 13.9436 19.7436 13.9673 19.7687 13.9925C19.7687 14.0161 19.7938 14.0161 19.7938 14.0413C21.8565 16.347 26.1612 19.9859 32.9923 20.4224H33.0174H33.0191Z" fill="white"/>
<path d="M7.42092 24.0151C7.42092 24.3792 7.11117 24.6455 6.7512 24.6455C6.36443 24.6455 6.05469 24.3792 6.05469 24.0151V18.1919C6.05469 13.4357 8.14254 9.09391 11.4677 5.93883C14.8197 2.78533 19.4324 0.84375 24.5105 0.84375C29.5887 0.84375 34.203 2.78533 37.5282 5.93883C40.8785 9.09233 42.9412 13.4357 42.9412 18.1919V24.0151C42.9412 28.795 40.8785 33.1384 37.5282 36.2682C34.203 39.4217 29.5887 41.3869 24.5105 41.3869C24.1237 41.3869 23.814 41.0954 23.814 40.7313C23.814 40.3909 24.1237 40.1009 24.5105 40.1009C29.2019 40.1009 33.4814 38.2807 36.5738 35.3699C39.6663 32.4591 41.6001 28.431 41.6001 24.0151V18.1919C41.6001 13.7761 39.6663 9.74793 36.5738 6.83713C33.4814 3.92633 29.2019 2.12973 24.5105 2.12973C19.8191 2.12973 15.5396 3.92475 12.4472 6.83713C9.35473 9.74793 7.42092 13.7761 7.42092 18.1919V24.0151Z" fill="white"/>
<path d="M47.6386 21.493V19.2126C47.6386 18.412 47.3037 17.6839 46.7361 17.1497C46.7361 17.126 46.711 17.126 46.711 17.126C46.711 17.1024 46.6859 17.1024 46.6859 17.1024C46.1183 16.5934 45.3448 16.2782 44.521 16.2782H43.5415C43.3607 16.2782 43.1799 16.327 43.0778 16.472C42.9488 16.5934 42.8718 16.7384 42.8969 16.9086C42.9221 17.249 42.9488 17.6114 42.9488 17.7091C43.0007 18.1457 45.4754 17.3687 45.991 18.6311C46.0162 18.7036 46.0162 18.7524 46.0162 18.8501L46.0413 21.5198C46.0413 21.835 46.351 22.1014 46.6859 22.1014H46.9956C47.3573 22.1014 47.6402 21.835 47.6402 21.4946L47.6386 21.493ZM44.5193 26.3454H42.1217L42.0966 26.3218C41.735 26.2729 41.4788 25.9814 41.5039 25.6425C41.529 25.3762 41.5558 25.1083 41.5809 24.8419C41.5809 24.5756 41.6061 24.3077 41.6061 24.0177V18.1945C41.6061 17.7816 41.5809 17.3703 41.5541 16.9574C41.5022 16.5697 41.4503 16.1805 41.4001 15.8164V15.7676C41.375 15.7187 41.375 15.6699 41.375 15.6226C41.375 15.2822 41.6847 14.9922 42.0715 14.9922H44.521C45.7332 14.9922 46.8416 15.4539 47.6402 16.1805C47.6402 16.1805 47.6402 16.2041 47.6654 16.2041L47.6905 16.2277C48.5159 17.0047 49.0048 18.048 49.0048 19.2126V22.0998C49.0048 23.2644 48.5142 24.3313 47.6905 25.0846V25.1083C46.865 25.86 45.7566 26.3454 44.5193 26.3454Z" fill="white"/>
<path d="M20.135 42.2605C19.0015 42.0178 18.2799 40.9509 18.5361 39.8824C18.7939 38.8154 19.9274 38.1346 21.0626 38.3773C21.6034 38.4987 22.171 38.5964 22.7637 38.6437C23.3313 38.7162 23.8972 38.7414 24.5167 38.7414C25.1362 38.7414 25.7021 38.7177 26.2445 38.6437C26.8372 38.5948 27.4048 38.4987 27.9724 38.3773C29.1059 38.1346 30.2411 38.8139 30.4989 39.8824C30.7568 40.9493 30.0352 42.0178 28.9 42.2605C28.1784 42.4307 27.4299 42.5268 26.7083 42.6009C25.9616 42.6986 25.2383 42.7223 24.5167 42.7223C23.795 42.7223 23.0466 42.6986 22.2999 42.6009C21.5783 42.5284 20.8566 42.4307 20.135 42.2605Z" fill="white"/>
<path d="M1.36456 21.493V19.2126C1.36456 18.412 1.7262 17.6839 2.29212 17.1497V17.126H2.31723C2.31723 17.1103 2.3256 17.1024 2.34235 17.1024C2.90993 16.5934 3.65667 16.2782 4.50722 16.2782H5.48668C5.66751 16.2782 5.82154 16.327 5.95047 16.472C6.07939 16.5934 6.13129 16.7384 6.13129 16.9086C6.10618 17.249 6.07939 17.6114 6.05427 17.7091C6.02916 18.1457 3.55454 17.3687 3.03886 18.6311C3.01374 18.7036 2.98695 18.7524 2.98695 18.8501L2.96184 21.5198C2.96184 21.835 2.67888 22.1014 2.31723 22.1014H2.00749C1.67263 22.1014 1.36288 21.835 1.36288 21.4946L1.36456 21.493ZM4.50889 26.3454H6.8797C6.90482 26.3454 6.90482 26.3218 6.93161 26.3218C7.29325 26.2729 7.54942 25.9814 7.49919 25.6425C7.47408 25.3762 7.44729 25.1083 7.44729 24.8419C7.42218 24.5756 7.42218 24.3077 7.42218 24.0177V18.1945C7.42218 17.7816 7.44729 17.3703 7.47408 16.9574C7.49919 16.5697 7.5511 16.1805 7.603 15.8164C7.603 15.7928 7.62812 15.7928 7.62812 15.7676V15.6226C7.62812 15.2822 7.31837 14.9922 6.95839 14.9922H4.50889C3.2967 14.9922 2.18831 15.4539 1.36456 16.1805V16.2041L1.33944 16.2277H1.31433C0.515685 17.0047 0 18.048 0 19.2126V22.0998C0 23.2644 0.515685 24.3313 1.34112 25.0846V25.1083C2.13976 25.86 3.27493 26.3454 4.51224 26.3454H4.50889Z" fill="white"/>
</svg>
