<svg width="161" height="120" viewBox="0 0 161 120" fill="none" xmlns="http://www.w3.org/2000/svg">
<g clip-path="url(#clip0_1161_197)">
<path d="M157.884 35.2174L80.5 0L3.11613 35.2174C1.29839 36 0 37.8261 0 39.913V46.9565L80.5 10.4348L161 46.9565V39.913C161 37.8261 159.702 36 157.884 35.2174Z" fill="#161616"/>
<path d="M31.1631 62.6094H5.19531V120.001H41.5501V73.0442C35.8372 73.0442 31.1631 68.3485 31.1631 62.6094ZM31.1631 99.1311H15.5824V88.6963H31.1631V99.1311Z" fill="#161616"/>
<path d="M119.453 73.0442V120.001H155.808V62.6094H129.84C129.84 68.3485 125.166 73.0442 119.453 73.0442ZM145.421 99.1311H129.84V88.6963H145.421V99.1311Z" fill="#161616"/>
<path d="M5.19531 50.3458V57.3893H32.7211C34.5389 54.2588 37.9147 52.1719 41.5501 52.1719H119.453C123.349 52.1719 126.724 54.2588 128.282 57.3893H155.808V50.3458L80.5018 16.1719L5.19531 50.3458ZM96.0824 46.9545H64.9211V26.0849H96.0824V46.9545Z" fill="#161616"/>
<path d="M124.642 62.608C124.642 59.7385 122.305 57.3906 119.448 57.3906H41.5451C38.6887 57.3906 36.3516 59.7385 36.3516 62.608C36.3516 65.4776 38.6887 67.8254 41.5451 67.8254H119.448C122.305 67.8254 124.642 65.4776 124.642 62.608Z" fill="#161616"/>
<path d="M59.7291 104.352H44.1484V120.004H59.7291V104.352Z" fill="#161616"/>
<path d="M77.901 104.344H62.3203V119.996H77.901V104.344Z" fill="#161616"/>
<path d="M72.7135 86.0859H57.1328V101.738H72.7135V86.0859Z" fill="#161616"/>
<path d="M98.6744 104.352H83.0938V120.004H98.6744V104.352Z" fill="#161616"/>
<path d="M116.854 104.352H101.273V120.004H116.854V104.352Z" fill="#161616"/>
<path d="M103.87 86.0859H88.2891V101.738H103.87V86.0859Z" fill="#161616"/>
</g>
<defs>
<clipPath id="clip0_1161_197">
<rect width="161" height="120" fill="white"/>
</clipPath>
</defs>
</svg>
