<svg width="172" height="111" viewBox="0 0 172 111" fill="none" xmlns="http://www.w3.org/2000/svg">
<path d="M88.276 83.8125H57.9901C56.4896 83.8125 55.2734 85.0324 55.2734 86.5375V105.103C55.2734 106.608 56.4896 107.828 57.9901 107.828H59.018V110.035C59.018 110.564 59.4454 110.991 59.9706 110.991H62.6628C63.188 110.991 63.6154 110.562 63.6154 110.035V107.828H82.6507V110.035C82.6507 110.564 83.0761 110.991 83.6033 110.991H86.2954C86.8207 110.991 87.2481 110.562 87.2481 110.035V107.828H88.276C89.7764 107.828 90.9926 106.608 90.9926 105.103V86.5375C90.9926 85.0324 89.7764 83.8125 88.276 83.8125ZM79.7006 92.4804C79.7006 92.7825 79.4577 93.0261 79.1565 93.0261H67.1077C66.8064 93.0261 66.5636 92.7825 66.5636 92.4804V90.8129C66.5636 90.5108 66.8064 90.2672 67.1077 90.2672H79.1565C79.4577 90.2672 79.7006 90.5108 79.7006 90.8129V92.4804Z" fill="#EB5C02"/>
<path d="M88.2684 56.1797H67.6574C66.3377 58.0285 64.2894 59.3315 61.8532 59.6053C61.3525 59.6506 58.7563 59.9018 55.2734 59.56V77.4623C55.2734 78.9693 56.4802 80.1797 57.9825 80.1797H88.2684C89.7708 80.1797 91.0001 78.9693 91.0001 77.4623V58.899C91.0001 57.3921 89.7708 56.1816 88.2684 56.1816V56.1797ZM79.7081 64.8325C79.7081 65.129 79.4577 65.3801 79.1622 65.3801H67.1095C66.814 65.3801 66.5636 65.129 66.5636 64.8325V63.165C66.5636 62.8685 66.814 62.6173 67.1095 62.6173H79.1622C79.4577 62.6173 79.7081 62.8685 79.7081 63.165V64.8325Z" fill="#EB5C02"/>
<path d="M88.2684 28.5253H57.9825C56.4802 28.5253 55.2734 29.7358 55.2734 31.2428V42.8415C57.4366 43.2532 59.4849 43.2079 60.0534 43.138C64.5605 42.6583 68.659 45.9234 69.1353 50.467C69.203 51.1751 69.203 51.8833 69.0901 52.5443H88.2684C89.7708 52.5443 91.0001 51.3111 91.0001 49.8041V31.2409C91.0001 29.7339 89.7708 28.5234 88.2684 28.5234V28.5253ZM79.7081 37.2027C79.7081 37.4991 79.4577 37.7276 79.1622 37.7276H67.1095C66.814 37.7276 66.5636 37.4991 66.5636 37.2027V35.5125C66.5636 35.216 66.814 34.9875 67.1095 34.9875H79.1622C79.4577 34.9875 79.7081 35.216 79.7081 35.5125V37.2027Z" fill="#EB5C02"/>
<path d="M47.1502 54.1446C53.6791 57.049 60.7032 56.3843 61.4807 56.2993C64.1993 56.001 66.161 53.5498 65.8635 50.8229C65.5679 48.0998 63.1073 46.1471 60.4058 46.4266C59.1161 46.5701 54.6581 46.623 51.1639 45.0669C50.0193 44.5571 49.4263 43.6223 48.291 41.7207C45.9227 37.7455 42.34 31.7422 29.5513 31.7422C10.0943 31.7441 1.20264 44.7478 0.835528 45.3011C-0.309112 47.0177 -0.275224 49.2668 0.922129 50.9475L9.75544 63.3526C10.7231 64.7085 12.2424 65.4318 13.7899 65.4318C14.7839 65.4318 15.7912 65.1315 16.6609 64.5064C17.0017 64.2628 17.2878 63.9739 17.5476 63.668L17.5213 67.46L14.4093 104.975C14.157 108.012 16.4068 110.679 19.434 110.932C19.5903 110.945 19.7428 110.95 19.8953 110.95C22.7249 110.95 25.1328 108.771 25.3719 105.891L28.3634 69.828H30.7468L33.7402 105.891C33.9924 108.928 36.6488 111.153 39.678 110.932C42.7053 110.679 44.955 108.012 44.7027 104.975L41.587 67.46L41.459 49.4009C42.7354 51.1722 44.4392 52.9379 47.1539 54.1446H47.1502ZM17.591 57.27L11.2728 48.3962C12.6905 47.0819 14.8197 45.4767 17.6851 44.1605L17.591 57.27ZM32.6068 56.4296L29.9711 59.3435C29.7471 59.5928 29.3593 59.5928 29.1334 59.3435L26.4977 56.4296C26.3847 56.305 26.3339 56.1369 26.3546 55.9707L28.5253 40.0381H27.4992C27.1848 40.0381 26.9326 39.7831 26.9326 39.4696V36.1838C26.9326 35.8703 27.1867 35.6154 27.4992 35.6154H31.6034C31.9159 35.6154 32.1682 35.8703 32.1682 36.1838V39.4696C32.1682 39.7831 31.914 40.0381 31.6034 40.0381H30.5755L32.7461 55.9707C32.7687 56.1369 32.7179 56.305 32.6049 56.4296H32.6068Z" fill="#EB5C02"/>
<path d="M18.3378 17.4886C18.3378 23.7015 23.3494 28.7267 29.5414 28.7267C35.7333 28.7267 40.7468 23.7015 40.7468 17.4886C40.7468 17.3696 40.7468 17.2507 40.7223 17.1562H18.3604C18.3359 17.2507 18.3359 17.3696 18.3359 17.4886H18.3378Z" fill="#EB5C02"/>
<path d="M17.5735 14.5409H41.5356C42.4393 14.5409 43.1735 13.8063 43.1735 12.8999C43.1735 11.9934 42.4412 11.2569 41.5356 11.2569H41.0612C40.3364 7.56127 37.8927 4.50013 34.5868 2.92329L34.2593 4.91181C34.1538 5.55009 33.6041 6.00143 32.9791 6.00143C32.9075 6.00143 32.8379 5.99765 32.7663 5.98443C32.0585 5.86735 31.5784 5.19507 31.6951 4.48502L32.2411 1.16705C32.3428 0.555198 31.8721 0 31.2527 0H27.8564C27.2389 0 26.7664 0.555198 26.8681 1.16705L27.4159 4.48502C27.5326 5.19507 27.0544 5.86735 26.3447 5.98443C26.2731 5.99576 26.2016 6.00143 26.1319 6.00143C25.5069 6.00143 24.9553 5.55198 24.8518 4.91181L24.5242 2.92518C21.2164 4.50013 18.7727 7.56127 18.0479 11.2588H17.5735C16.6698 11.2588 15.9375 11.9934 15.9375 12.9018C15.9375 13.8101 16.6698 14.5428 17.5735 14.5428V14.5409Z" fill="#EB5C02"/>
<path d="M146.031 80.9871H129.978V69.5536C129.978 63.6781 130.923 60.0258 135.329 55.897L142.726 49.0687C149.809 42.3991 153.743 37.6352 153.743 29.8541C153.743 20.8026 146.976 15.8798 139.264 15.8798C131.237 15.8798 124.627 20.485 124.47 29.3777H107C107 10.4807 121.637 0 139.264 0C157.048 0 172 10.4807 172 30.3305C172 43.0343 164.288 52.0858 155.947 60.0258L151.068 64.7897C147.763 67.9657 146.031 70.1889 146.031 75.588V80.9871ZM147.291 111V92.2618H128.719V111H147.291Z" fill="#CDCDCD"/>
</svg>
