<svg width="157" height="111" viewBox="0 0 157 111" fill="none" xmlns="http://www.w3.org/2000/svg">
<path d="M18.7597 17.6311C18.7597 23.8932 23.8245 28.958 30.0823 28.958C36.3401 28.958 41.4067 23.8932 41.4067 17.6311C41.4067 17.5103 41.4067 17.3913 41.3822 17.2969H18.7824C18.7578 17.3913 18.7578 17.5103 18.7578 17.6311H18.7597Z" fill="#EB5C02"/>
<path d="M17.9758 14.6561H42.1916C43.1052 14.6561 43.8471 13.9159 43.8471 13.0019C43.8471 12.0879 43.1071 11.3457 42.1916 11.3457H41.7121C40.9796 7.61984 38.5105 4.53413 35.1692 2.94596L34.837 4.94959C34.7313 5.59355 34.1744 6.04866 33.542 6.04866C33.4703 6.04866 33.4004 6.04488 33.3268 6.03166C32.6114 5.91458 32.1262 5.23663 32.2452 4.52092L32.7983 1.1765C32.9002 0.558977 32.4245 0 31.7996 0H28.3678C27.7429 0 27.2672 0.558977 27.3692 1.1765L27.9223 4.52092C28.0412 5.23663 27.5579 5.91458 26.8406 6.03166C26.7689 6.04299 26.6971 6.04866 26.6254 6.04866C25.993 6.04866 25.4361 5.59544 25.3304 4.94959L24.9982 2.94785C21.655 4.53602 19.1859 7.62173 18.4534 11.3457H17.974C17.0603 11.3457 16.3203 12.086 16.3203 13.0019C16.3203 13.9178 17.0603 14.6561 17.974 14.6561H17.9758Z" fill="#EB5C02"/>
<path d="M65.3013 40.8525H65.728C68.5539 40.8525 70.8437 38.5618 70.8437 35.7348C70.8437 32.9079 68.5539 30.6172 65.728 30.6172H65.3013M58.5701 30.6172H37.3124L32.5383 45.1638L31.3982 35.9067H32.1589C32.6176 35.9067 32.9876 35.5309 32.9876 35.0739V32.517C32.9876 32.0581 32.6176 31.6898 32.1589 31.6898H27.9946C27.5378 31.6898 27.1659 32.0581 27.1659 32.517V35.0739C27.1659 35.5309 27.5359 35.9067 27.9946 35.9067H28.7535L27.6133 45.1638L23.0374 31.212C8.12631 33.7841 1.18892 43.8929 0.862348 44.3839C-0.319367 46.1552 -0.2835 48.4705 0.951071 50.2022L9.91398 62.7621C10.9145 64.1634 12.4851 64.9074 14.084 64.9074C15.1109 64.9074 16.1491 64.5977 17.0515 63.9537C17.3271 63.7573 17.5725 63.5364 17.7952 63.3003L17.7707 66.8638L14.6088 104.842C14.3482 107.973 16.6739 110.721 19.8019 110.983C19.9623 110.997 20.1209 111.002 20.2795 111.002C23.2054 111.002 25.6935 108.755 25.9389 105.786L28.9781 69.2678H31.1943L34.2316 105.786C34.4921 108.916 37.235 111.218 40.3705 110.983C43.4985 110.723 45.826 107.975 45.5655 104.842L42.4055 66.8638L42.2186 40.8525H58.5701M17.8462 56.2584L11.6469 47.5716C13.0476 46.2818 15.143 44.7219 17.9368 43.4246L17.8462 56.2584Z" fill="#EB5C02"/>
<path d="M54.0266 17.188L48.5129 8.95513C48.1585 8.44788 47.8828 7.78457 47.8828 7.16028C47.8828 5.48248 49.6551 3.80469 51.5848 3.80469C52.8845 3.80469 53.7903 4.58506 54.4598 5.59954L61.9426 16.9929L69.4254 5.59954C70.095 4.58506 71.0008 3.80469 72.3004 3.80469C74.2302 3.80469 76.0024 5.48248 76.0024 7.16028C76.0024 7.78457 75.7268 8.44788 75.3723 8.95513L69.8587 17.188H73.6001C74.4271 17.188 75.0966 17.7733 75.0966 18.6317C75.0966 19.4511 74.4271 20.0754 73.6001 20.0754H67.9289L65.6053 23.5871H73.6001C74.4271 23.5871 75.0966 24.2113 75.0966 25.0307C75.0966 25.8501 74.4271 26.4744 73.6001 26.4744H65.369V43.1807C65.369 45.5218 64.1087 46.3802 61.8639 46.3802C59.6978 46.3802 58.5163 45.4047 58.5163 43.1807V26.4744H50.2852C49.4581 26.4744 48.7886 25.8501 48.7886 25.0307C48.7886 24.2113 49.4581 23.5871 50.2852 23.5871H58.28L55.9564 20.0754H50.2852C49.4581 20.0754 48.7886 19.4511 48.7886 18.6317C48.7886 17.7733 49.4581 17.188 50.2852 17.188H54.0266Z" fill="#EB5C02"/>
<path d="M131.031 80.9871H114.978V69.5536C114.978 63.6781 115.923 60.0258 120.329 55.897L127.726 49.0687C134.809 42.3991 138.743 37.6352 138.743 29.8541C138.743 20.8026 131.976 15.8798 124.264 15.8798C116.237 15.8798 109.627 20.485 109.47 29.3777H92C92 10.4807 106.637 0 124.264 0C142.048 0 157 10.4807 157 30.3305C157 43.0343 149.288 52.0858 140.947 60.0258L136.068 64.7897C132.763 67.9657 131.031 70.1889 131.031 75.588V80.9871ZM132.291 111V92.2618H113.719V111H132.291Z" fill="#CDCDCD"/>
</svg>
