<svg width="174" height="150" viewBox="0 0 174 150" fill="none" xmlns="http://www.w3.org/2000/svg">
<path d="M22.42 7.92H150.83C154.48 7.95 157.44 10.88 157.51 14.53V105.37H15.74V14.53C15.8 10.88 18.77 7.95 22.42 7.92ZM103.07 116.15H109.86C111.2 116.15 112.29 117.24 112.29 118.58V123.02C112.29 124.36 111.2 125.45 109.86 125.45H103.07C102.43 125.45 101.81 125.19 101.35 124.74C100.9 124.29 100.64 123.67 100.64 123.02V118.57C100.64 117.92 100.9 117.31 101.35 116.85C101.81 116.39 102.43 116.14 103.07 116.14V116.15ZM142.74 116.15H149.53C150.87 116.15 151.96 117.24 151.96 118.58V123.02C151.96 124.36 150.87 125.45 149.53 125.45H142.74C142.1 125.45 141.48 125.19 141.02 124.74C140.57 124.29 140.31 123.67 140.31 123.02V118.57C140.31 117.92 140.57 117.31 141.02 116.85C141.48 116.39 142.09 116.14 142.74 116.14V116.15ZM83.93 116.15H90.72C92.06 116.15 93.15 117.24 93.15 118.58V123.02C93.15 124.36 92.06 125.45 90.72 125.45H83.93C83.29 125.45 82.67 125.19 82.21 124.74C81.76 124.29 81.5 123.67 81.5 123.02V118.57C81.5 117.92 81.76 117.31 82.21 116.85C82.66 116.4 83.28 116.14 83.93 116.14V116.15ZM123.6 116.15H130.39C131.73 116.15 132.82 117.24 132.82 118.58V123.02C132.82 124.36 131.73 125.45 130.39 125.45H123.6C122.95 125.45 122.34 125.19 121.88 124.74C121.43 124.29 121.17 123.67 121.17 123.02V118.57C121.17 117.92 121.42 117.31 121.88 116.85C122.34 116.4 122.95 116.14 123.6 116.14V116.15ZM63.39 116.15H70.18C71.52 116.15 72.61 117.24 72.61 118.58V123.02C72.61 124.36 71.52 125.45 70.18 125.45H63.39C62.75 125.45 62.13 125.19 61.68 124.74C61.22 124.29 60.97 123.67 60.97 123.02V118.57C60.97 117.92 61.23 117.31 61.68 116.85C62.14 116.4 62.75 116.14 63.39 116.14V116.15ZM23.71 116.15H30.5C31.84 116.15 32.93 117.24 32.93 118.58V123.03C32.93 124.37 31.84 125.46 30.5 125.46H23.71C23.06 125.46 22.45 125.2 21.99 124.75C21.53 124.3 21.28 123.68 21.28 123.03V118.57C21.28 117.92 21.54 117.31 21.99 116.85C22.45 116.4 23.06 116.14 23.71 116.14V116.15ZM44.25 116.15H51.04C52.38 116.15 53.47 117.24 53.47 118.58V123.03C53.47 124.37 52.38 125.46 51.04 125.46H44.25C43.6 125.46 42.99 125.2 42.53 124.75C42.07 124.3 41.82 123.68 41.82 123.03V118.57C41.82 117.92 42.08 117.31 42.53 116.85C42.99 116.4 43.6 116.14 44.25 116.14V116.15ZM44.25 129.65H51.04C52.38 129.65 53.47 130.74 53.47 132.09V136.53C53.47 137.87 52.38 138.96 51.04 138.96H44.25C43.6 138.96 42.99 138.71 42.53 138.25C42.08 137.8 41.82 137.18 41.82 136.53V132.07C41.82 131.42 42.08 130.81 42.53 130.35C42.99 129.89 43.6 129.64 44.25 129.64V129.65ZM58.94 129.66H114.3C115.65 129.66 116.73 130.75 116.73 132.09V136.54C116.73 137.88 115.64 138.97 114.3 138.97H58.94C58.29 138.97 57.68 138.72 57.22 138.26C56.76 137.81 56.51 137.19 56.51 136.54V132.09C56.51 131.44 56.77 130.83 57.22 130.37C57.68 129.92 58.3 129.66 58.94 129.66ZM123.6 129.65H130.39C131.73 129.65 132.82 130.74 132.82 132.09V136.53C132.82 137.87 131.73 138.96 130.39 138.96H123.6C122.95 138.96 122.34 138.71 121.88 138.25C121.43 137.8 121.17 137.18 121.17 136.53V132.07C121.17 131.42 121.42 130.81 121.88 130.35C122.34 129.89 122.95 129.64 123.6 129.64V129.65ZM22.48 0H22.47C14.46 0 7.95 6.45 7.84 14.44V108.28L0.45 133.89C0.16 134.96 0 136.09 0 137.25C0 144.3 5.71 150 12.75 150H160.49C167.53 150 173.24 144.3 173.24 137.25C173.24 136.09 173.08 134.96 172.79 133.89L165.42 108.29V14.45C165.31 6.45 158.79 0 150.77 0H22.48Z" fill="#C8C8C8"/>
<path d="M72.8975 67.0469C70.7075 67.0469 68.9375 68.8169 68.9375 71.0069C68.9375 73.1969 70.7075 74.9669 72.8975 74.9669C75.0875 74.9669 76.8575 73.1969 76.8575 71.0069C76.8575 68.8169 75.0875 67.0469 72.8975 67.0469Z" fill="#EA5413"/>
<path d="M93.4209 67.0469C91.2309 67.0469 89.4609 68.8169 89.4609 71.0069C89.4609 73.1969 91.2309 74.9669 93.4209 74.9669C95.6109 74.9669 97.3809 73.1969 97.3809 71.0069C97.3809 68.8169 95.6109 67.0469 93.4209 67.0469Z" fill="#EA5413"/>
<path d="M148.561 90.3225H24.6609H24.6509C22.4709 90.3225 20.7109 92.0925 20.7109 94.2725C20.7109 96.4525 22.4809 98.2325 24.6709 98.2325H148.571C150.761 98.2325 152.531 96.4525 152.531 94.2725C152.531 92.0925 150.761 90.3125 148.571 90.3125L148.561 90.3225Z" fill="#EA5413"/>
<path d="M97.7768 44.93C99.5468 42.7 102.197 41.42 105.027 41.42C106.507 41.42 107.987 41.78 109.307 42.47L114.607 45.23L116.037 36.84C116.237 35.71 115.927 34.55 115.207 33.66C114.487 32.77 113.407 32.23 112.257 32.2L64.0368 30.73L63.2168 25.86C62.9368 24.21 61.6568 22.91 60.0068 22.62L51.2368 21.06C51.0068 21.01 50.7668 21 50.5368 21C48.6568 21 46.9868 22.35 46.6468 24.26C46.2668 26.41 47.7068 28.47 49.8568 28.85L55.8768 29.92L61.9668 65.92C62.2868 67.82 63.9368 69.22 65.8668 69.22H99.7668L95.9768 52.75C95.3368 49.98 95.9868 47.12 97.7568 44.91L97.7768 44.93Z" fill="#EA5413"/>
<path d="M132.711 63.087L105.851 49.127C104.511 48.427 102.981 49.627 103.311 51.087L110.091 80.587C110.431 82.087 112.391 82.457 113.261 81.197L118.031 74.327L125.881 84.477C126.481 85.247 127.581 85.387 128.361 84.797L132.191 81.837C132.961 81.237 133.101 80.127 132.511 79.357L124.661 69.207L132.511 66.317C133.951 65.787 134.071 63.797 132.711 63.097V63.087Z" fill="#006949"/>
</svg>
