<svg width="401" height="221" viewBox="0 0 401 221" fill="none" xmlns="http://www.w3.org/2000/svg">
<path fill-rule="evenodd" clip-rule="evenodd" d="M327.906 172.178V176.42C327.906 179.907 329.372 183.065 331.642 185.327C333.958 187.635 337.128 189.049 340.581 189.049C344.034 189.049 347.25 187.635 349.566 185.327C351.882 183.019 353.255 179.91 353.255 176.42V172.132C353.255 171.52 352.782 171.003 352.168 170.954C346.731 170.482 343.465 167.844 341.668 165.723C341.432 165.392 341.1 165.252 340.722 165.298C340.344 165.298 340.012 165.487 339.776 165.815C336.938 170.008 331.546 170.856 329.04 171C328.425 171.046 327.906 171.566 327.906 172.178Z" fill="white"/>
<path fill-rule="evenodd" clip-rule="evenodd" d="M340.582 157.57C337.129 157.57 333.962 158.984 331.642 161.292C330.082 162.847 328.758 165.063 328.19 167.23C328.048 167.607 328.144 167.983 328.426 168.314C328.709 168.595 329.09 168.739 329.468 168.69C332.306 168.314 337.885 167.652 339.445 161.904V161.858C339.635 161.197 340.345 160.821 341.006 161.011C341.433 161.151 341.715 161.482 341.856 161.858C341.856 161.904 341.856 161.953 341.903 161.999C342.139 162.66 344.455 167.417 351.551 168.69C351.978 168.736 352.356 168.595 352.639 168.314C352.921 167.983 353.017 167.607 352.921 167.184C352.307 165.063 351.078 162.801 349.564 161.295C347.248 158.987 344.077 157.573 340.579 157.573L340.582 157.57Z" fill="white"/>
<path d="M319.296 170.154C318.728 170.154 318.208 170.436 318.067 171.332C317.926 172.229 317.972 173.689 317.926 174.867C317.831 175.905 316.934 176.563 316.602 175.008C316.411 174.02 316.507 172.7 316.507 171.051C316.507 169.07 317.785 168.507 319.155 168.317C320.055 168.223 321.52 170.013 319.296 170.154ZM359.826 179.624C362.001 179.624 363.798 179.765 365.549 178.023C368.01 175.571 368.483 165.771 361.765 165.771H361.15C360.631 165.771 360.158 165.44 360.017 164.874C354.957 145.034 326.106 145.034 321.047 164.92C320.906 165.437 320.479 165.768 319.959 165.817C313.954 166.101 314 169.539 314 174.298C314 177.833 316.507 179.342 319.674 179.578C320.193 179.624 320.62 180.003 320.715 180.521C321.283 183.49 322.703 184.95 325.774 184.95L337.644 184.996C339.3 184.996 339.3 182.498 337.644 182.498L325.774 182.452C322.936 182.452 322.89 179.719 322.89 176.468C322.89 169.165 322.085 163.463 328.094 157.525C339.303 146.357 358.174 154.556 358.174 169.918L358.078 177.787C358.078 178.069 358.174 178.354 358.361 178.589L358.975 179.202C359.212 179.483 359.494 179.578 359.826 179.627V179.624ZM363.042 174.252C363.042 172.838 363.233 170.907 362.806 170.295C362.615 169.964 362.238 169.869 361.814 169.823C360.063 169.588 360.868 168.223 361.909 168.363C364.984 168.74 364.606 170.671 364.606 174.301C364.606 175.856 363.141 175.997 363.045 174.301V174.255L363.042 174.252Z" fill="white"/>
<path fill-rule="evenodd" clip-rule="evenodd" d="M316.887 205.544C318.966 210.068 322.324 213.885 326.486 216.572C329.89 218.739 333.865 220.153 338.119 220.53C338.497 220.576 338.875 220.435 339.112 220.153C339.394 219.872 339.489 219.492 339.394 219.116C339.299 218.785 339.299 218.409 339.299 218.078V217.607L339.489 214.828V214.782C339.535 214.121 340.104 213.557 340.767 213.557H351.927C352.542 213.557 353.064 213.086 353.11 212.474L354.293 197.017C354.293 196.592 354.102 196.215 353.774 195.98C353.445 195.744 353.018 195.698 352.64 195.885C352.404 195.979 352.213 196.074 352.072 196.166C350.416 197.296 348.619 198.192 346.681 198.759C344.742 199.325 342.709 199.606 340.58 199.606C338.451 199.606 336.418 199.325 334.525 198.759C332.587 198.147 330.79 197.299 329.134 196.166C327.62 195.129 325.257 195.413 322.938 196.448C321.897 196.919 320.905 197.531 320.005 198.238C319.104 198.945 318.349 199.747 317.734 200.641C316.647 202.196 316.174 203.986 316.883 205.541L316.887 205.544Z" fill="white"/>
<path fill-rule="evenodd" clip-rule="evenodd" d="M397.284 188.722H360.584C359.733 188.722 358.882 189.098 358.268 189.665C357.654 190.231 357.227 191.03 357.181 191.881L355.242 217.655V217.891C355.242 218.644 355.479 219.305 355.952 219.776C356.379 220.248 357.039 220.578 357.795 220.624H394.731C395.582 220.624 396.387 220.294 397.001 219.727C397.665 219.115 398.043 218.313 398.138 217.465L400.076 191.737V191.501C400.076 190.748 399.794 190.087 399.367 189.616C398.893 189.098 398.23 188.814 397.523 188.719H397.287L397.284 188.722ZM373.59 200.692C374.632 199.655 376.051 198.997 377.658 198.997C379.264 198.997 380.637 199.658 381.679 200.692C382.72 201.681 383.334 203.144 383.334 204.699C383.334 206.254 382.72 207.668 381.679 208.705C380.637 209.743 379.218 210.355 377.658 210.355C376.097 210.355 374.632 209.743 373.637 208.705H373.59C372.598 207.668 371.935 206.254 371.935 204.699C371.935 203.144 372.598 201.684 373.59 200.692Z" fill="white"/>
<path d="M283.002 125L300.836 155" stroke="white" stroke-width="4" stroke-linecap="round" stroke-linejoin="round"/>
<path d="M273 136H69C32 136 2 106 2 69C2 32 32 2 69 2H305C342 2 372 32 372 69C372 106 342 136 305 136" stroke="white" stroke-width="4" stroke-miterlimit="10" stroke-linecap="round"/>
</svg>
