<svg width="105" height="105" viewBox="0 0 105 105" fill="none" xmlns="http://www.w3.org/2000/svg">
<path d="M52.5 7C77.59 7 98 27.41 98 52.5C98 77.59 77.59 98 52.5 98C27.41 98 7 77.59 7 52.5C7 27.41 27.41 7 52.5 7ZM52.5 0C23.51 0 0 23.51 0 52.5C0 81.49 23.51 105 52.5 105C81.49 105 105 81.49 105 52.5C105 23.51 81.49 0 52.5 0Z" fill="#EA5413"/>
<path d="M27.2934 40.0063C26.6234 40.0063 26.0034 40.3463 25.8434 41.4063C25.6734 42.4763 25.7334 44.2163 25.6734 45.6163C25.5634 46.8563 24.5034 47.6363 24.1034 45.7863C23.8734 44.6063 23.9934 43.0363 23.9934 41.0763C23.9934 38.7163 25.5034 38.0463 27.1234 37.8163C28.1834 37.7063 29.9234 39.8363 27.2934 40.0063ZM75.2434 51.2863C77.8134 51.2863 79.9435 51.4563 82.0135 49.3763C84.9235 46.4563 85.4834 34.7863 77.5334 34.7863H76.8035C76.1935 34.7863 75.6334 34.3963 75.4634 33.7163C69.4734 10.0863 35.3434 10.0863 29.3634 33.7663C29.1934 34.3863 28.6934 34.7763 28.0734 34.8363C20.9734 35.1763 21.0234 39.2763 21.0234 44.9463C21.0234 49.1563 23.9834 50.9463 27.7334 51.2363C28.3434 51.2863 28.8534 51.7463 28.9634 52.3563C29.6334 55.8963 31.3134 56.9163 34.9534 56.9163L39.6034 56.9663C41.5634 56.9663 41.5634 53.9863 39.6034 53.9863L34.9534 53.9363C31.5934 53.9363 31.5434 51.3963 31.5434 47.5163C31.5434 38.8163 30.5934 32.0263 37.7034 24.9563C50.9634 11.6563 73.2834 21.4163 73.2834 39.7163L73.1734 49.0863C73.1734 49.4263 73.2834 49.7563 73.5034 50.0463L74.2335 50.7763C74.5135 51.1163 74.8434 51.2263 75.2434 51.2863ZM79.0434 44.8863C79.0434 43.2063 79.2734 40.9063 78.7635 40.1763C78.5335 39.7863 78.0934 39.6663 77.5934 39.6163C75.5234 39.3363 76.4734 37.7063 77.7034 37.8763C81.3434 38.3263 80.8934 40.6263 80.8934 44.9463C80.8934 46.7963 79.1634 46.9663 79.0434 44.9463V44.8963V44.8863Z" fill="#EA5413"/>
<path d="M52.5019 55.7034C61.0719 55.7034 68.0719 48.5634 68.0719 39.7134C68.0719 30.8634 61.0719 23.7734 52.5019 23.7734C43.9319 23.7734 36.9219 30.9134 36.9219 39.7134C36.9219 48.5134 43.9219 55.7034 52.5019 55.7034Z" fill="#EA5413"/>
<path d="M25.9981 72.4878C25.3481 74.3578 24.7781 76.2378 24.3281 78.1478C31.2981 85.8178 41.3681 90.6678 52.4981 90.6678C63.6281 90.6678 73.6981 85.8178 80.6681 78.1478C80.2181 76.2378 79.6481 74.3578 78.9981 72.4878C76.6681 65.9578 71.7381 60.9478 65.6681 58.2578C61.9181 60.8678 57.3481 62.3778 52.4981 62.3778C47.6481 62.3778 43.0781 60.8678 39.3281 58.2978C33.2081 60.9478 28.3181 66.0078 25.9981 72.4978V72.4878Z" fill="#EA5413"/>
</svg>
