<svg width="118" height="107" viewBox="0 0 118 107" fill="none" xmlns="http://www.w3.org/2000/svg">
<path d="M98 53.7713C98 78.8613 77.59 99.2712 52.5 99.2712C27.41 99.2712 7 78.8613 7 53.7713C7 28.6813 27.41 8.27125 52.5 8.27125C58.31 8.27125 63.85 9.37125 68.96 11.3713C69.82 9.15125 70.94 7.06125 72.29 5.15125C66.18 2.66125 59.5 1.28125 52.49 1.28125C23.51 1.27125 0 24.7713 0 53.7713C0 82.7713 23.51 106.271 52.5 106.271C81.49 106.271 105 82.7613 105 53.7713C105 52.1013 104.91 50.4413 104.76 48.8113C102.56 49.5413 100.25 50.0213 97.85 50.2013C97.94 51.3813 98 52.5713 98 53.7713Z" fill="#EA5413"/>
<path d="M52.4991 56.9747C61.4516 56.9747 68.7091 49.7172 68.7091 40.7647C68.7091 31.8122 61.4516 24.5547 52.4991 24.5547C43.5465 24.5547 36.2891 31.8122 36.2891 40.7647C36.2891 49.7172 43.5465 56.9747 52.4991 56.9747Z" fill="#EA5413"/>
<path d="M52.5009 91.7234C63.7409 91.7234 73.8409 86.8334 80.7909 79.0634C78.8509 70.4934 73.1109 63.3534 65.4309 59.5234C61.7509 62.0634 57.3009 63.5534 52.5009 63.5534C47.7009 63.5534 43.2409 62.0634 39.5709 59.5234C31.8909 63.3534 26.1609 70.4834 24.2109 79.0634C31.1609 86.8334 41.2609 91.7234 52.5009 91.7234Z" fill="#EA5413"/>
<path d="M95.6913 0C83.7313 0 74.0312 9.7 74.0312 21.66C74.0312 33.62 83.7313 43.32 95.6913 43.32C107.651 43.32 117.351 33.62 117.351 21.66C117.351 9.7 107.651 0 95.6913 0ZM109.681 24.66H98.6813V35.65H92.6813V24.66H81.6913V18.66H92.6813V7.66H98.6813V18.65H109.681V24.65V24.66Z" fill="#EA5413"/>
</svg>
