<svg width="118" height="107" viewBox="0 0 118 107" fill="none" xmlns="http://www.w3.org/2000/svg">
<path d="M98 53.7713C98 78.8613 77.59 99.2712 52.5 99.2712C27.41 99.2712 7 78.8613 7 53.7713C7 28.6813 27.41 8.27125 52.5 8.27125C58.31 8.27125 63.85 9.37125 68.96 11.3713C69.82 9.15125 70.94 7.06125 72.29 5.15125C66.18 2.66125 59.5 1.28125 52.49 1.28125C23.51 1.27125 0 24.7713 0 53.7713C0 82.7713 23.51 106.271 52.5 106.271C81.49 106.271 105 82.7613 105 53.7713C105 52.1013 104.91 50.4413 104.76 48.8113C102.56 49.5413 100.25 50.0213 97.85 50.2013C97.94 51.3813 98 52.5713 98 53.7713Z" fill="#EA5413"/>
<path d="M52.4991 56.9669C61.4516 56.9669 68.7091 49.7094 68.7091 40.7569C68.7091 31.8043 61.4516 24.5469 52.4991 24.5469C43.5465 24.5469 36.2891 31.8043 36.2891 40.7569C36.2891 49.7094 43.5465 56.9669 52.4991 56.9669Z" fill="#EA5413"/>
<path d="M52.5009 91.7234C63.7409 91.7234 73.8409 86.8334 80.7909 79.0634C78.8509 70.4934 73.1109 63.3534 65.4309 59.5234C61.7509 62.0634 57.3009 63.5534 52.5009 63.5534C47.7009 63.5534 43.2409 62.0634 39.5709 59.5234C31.8909 63.3534 26.1609 70.4834 24.2109 79.0634C31.1609 86.8334 41.2609 91.7234 52.5009 91.7234Z" fill="#EA5413"/>
<path d="M95.6913 0C83.7313 0 74.0312 9.7 74.0312 21.66C74.0312 33.62 83.7313 43.32 95.6913 43.32C107.651 43.32 117.351 33.62 117.351 21.66C117.351 9.7 107.651 0 95.6913 0ZM97.8613 35.63H92.3812V30.19H97.8613V35.63ZM100.221 22.92L98.9013 24.2C98.1013 25 97.5413 25.52 97.5413 26.84V28.08H92.7012V25.32C92.7012 23.64 92.9813 22.64 94.2613 21.4L96.0612 19.68C97.6612 18.16 98.6213 17.16 98.6213 15.28C98.6213 13.4 97.3013 12.36 95.5413 12.36C93.9013 12.36 92.4613 13.28 92.4212 15.08H87.1413C87.1413 10.12 90.9813 7.68 95.5413 7.68C100.101 7.68 104.221 10.12 104.221 15.32C104.221 18.52 102.421 20.76 100.221 22.92Z" fill="#EA5413"/>
</svg>
