<svg width="105" height="105" viewBox="0 0 105 105" fill="none" xmlns="http://www.w3.org/2000/svg">
<path d="M52.5 6.99074C77.5926 6.99074 97.9861 27.4074 97.9861 52.4769C97.9861 77.5463 77.5694 97.963 52.5 97.963C27.4306 97.963 6.99074 77.5694 6.99074 52.5C6.99074 27.4306 27.4074 6.99074 52.5 6.99074ZM52.5 0C23.5185 0 0 23.5185 0 52.5C0 81.4815 23.5185 105 52.5 105C81.4815 105 105 81.4815 105 52.5C105 23.5185 81.4815 0 52.5 0Z" fill="#DE5419"/>
<path d="M47.7532 69.0738L45.2995 71.5275C42.0356 74.7914 36.7115 74.7914 33.4476 71.5275C30.1837 68.2636 30.1837 62.9395 33.4476 59.6756L44.6282 48.4951C47.8921 45.2312 53.2161 45.2312 56.48 48.4951C57.8226 49.8377 58.6097 51.5275 58.8411 53.2867L63.7023 48.4256C62.9847 46.8516 62.0124 45.4395 60.7624 44.2127C59.3736 42.8238 57.7763 41.759 55.9708 41.0414C54.2347 40.3469 52.406 39.9766 50.531 39.9766C48.656 39.9766 46.8273 40.3238 45.0911 41.0414C43.2856 41.759 41.6884 42.8469 40.2995 44.2127L29.1189 55.3932C27.73 56.7821 26.6652 58.3793 25.9476 60.1849C25.2532 61.921 24.8828 63.7497 24.8828 65.6247C24.8828 67.4997 25.23 69.3284 25.9476 71.0645C26.6652 72.8701 27.7532 74.4673 29.1189 75.8562C30.5078 77.2451 32.105 78.3099 33.9106 79.0275C35.6467 79.7219 37.4754 80.0923 39.3504 80.0923C41.2254 80.0923 43.0541 79.7451 44.7902 79.0275C46.5958 78.3099 48.193 77.2219 49.5819 75.8562L55.6004 69.8377C54.9754 69.884 54.3736 69.9071 53.7486 69.9071C51.6884 69.9071 49.6745 69.6293 47.73 69.0969L47.7532 69.0738Z" fill="#DE5419"/>
<path d="M71.0689 25.9711C69.3328 25.2766 67.5041 24.9062 65.6291 24.9062C63.7541 24.9062 61.9253 25.2535 60.1892 25.9711C58.3837 26.6887 56.7865 27.7766 55.3976 29.1424L49.2633 35.2766C50.0735 35.1377 50.9068 35.0683 51.7402 35.0683C53.5689 35.0683 55.3744 35.4155 57.0642 36.0868L59.68 33.4711C62.9439 30.2072 68.2679 30.2072 71.5318 33.4711C74.7957 36.735 74.7957 42.059 71.5318 45.3229L60.6522 56.2025C57.3883 59.4664 52.0642 59.4664 48.8003 56.2025C47.4578 54.86 46.6707 53.1701 46.4392 51.4109L41.5781 56.272C42.2957 57.8461 43.2679 59.2581 44.5179 60.485C45.9068 61.8738 47.5041 62.9387 49.3096 63.6562C51.0457 64.3507 52.8744 64.7211 54.7494 64.7211C56.6244 64.7211 58.4531 64.3738 60.1892 63.6562C61.9948 62.9387 63.592 61.8507 64.9809 60.485L75.8605 49.6053C77.2494 48.2164 78.3142 46.6192 79.0318 44.8137C79.7263 43.0775 80.0966 41.2488 80.0966 39.3738C80.0966 37.4988 79.7494 35.6701 79.0318 33.934C78.3142 32.1285 77.2263 30.5312 75.8605 29.1424C74.4948 27.7535 72.8744 26.6887 71.0689 25.9711Z" fill="#DE5419"/>
</svg>
