<svg width="470" height="211" viewBox="0 0 470 211" fill="none" xmlns="http://www.w3.org/2000/svg">
<path d="M49.78 10.92V17.28H60.58V55.68H52.6V53.34H31.54V55.68H23.56V17.28H34.3V10.92H23.08V5.4C22.72 5.52 22.6 5.52 22.24 5.58C20.68 9.54 20.2 10.86 19.42 12.48L20.56 12.96C20.92 13.14 21.34 13.38 21.34 13.8C21.34 14.28 21.04 14.46 20.2 14.88V55.68H11.68V26.22C10.84 27.48 10.12 28.32 9.34 29.34C7.6 25.86 5.92 24 4 22.2C10.84 13.44 13.84 3.54 14.68 0.299998L23.08 3.12V2.82H61.96V10.92H49.78ZM43.48 25.92H40.66V45.18H43.48V25.92ZM43.42 17.28V10.92H40.66V17.28H43.42ZM52.6 25.92H49.84V45.18H52.6V25.92ZM31.54 25.92V45.18H34.3V25.92H31.54ZM103.36 6.12H114.1L118 9C114.22 16.08 112.54 19.02 109.42 23.04C115.78 27.66 120.76 29.64 122.62 30.36C120.94 32.04 119.98 33.24 118.54 35.58V55.32H109.9V53.34H98.44V55.32H89.92V38.58C89.14 38.94 88.6 39.24 87.46 39.66C86.5 37.32 84.94 34.92 83.08 32.88C86.98 31.38 92.56 28.86 98.26 23.52C96.58 21.66 95.32 19.98 95.08 19.68C93.7 21.48 92.38 22.92 91.12 24.3C90.28 23.58 88.3 22.02 85.3 20.58C85.54 20.28 86.02 19.74 86.38 19.32H83.08C85.48 23.64 87.7 25.86 89.86 27.78C87.88 28.92 86.98 29.64 84.1 32.4C83.44 31.32 82.9 30.42 82.3 29.4V55.32H74.08V37.44C72.7 41.22 72.04 42.72 71.32 44.34C69.22 42.48 66.58 40.86 64.48 39.72C68.98 33.72 71.62 26.58 73.6 19.32H66.7V11.4H74.08V0.719996L82.6 1.2C83.32 1.26 83.74 1.38 83.74 1.86C83.74 2.34 83.44 2.52 82.3 3.24V11.4H88.3V16.62C91.9 11.22 94.48 7.26 96.94 0.359998L104.92 2.52C105.34 2.64 106 2.88 106 3.36C106 3.84 105.58 3.96 104.44 4.14C104.08 4.8 103.72 5.52 103.36 6.12ZM98.44 39.06V46.02H109.9V39.06H98.44ZM106.9 12.84H99.58L99.46 13.08C100.6 14.7 101.74 16.2 103.48 17.94C106.12 14.76 106.48 13.8 106.9 12.84ZM99.7 32.46H109.72C108.52 31.62 107.26 30.72 104.5 28.38C103.54 29.34 102.22 30.54 99.7 32.46ZM139 20.88C142.96 20.88 146.32 24.12 146.32 28.2C146.32 32.22 143.02 35.52 139 35.52C134.98 35.52 131.68 32.22 131.68 28.2C131.68 24.12 134.98 20.88 139 20.88ZM184 7.86H211.12V15.54H180.76C178.06 20.88 175.06 25.32 172.12 28.92V55.68H163.12V37.62C161.5 38.76 160.84 39.18 159.64 39.96C157.42 36.42 155.86 35.04 154 33.48C155.56 32.76 159.28 30.96 163.12 27.54V22.56L167.5 22.8C169 20.88 170.32 18.96 172.12 15.54H156.94V7.86H175.3C176.5 4.26 176.86 1.86 177.16 0.0599978L186.28 1.92C186.82 2.04 187.06 2.34 187.06 2.7C187.06 3.12 186.52 3.48 185.32 3.9C184.6 6.24 184.3 7.02 184 7.86ZM196.96 26.1H208.6V33.42H196.96V46.08H211.24V53.82H173.92V46.08H188.02V33.42H176.38V26.1H188.02V16.86L197.32 17.58C197.86 17.64 198.16 17.82 198.16 18.24C198.16 18.66 197.68 19.08 196.96 19.56V26.1ZM253.12 11.52V13.74H270.7V19.86H253.12V22.02H266.98V41.82H253.12V43.98H271.3V50.52H253.12V55.5H245.08V50.52H228.16V43.98H245.08V41.82H230.92V22.02H245.08V19.86H229.6V13.74H245.08V11.4H227.8V28.14C227.8 43.68 225.7 49.68 222.94 55.2C219.7 53.22 218.68 52.98 214.6 51.96C216.28 48.96 219.28 43.38 219.28 29.46V4.8H240.04V0.239999L249.22 0.479996C249.7 0.479996 250.6 0.539999 250.6 1.38C250.6 1.92 250 2.22 249.22 2.64V4.8H271.3V11.4H253.66C253.54 11.46 253.3 11.52 253.12 11.52ZM253.12 27.24V29.46H258.7V27.24H253.12ZM245.08 29.46V27.24H239.2V29.46H245.08ZM253.12 34.32V36.6H258.7V34.32H253.12ZM245.08 36.6V34.32H239.2V36.6H245.08ZM289 20.88C292.96 20.88 296.32 24.12 296.32 28.2C296.32 32.22 293.02 35.52 289 35.52C284.98 35.52 281.68 32.22 281.68 28.2C281.68 24.12 284.98 20.88 289 20.88ZM329.62 10.8H340.42V0.599998L348.28 0.839998C348.7 0.839998 349.66 1.02 349.66 1.62C349.66 2.16 349.3 2.46 348.34 3.06V10.8H360.7V48.72C360.7 53.58 359.44 56.22 351.58 56.22C350.56 56.22 349.9 56.16 349.18 56.04C349 52.98 348.28 50.58 346.78 48.18C347.62 48.42 348.22 48.6 349.6 48.6C352.9 48.6 352.9 47.76 352.9 46.14V37.74C350.92 39.42 350.44 39.84 349.54 40.86C347.62 38.22 346.78 36.66 344.8 32.76C343.42 36.18 342.28 38.22 340.12 40.86C339.58 40.32 338.56 39.48 336.64 38.34V55.5H329.08V44.76C327.1 45.18 325.12 45.72 323.5 46.62C322.54 41.94 322.36 39.42 322.3 33.54L327.82 33.06C327.94 37.74 328.66 41.4 329.08 42.9V30.48C328.48 30.72 326.8 31.2 324.94 32.1C324.76 30.6 324.7 30.36 324.58 29.7L321.58 29.94V55.5H314.44V35.46C314.14 35.58 313.96 35.58 313.66 35.64C313.18 44.16 312.52 47.76 311.86 50.64C309.7 49.74 306.82 49.32 304.96 49.2C306.82 43.62 307.48 39.6 307.66 32.7L313.84 33.84C314.08 33.9 314.2 33.9 314.44 33.96V30.54C313.6 30.6 310 30.9 309.22 30.96C308.8 31.74 308.5 32.04 308.08 32.04C307.6 32.04 307.42 31.8 307.36 30.96L306.7 23.82C307.84 23.88 308.14 23.88 310.78 23.88C311.56 22.98 313.12 20.88 314.26 19.32C313.72 18.84 310 15.66 306.46 13.26L310.54 7.44C311.2 7.92 311.38 7.98 311.8 8.28C313.48 5.28 313.72 4.8 315.82 -1.43051e-06L322.18 3C322.72 3.24 323.26 3.72 323.26 4.08C323.26 4.8 321.76 4.74 321.4 4.74C320.68 5.88 317.62 11.1 316.96 12.18C317.68 12.72 317.98 12.96 318.4 13.32C321.04 9.24 321.82 7.92 322.54 6.66L328.66 10.08C328.96 10.26 329.38 10.5 329.62 10.8ZM329.08 24.54V11.88C328.6 11.94 328.48 11.94 327.4 12C325.66 14.88 322 19.92 319.12 23.82C320.62 23.82 322.36 23.82 323.26 23.76C323.02 23.04 322.84 22.56 322.42 21.12L327.4 19.32C327.88 20.4 328.36 21.72 329.08 24.54ZM336.64 18.24V32.64C337.6 31.02 340.12 26.82 340.6 18.24H336.64ZM352.9 18.24H348.16C348.7 23.4 349.78 27.78 352.9 32.4V18.24ZM378.58 6.36H383.98V0.959997L393.16 1.5C393.7 1.56 394.18 1.74 394.18 2.28C394.18 2.64 394 3.06 392.56 3.54V6.36H395.5V13.32H392.56V32.82H395.92V39.54H366.04V32.82H370.06V13.32H366.4V6.36H370.06V1.32L379.12 1.68C379.6 1.68 380.02 2.04 380.02 2.52C380.02 3.12 379.42 3.36 378.58 3.78V6.36ZM383.98 21.72H378.58V24.42H383.98V21.72ZM383.98 13.32H378.58V16.08H383.98V13.32ZM383.98 30.12H378.58V32.82H383.98V30.12ZM397.96 28.56V2.82H420.22V49.08C420.22 52.92 418.9 55.5 409.48 55.32C409.18 53.1 407.98 49.74 405.94 47.04C407.44 47.34 408.58 47.58 409.78 47.58C411.46 47.58 411.46 46.68 411.46 45.78V35.76H406.06C405.22 42.96 402.52 49.8 397.18 55.98C394.12 53.16 393.22 52.86 389.62 51.6C390.94 50.16 391.54 49.44 392.38 48.36C388.48 50.28 388 50.46 386.44 51.84C384.94 49.74 383.56 47.52 381.76 43.32L388.06 40.02C389.5 42.84 390.76 44.76 392.98 47.46C394.96 44.52 397.96 38.82 397.96 28.56ZM411.46 28.44V23.1H406.6V27.42C406.6 27.78 406.54 28.08 406.54 28.44H411.46ZM406.6 10.5V15.84H411.46V10.5H406.6ZM372.94 39.96L380.44 43.32C380.74 43.44 381.04 43.68 381.04 44.16C381.04 45.06 380.02 45.06 379.36 45.06C376.78 49.32 374.5 52.68 372.16 55.26C370.36 53.82 367.6 52.74 364.84 51.72C368.14 48.42 370.72 45.06 372.94 39.96ZM451.68 52.8C450.36 50.48 449.48 49.28 447.52 47.16C456.2 45.56 458.76 38.84 458.76 34.68C458.76 31.44 457.04 25.48 449.52 24.88C448.28 39.52 442.24 50.44 438 50.44C434.88 50.44 429.08 45.16 429.08 37.76C429.08 29.16 436.92 19.12 448.68 19.12C457.44 19.12 465.08 25.08 465.08 34.64C465.08 36.48 464.92 41.6 460.36 47C457.92 49.84 455.08 51.32 451.68 52.8ZM442.8 26.08C438.16 27.8 435 33.68 435 37.28C435 40.36 436.72 42.68 437.56 42.68C438.52 42.68 439.28 40.88 439.72 39.84C441.44 35.88 442.76 31.28 442.8 26.08ZM84.34 105.34H90.64V111.7H84.34V114.1H90.64V120.52H84.34V122.98H93.04V129.82H72.04V131.44H64.48V109.06C63.94 109.6 63.58 109.84 62.74 110.5C62.32 109.36 61.72 107.8 60.28 105.88V126.7H52.84V123.82H50.44V130.78H42.16V113.74C41.92 114.04 41.38 114.52 41.14 114.76C40.54 113.68 38.62 110.08 35.5 108.22C41.2 102.46 44.02 94.66 45.52 86.8H38.02V79.18H59.14V86.8H53.8C53.56 88 52.42 93.28 50.86 97.6H60.28V102.34C66.46 97.6 68.92 90.16 69.88 87.4H67.6V92.8H60.28V80.74H71.5C71.8 79.12 72.16 76.6 72.22 75.52L79.9 76.48C80.68 76.6 81.16 76.78 81.16 77.32C81.16 77.8 80.56 78.16 80.32 78.28C80.14 79.06 79.84 80.02 79.66 80.74H92.74V92.8H86.5C86.02 93.94 85.84 94.3 84.82 96.46H91.9V102.94H84.34V105.34ZM72.04 105.34H76.78V102.94H72.04V105.34ZM76.78 111.7H72.04V114.1H76.78V111.7ZM79.48 89.08L85.72 90.64V87.4H77.68C76.12 92.08 74.68 94.96 73.84 96.46H76.6C78.04 93.46 78.58 92.02 79.48 89.08ZM76.78 122.98V120.52H72.04V122.98H76.78ZM52.84 105.1H50.44V116.08H52.84V105.1ZM120.82 93.16L123.82 86.38C125.08 86.74 126.58 87.16 128.62 88C128.86 86.98 129.04 86.26 129.16 85.24H120.34V78.22H150.7C150.76 81.04 150.34 90.7 149.74 94.72C149.14 98.5 148.3 103.6 141.16 103.6C140.08 103.6 138.94 103.42 137.86 103.3C137.62 100.84 137.32 99.58 136.66 97.48C136.24 98.62 136.06 99.46 135.76 100.42C134.98 99.76 134.14 99.04 132.22 98.02C129.52 102.16 126.76 104.5 122.98 106.78C122.14 105.64 120.52 103.6 117.46 101.8V107.92H101.68V101.56H117.46V101.68C119.68 100.48 122.86 98.62 125.62 94.84C123.1 93.82 121.96 93.52 120.82 93.16ZM142.84 85.24H136.78C136.36 88.48 136 89.74 135.52 91.24C137.56 92.38 138.04 92.74 138.88 93.4C138.34 94.18 138.04 94.6 137.68 95.26C138.16 95.44 139.12 95.86 140.2 95.86C141.28 95.86 142 95.32 142.3 93.34C142.54 91.72 142.84 88.36 142.84 85.24ZM101.68 78.22H117.46V84.04H101.68V78.22ZM101.68 93.82H117.46V99.94H101.68V93.82ZM131.56 106L136.36 101.92C138.94 104.74 141.34 107.74 143.56 110.86L148.12 108.16C151.24 113.32 153.4 120.34 154.06 122.5C150.82 123.4 150.16 123.7 146.92 125.26C146.56 123.34 146.44 122.8 146.26 122.14C145.18 129.46 143.32 130.96 138.94 130.96H133.24C130.36 130.96 127.48 130.72 127.48 125.14V115.36C126.88 118.42 125.8 122.56 123.46 126.88C121.72 125.8 121 125.38 119.38 124.66V130.78H111.88V128.68H107.68V131.74H100.12V109.6H119.38V118.66C120.22 115.96 120.64 113.8 121.12 110.86L127.48 112.06V109.18L134.68 110.02C133.12 107.62 132.4 106.9 131.56 106ZM134.86 112.24V122.26C134.86 123.1 135.04 123.7 136.36 123.7C138.28 123.7 138.34 122.98 138.94 117.22C140.32 118.3 142.6 120.1 145.9 120.7C145.06 117.7 143.98 114.34 142.54 111.52C140.5 112.54 138.7 113.56 137.38 114.76C136.9 113.86 136.6 113.26 135.7 111.64C135.46 111.76 135.34 111.88 134.86 112.24ZM107.68 121.66H111.88V116.62H107.68V121.66ZM98.86 85.72H120.34V92.2H98.86V85.72ZM169.82 93.4L176.42 95.52C176.86 95.64 177.22 95.76 177.22 96.12C177.22 96.68 176.38 96.76 176.14 96.76C175.54 99.48 175.3 100.52 175.02 101.56C178.46 101.56 184.18 101.68 184.18 111.36C184.18 117.96 182.1 123.6 180.18 126.16C179.5 127.08 177.86 128.96 174.26 128.96C173.02 128.96 171.22 128.8 170.02 128.52C170.06 128.08 170.14 127.72 170.14 127.04C170.14 126.44 170.1 124.76 169.54 121.68C170.46 122.2 171.5 122.56 173.02 122.56C174.1 122.56 174.74 122.4 175.38 121.8C176.74 120.6 178.02 116.12 178.02 111.16C178.02 107.04 175.14 107.28 173.42 107.4C170.26 118.24 166.5 124.32 163.26 128.52C161.58 127.28 158.98 125.96 157.38 125.36C161.62 120.44 164.94 114.8 166.9 108.6C164.98 109.08 161.82 110 160.54 110.64L158.34 104.2C159.98 103.88 167.1 102.4 168.58 102.16C169.42 98.32 169.66 95.4 169.82 93.4ZM182.34 100.72L187.22 97.6C191.62 102.52 194.42 109.2 194.42 112.36C194.42 114.44 193.74 115.56 191.58 116.6C191.22 116.76 189.62 117.52 187.58 117.84C186.74 115.48 186.26 114.32 185.26 112.48C186.34 112.24 187.82 111.92 187.82 110.64C187.82 109.64 186.82 107 185.74 105.16C184.7 103.36 183.18 101.68 182.34 100.72ZM208.02 98.44L210.1 93.08C211.5 93.28 217.66 94.2 223.54 97.52C222.02 99.64 221.02 101.36 219.94 103.36C216.58 101 211.7 99.24 208.02 98.44ZM205.66 100.32L212.3 102.44C212.58 102.52 212.9 102.6 212.9 102.96C212.9 103.44 212.42 103.48 211.98 103.52C211.02 105.32 209.94 107.68 209.34 110.44C212.9 108 217.54 106.72 221.02 106.72C227.9 106.72 231.26 111.8 231.26 116.56C231.26 124.2 224.06 129.44 210.82 129.44C209.66 129.44 208.66 129.4 207.9 129.36C207.66 127.16 207.34 126.08 206.02 122.64C207.38 122.96 208.78 123.24 211.94 123.24C221.02 123.24 224.62 119.84 224.62 116.48C224.62 115.32 224.06 112.4 219.94 112.4C214.22 112.4 210.06 116.08 207.18 118.96L201.46 116.88C202.62 110.04 203.82 105.68 205.66 100.32ZM276.06 85.72H291.72V93.34H277.26V102.28H288.6V110.44H277.26V121.9H292.62V130.24H253.26V121.9H268.38V110.44H257.22V102.28H268.38V93.34H254.82V85.72H268.02C266.4 84.04 264.72 82.48 262.86 80.98L270.24 75.46C273.9 78.34 275.88 80.26 279.12 83.74C277.26 84.88 276.78 85.18 276.06 85.72ZM241.44 83.08L245.94 76C247.68 76.96 252.78 79.78 255.78 82.12C253.74 85.06 252.18 87.82 251.28 89.5C249.06 87.76 244.5 84.7 241.44 83.08ZM236.04 97.96L239.76 90.28C241.92 91.12 247.44 93.52 251.34 96.4C248.94 100.54 248.1 102.46 247.44 104.02C242.04 100.84 241.44 100.54 236.04 97.96ZM243.78 131.02L236.04 125.8C240.06 121.3 246.3 110.74 248.28 105.88C250.5 108.58 253.62 110.74 254.58 111.4C252.54 116.32 248.64 123.7 245.1 129.28C245.16 129.82 245.28 130.3 245.28 130.6C245.28 131.14 245.04 131.38 244.68 131.38C244.44 131.38 244.14 131.26 243.78 131.02ZM306.3 91.6H298.02V83.32H320.76V76.06L330.36 76.42C330.66 76.42 331.14 76.48 331.14 76.96C331.14 77.32 330.66 77.68 330.06 78.04V83.32H352.74V91.6H344.34C341.52 100.6 338.22 106.96 331.74 114.4C340.98 121.36 350.04 123.4 353.64 124.18C349.86 128.08 349.14 129.16 347.94 132.28C336.6 129.1 327.12 121.6 325.56 120.34C318.72 125.92 310.86 130.12 302.28 132.4C301.44 129.7 298.2 126.64 295.74 125.26C308.4 121.96 315.96 116.74 319.14 114.34C312.66 107.26 308.94 100.06 306.3 91.6ZM334.08 91.6H315.9C318.54 99.58 323.22 105.76 325.32 108.22C328.56 104.2 331.5 99.28 334.08 91.6ZM372.54 93.4L379.5 94.64C379.86 94.72 380.22 94.76 380.22 95.16C380.22 95.6 379.78 95.68 379.5 95.72C379.34 97.28 379.34 97.64 379.3 98.08C381.14 98.08 387.34 97.96 390.34 98.32V104.28C388.42 104.12 384.94 103.8 379.1 103.92V108.32C380.22 108.24 384.7 107.8 389.26 106.44V112.4C385.98 113.12 382.62 113.44 379.26 113.72C379.26 115.44 379.26 115.6 379.34 117.28C384.34 117.96 391.22 121.44 392.7 122.56C391.42 123.8 390.7 124.68 388.26 127.56C386.3 125.88 382.66 123.6 379.7 122.52C379.78 124.6 380.06 129.32 371.3 129.32C365.1 129.32 360.58 126.48 360.58 122.84C360.58 118.28 366.3 116.32 372.98 116.44C372.98 115.52 372.98 115.52 372.94 114.08C368.98 114.16 361.74 114.28 361.74 110.32C361.74 108.92 362.46 107.64 364.54 105.48L368.94 106.48C368.22 107.44 368.1 107.56 368.1 107.84C368.1 108.28 368.1 108.96 372.78 108.76C372.78 108.04 372.74 104.8 372.74 104.16C367.82 104.36 363.5 104.92 360.18 105.36V99.04C362.14 98.84 370.9 98.44 372.7 98.32C372.7 96.8 372.7 95.24 372.54 93.4ZM372.98 121.2C372.58 121.12 372.02 121.04 371.22 121.04C371.02 121.04 367.18 121.04 367.18 122.68C367.18 124 369.38 124.12 370.06 124.12C372.02 124.12 373.22 123.4 372.98 121.2ZM431.9 94L433.02 100.72C423.14 100.56 414.58 109.44 414.58 115.92C414.58 120.56 420.46 122.84 425.9 122.96C425.02 124.64 423.58 128.04 422.9 130.24C419.66 129.36 408.18 126.16 408.18 116.6C408.18 109.2 413.9 103.88 415.54 102.84C407.7 103.48 402.86 104.48 398.98 105.36L398.06 97.84C404.18 97.84 407.66 97.84 415.86 96.92C421.66 96.28 428.14 95.2 431.9 94ZM427.66 105.72L430.58 103.56C431.7 104.56 433.34 106.52 434.14 107.76C433.14 108.52 432.46 109.12 431.22 110.24C429.74 108.04 429.3 107.52 427.66 105.72ZM423.46 108.56L426.38 106.4C427.58 107.44 429.3 109.44 430.1 110.68C428.98 111.48 428.42 111.92 427.02 113.08C425.5 110.88 425.1 110.36 423.46 108.56Z" fill="#EB5C03"/>
<path d="M7.23999 157.72L17.02 160.48C17.56 160.66 18.22 160.84 18.22 161.38C18.22 162.16 17.5 162.28 16.96 162.34C15.7 166 13.6 172.3 13.6 180.4C13.6 187.72 15.88 192.82 17.62 192.82C19.54 192.82 21.82 187.54 23.44 183.76C25.66 186.82 27.94 188.86 29.74 190.12C24.94 201.76 19.48 205.84 16.54 205.84C13.18 205.84 4.29999 198.7 4.29999 180.16C4.29999 172.48 5.61999 165.46 7.23999 157.72ZM38.26 165.82L46 160.9C52.6 169.78 57.1 179.98 58.12 191.08C54.58 192.46 50.32 194.5 48.34 195.52C47.62 182.8 43.9 174.04 38.26 165.82ZM65.74 178L61.96 166.42C64.6 166.12 66.22 165.82 69.52 164.98C86.44 160.54 90.52 159.52 97.12 159.52C111.52 159.52 117.82 169.06 117.82 179.62C117.82 202.24 90.52 203.92 80.86 204.4C80.26 201.04 79.18 197.8 77.8 194.8C88.6 194.86 107.68 194.5 107.68 179.74C107.68 176.62 106.6 168.28 95.98 168.28C87.04 168.28 72.22 174.34 65.74 178ZM175 155.5L176.68 165.58C161.86 165.34 149.02 178.66 149.02 188.38C149.02 195.34 157.84 198.76 166 198.94C164.68 201.46 162.52 206.56 161.5 209.86C156.64 208.54 139.42 203.74 139.42 189.4C139.42 178.3 148 170.32 150.46 168.76C138.7 169.72 131.44 171.22 125.62 172.54L124.24 161.26C133.42 161.26 138.64 161.26 150.94 159.88C159.64 158.92 169.36 157.3 175 155.5ZM168.64 173.08L173.02 169.84C174.7 171.34 177.16 174.28 178.36 176.14C176.86 177.28 175.84 178.18 173.98 179.86C171.76 176.56 171.1 175.78 168.64 173.08ZM162.34 177.34L166.72 174.1C168.52 175.66 171.1 178.66 172.3 180.52C170.62 181.72 169.78 182.38 167.68 184.12C165.4 180.82 164.8 180.04 162.34 177.34ZM206.56 153.58L216.28 157.24C216.94 157.48 217.3 157.66 217.3 158.2C217.3 159.04 216.28 159.22 215.56 159.28C214.9 160.3 214.18 161.5 212.02 165.58C215.2 165.88 218.26 166 219.52 166C220.78 166 221.62 165.94 222.46 165.88C221.26 168.4 220.06 173.56 219.82 175.36C218.02 175.42 213.76 175.48 208.48 174.82C207.76 176.44 206.92 178.6 206.32 180.1C207.82 180.34 212.26 180.94 219.64 181C218.5 184.24 217.54 188.02 217.06 189.88C213.4 189.64 209.26 189.28 203.62 188.44C203.44 189.1 202.96 191.08 202.96 193.3C202.96 200.62 209.74 200.62 212.68 200.62C215.26 200.62 224.32 200.62 224.32 191.92C224.32 188.08 221.56 182.98 221.26 182.56C225.16 181.78 227.44 180.88 230.32 179.32C231.76 181.96 234.46 187.66 234.46 192.94C234.46 206.14 220.54 209.2 212.68 209.2C200.62 209.2 193.96 202.96 193.96 194.14C193.96 190.84 194.5 188.32 194.86 186.88C192.1 186.34 189.7 185.62 187.06 184.66L189.1 175.78C192.52 177.1 192.94 177.22 197.2 178.36C197.44 177.58 197.86 176.26 199 173.02C195.7 172.24 193.36 171.4 190.06 170.02L191.86 160.72C196.84 162.64 199.36 163.24 202.48 164.02C203.08 162.4 205.96 155.08 206.56 153.58ZM281.02 164.68H278.26C276.64 166.9 275.38 168.28 274.54 169.18H295.54V200.92C295.54 206.14 295.54 210.58 284.8 209.98C284.68 207.28 284.14 206.02 282.7 203.38V205.78H265.9V207.7H257.86V188.8H282.7V201.58C283 201.64 284.74 201.82 285.7 201.82C287.56 201.82 287.56 200.56 287.56 199.24V187.3H272.32V169.24C270.46 167.92 269.38 167.44 266.56 166.12C266.98 165.76 267.58 165.16 268.18 164.68H264.52C264.94 165.82 265.18 166.6 265.36 167.5C264.16 167.62 260.38 167.92 257.56 168.88C256.84 166.48 256.18 164.86 256.06 164.68H252.46C250.9 167.02 249.88 168.28 249.04 169.18H268.6V187.06H253.36V209.38H245.26V169.18H246.58C243.64 167.5 243.34 167.32 240.7 166.3C243.28 163.66 247.06 158.5 248.98 153.94L257.44 155.38C258.04 155.5 258.46 155.62 258.46 156.04C258.46 156.64 257.86 156.88 256.72 157.12C256.42 157.72 256.3 157.96 256.12 158.26H270.58V161.98C271.24 161.14 273.82 157.9 275.38 154.06L283.66 155.5C283.96 155.56 284.32 155.86 284.32 156.22C284.32 156.82 283.42 157 282.58 157.18C282.4 157.6 282.16 158.02 282.04 158.26H297.88V164.68H289.78C290.62 166.24 290.68 166.48 290.86 167.44C289.66 167.5 286.12 167.74 282.58 168.94C281.74 166.42 281.56 166 281.02 164.68ZM265.9 195.52H274.9V193.66H265.9V195.52ZM274.9 198.88H265.9V200.86H274.9V198.88ZM253.36 174.16V176.2H261.04V174.16H253.36ZM261.04 182.2V180.22H253.36V182.2H261.04ZM279.82 174.16V176.2H287.56V174.16H279.82ZM287.56 182.2V180.22H279.82V182.2H287.56ZM352.18 190.24H334.84V193.48H358V201.1H334.84V209.92H325.84V201.1H303.34V193.48H325.84V190.24H308.68V165.76H312.46C309.82 161.62 308.2 159.82 307.24 158.74L314.38 154.6C316.12 156.4 319.84 160.78 321.64 164.02C320.44 164.62 319.54 165.1 318.46 165.76H326.62C325.42 163 323.8 160.06 321.34 156.7L329.08 152.92C333.04 157.96 334.72 161.86 335.62 164.08C334.36 164.56 333.28 165.04 331.84 165.76H337.54C340.9 160.54 342.52 157.3 344.08 153.64L353.02 157.36C353.26 157.48 353.5 157.66 353.5 158.02C353.5 158.62 352.78 158.74 351.76 158.8C350.5 161.2 349.06 163.54 347.56 165.76H352.18V190.24ZM343.6 175.24V172.66H334.84V175.24H343.6ZM343.6 183.34V180.64H334.84V183.34H343.6ZM317.14 183.34H325.84V180.64H317.14V183.34ZM317.14 172.66V175.24H325.84V172.66H317.14ZM369.22 155.68L378.46 159.16C379.6 159.58 380.08 159.76 380.08 160.18C380.08 160.72 378.88 160.84 378.46 160.9C376.66 166.24 374.56 173.08 374.56 185.68C374.56 188.14 374.68 188.8 374.98 190.48C375.34 189.82 376.78 187.18 377.5 185.98C379.24 188.68 381.16 190.24 382.12 190.9C380.62 193.72 377.86 200.68 378.16 205.24L369.64 207.52C367.6 201.88 365.38 195.22 365.38 183.52C365.38 172.66 367.06 165.22 369.22 155.68ZM387.04 170.74V161.74C388.84 161.86 391.24 162.04 394.84 162.04C404.74 162.04 410.2 160.66 412.48 160.12C412.54 161.08 412.78 166.36 413.32 169.24C410.86 169.72 404.56 171.04 394.84 171.04C391.3 171.04 388.96 170.86 387.04 170.74ZM386.62 185.92L394.3 187.36C393.94 188.38 393.4 190.42 393.4 191.62C393.4 194.26 394.84 194.68 401.74 194.68C405.76 194.68 411.04 194.44 416.56 193.06C415.48 197.5 415.66 202 415.66 202.84C411.52 203.44 404.74 203.62 400.48 203.62C391.54 203.62 384.64 202.06 384.64 194.74C384.64 193.96 384.64 190.54 386.62 185.92ZM434.56 205V194.86H444.64V205H434.56ZM434.5 157.72H444.64V171.7L442.48 189.34H436.72L434.5 171.7V157.72Z" fill="black"/>
</svg>
