<svg width="581" height="241" viewBox="0 0 581 241" fill="none" xmlns="http://www.w3.org/2000/svg">
<path d="M57.413 13.7354V21.7115H70.9573V69.8692H60.9496V66.9346H34.5381V69.8692H24.5303V21.7115H37.9994V13.7354H23.9283V6.81276C23.4769 6.96325 23.3264 6.96325 22.8749 7.0385C20.9185 12.0048 20.3165 13.6602 19.3383 15.6918L20.768 16.2938C21.2195 16.5195 21.7462 16.8205 21.7462 17.3473C21.7462 17.9492 21.37 18.175 20.3165 18.7017V69.8692H9.63154V32.9232C8.57809 34.5034 7.67513 35.5569 6.69693 36.8361C4.51478 32.4718 2.40788 30.1391 0 27.8817C8.57809 16.8958 12.3404 4.48012 13.3939 0.416817L23.9283 3.9534V3.57716H72.688V13.7354H57.413ZM49.5121 32.547H45.9755V56.7011H49.5121V32.547ZM49.4369 21.7115V13.7354H45.9755V21.7115H49.4369ZM60.9496 32.547H57.4882V56.7011H60.9496V32.547ZM34.5381 32.547V56.7011H37.9994V32.547H34.5381ZM124.608 7.71571H138.077L142.968 11.3275C138.228 20.2066 136.121 23.8937 132.208 28.9352C140.184 34.7292 146.429 37.2123 148.762 38.1152C146.655 40.2221 145.451 41.7271 143.645 44.6617V69.4177H132.81V66.9346H118.438V69.4177H107.753V48.424C106.775 48.8755 106.097 49.2517 104.668 49.7784C103.464 46.8438 101.507 43.834 99.1747 41.2756C104.066 39.3944 111.064 36.2341 118.212 29.5372C116.105 27.2045 114.525 25.0976 114.224 24.7214C112.493 26.9788 110.838 28.7847 109.258 30.5154C108.204 29.6124 105.721 27.656 101.959 25.8501C102.26 25.4739 102.862 24.7966 103.313 24.2699H99.1747C102.185 29.6877 104.969 32.4718 107.678 34.8797C105.194 36.3093 104.066 37.2123 100.454 40.6736C99.6262 39.3192 98.949 38.1905 98.1965 36.9113V69.4177H87.8878V46.9943C86.1571 51.7348 85.3294 53.616 84.4264 55.6477C81.7928 53.315 78.482 51.2834 75.8483 49.8537C81.4918 42.329 84.8027 33.3747 87.2858 24.2699H78.6325V14.3374H87.8878V0.943539L98.5727 1.54551C99.4757 1.62076 100.002 1.77125 100.002 2.37322C100.002 2.97519 99.6262 3.20093 98.1965 4.10389V14.3374H105.721V20.8838C110.236 14.1117 113.472 9.1454 116.557 0.492062L126.564 3.20093C127.091 3.35142 127.919 3.65241 127.919 4.25438C127.919 4.85635 127.392 5.00684 125.962 5.23258C125.511 6.06029 125.059 6.96325 124.608 7.71571ZM118.438 49.026V57.7546H132.81V49.026H118.438ZM129.048 16.1433H119.867L119.717 16.4443C121.147 18.4759 122.576 20.3571 124.758 22.5393C128.069 18.5512 128.521 17.3473 129.048 16.1433ZM120.018 40.7489H132.584C131.079 39.6954 129.499 38.5667 126.038 35.6321C124.834 36.8361 123.178 38.341 120.018 40.7489ZM169.304 26.2263C174.271 26.2263 178.484 30.2896 178.484 35.4064C178.484 40.4479 174.346 44.5864 169.304 44.5864C164.263 44.5864 160.124 40.4479 160.124 35.4064C160.124 30.2896 164.263 26.2263 169.304 26.2263ZM225.739 9.89786H259.75V19.5294H221.676C218.29 26.2263 214.527 31.7946 210.84 36.3093V69.8692H199.553V47.2201C197.522 48.6497 196.694 49.1765 195.189 50.1547C192.405 45.7151 190.449 43.9845 188.116 42.0281C190.072 41.1251 194.738 38.8677 199.553 34.5787V28.3332L205.046 28.6342C206.928 26.2263 208.583 23.8184 210.84 19.5294H191.803V9.89786H214.828C216.333 5.38308 216.785 2.37322 217.161 0.11583L228.598 2.44847C229.276 2.59896 229.577 2.97519 229.577 3.42667C229.577 3.9534 228.899 4.40487 227.395 4.9316C226.492 7.86621 226.115 8.84441 225.739 9.89786ZM241.992 32.7728H256.59V41.9528H241.992V57.8298H259.901V67.5366H213.098V57.8298H230.781V41.9528H216.183V32.7728H230.781V21.1848L242.444 22.0878C243.121 22.163 243.497 22.3888 243.497 22.9155C243.497 23.4422 242.895 23.9689 241.992 24.5709V32.7728ZM312.423 14.4879V17.272H334.47V24.9471H312.423V27.656H329.805V52.4873H312.423V55.1962H335.223V63.398H312.423V69.6435H302.34V63.398H281.12V55.1962H302.34V52.4873H284.582V27.656H302.34V24.9471H282.926V17.272H302.34V14.3374H280.669V35.3311C280.669 54.8199 278.035 62.3446 274.574 69.2672C270.511 66.7841 269.232 66.4831 264.115 65.2039C266.222 61.4416 269.984 54.4437 269.984 36.9866V6.06029H296.019V0.341571L307.532 0.642553C308.134 0.642553 309.263 0.717803 309.263 1.77125C309.263 2.44847 308.51 2.8247 307.532 3.35142V6.06029H335.223V14.3374H313.1C312.95 14.4126 312.649 14.4879 312.423 14.4879ZM312.423 34.2024V36.9866H319.421V34.2024H312.423ZM302.34 36.9866V34.2024H294.966V36.9866H302.34ZM312.423 43.0815V45.9409H319.421V43.0815H312.423ZM302.34 45.9409V43.0815H294.966V45.9409H302.34ZM357.42 26.2263C362.387 26.2263 366.6 30.2896 366.6 35.4064C366.6 40.4479 362.462 44.5864 357.42 44.5864C352.379 44.5864 348.24 40.4479 348.24 35.4064C348.24 30.2896 352.379 26.2263 357.42 26.2263ZM408.362 13.5849H421.906V0.793048L431.764 1.09403C432.29 1.09403 433.494 1.31977 433.494 2.07224C433.494 2.74946 433.043 3.12569 431.839 3.87815V13.5849H447.34V61.1406C447.34 67.2356 445.759 70.5464 435.902 70.5464C434.623 70.5464 433.795 70.4712 432.892 70.3207C432.667 66.4831 431.764 63.4733 429.883 60.4634C430.936 60.7644 431.688 60.9901 433.419 60.9901C437.558 60.9901 437.558 59.9367 437.558 57.905V47.3706C435.075 49.4775 434.473 50.0042 433.344 51.2834C430.936 47.9725 429.883 46.0161 427.399 41.1251C425.669 45.4141 424.239 47.9725 421.53 51.2834C420.853 50.6061 419.574 49.5527 417.166 48.123V69.6435H407.685V56.1744C405.202 56.7011 402.719 57.3783 400.687 58.507C399.483 52.6378 399.257 49.4775 399.182 42.1033L406.105 41.5013C406.255 47.3706 407.158 51.9606 407.685 53.8417V38.2657C406.932 38.5667 404.825 39.1687 402.493 40.2974C402.267 38.4162 402.192 38.1152 402.041 37.2875L398.279 37.5885V69.6435H389.325V44.5112C388.948 44.6617 388.723 44.6617 388.347 44.7369C387.745 55.4219 386.917 59.9367 386.089 63.5485C383.38 62.4198 379.768 61.8931 377.436 61.7426C379.768 54.7447 380.596 49.7032 380.822 41.0499L388.572 42.4795C388.873 42.5548 389.024 42.5548 389.325 42.63V38.341C388.271 38.4162 383.756 38.7925 382.778 38.8677C382.252 39.8459 381.875 40.2221 381.349 40.2221C380.747 40.2221 380.521 39.9212 380.446 38.8677L379.618 29.9134C381.048 29.9886 381.424 29.9886 384.735 29.9886C385.713 28.8599 387.669 26.2263 389.099 24.2699C388.422 23.6679 383.756 19.6799 379.317 16.67L384.434 9.37114C385.261 9.9731 385.487 10.0484 386.014 10.4246C388.121 6.66227 388.422 6.06029 391.055 0.0405851L399.031 3.8029C399.709 4.10389 400.386 4.70586 400.386 5.15734C400.386 6.06029 398.505 5.98505 398.053 5.98505C397.15 7.41473 393.313 13.9612 392.485 15.3156C393.388 15.9928 393.764 16.2938 394.291 16.7453C397.602 11.6285 398.58 9.9731 399.483 8.39293L407.158 12.682C407.534 12.9077 408.061 13.2087 408.362 13.5849ZM407.685 30.8164V14.9394C407.083 15.0146 406.932 15.0146 405.578 15.0899C403.396 18.7017 398.806 25.0224 395.194 29.9134C397.075 29.9134 399.257 29.9134 400.386 29.8381C400.085 28.9352 399.859 28.3332 399.332 26.5273L405.578 24.2699C406.18 25.6243 406.782 27.2798 407.685 30.8164ZM417.166 22.9155V40.9746C418.37 38.943 421.53 33.6757 422.132 22.9155H417.166ZM437.558 22.9155H431.613C432.29 29.3867 433.645 34.8797 437.558 40.6736V22.9155ZM469.763 8.0167H476.535V1.24452L488.048 1.92174C488.725 1.99699 489.327 2.22273 489.327 2.89995C489.327 3.35142 489.101 3.87815 487.295 4.48012V8.0167H490.983V16.7453H487.295V41.2004H491.509V49.6279H454.037V41.2004H459.078V16.7453H454.488V8.0167H459.078V1.696L470.44 2.14748C471.042 2.14748 471.569 2.59896 471.569 3.20093C471.569 3.9534 470.817 4.25438 469.763 4.7811V8.0167ZM476.535 27.2798H469.763V30.6659H476.535V27.2798ZM476.535 16.7453H469.763V20.2066H476.535V16.7453ZM476.535 37.8143H469.763V41.2004H476.535V37.8143ZM494.068 35.8579V3.57716H521.984V61.5921C521.984 66.4079 520.329 69.6435 508.515 69.4177C508.139 66.6336 506.634 62.4198 504.075 59.0337C505.957 59.41 507.386 59.711 508.891 59.711C510.998 59.711 510.998 58.5823 510.998 57.4536V44.8874H504.226C503.172 53.917 499.786 62.4951 493.089 70.2454C489.252 66.7089 488.123 66.3326 483.608 64.7525C485.264 62.9466 486.016 62.0436 487.07 60.6892C482.179 63.097 481.577 63.3228 479.62 65.0534C477.739 62.4198 476.009 59.6357 473.751 54.3685L481.652 50.2299C483.458 53.7665 485.038 56.1744 487.822 59.5605C490.305 55.8734 494.068 48.725 494.068 35.8579ZM510.998 35.7074V29.0104H504.903V34.4282C504.903 34.8797 504.828 35.2559 504.828 35.7074H510.998ZM504.903 13.2087V19.9056H510.998V13.2087H504.903ZM462.69 50.1547L472.096 54.3685C472.472 54.519 472.848 54.8199 472.848 55.4219C472.848 56.5506 471.569 56.5506 470.741 56.5506C467.506 61.8931 464.646 66.1069 461.712 69.3425C459.454 67.5366 455.993 66.1821 452.532 64.903C456.67 60.7644 459.906 56.5506 462.69 50.1547ZM561.438 66.2574C559.783 63.3479 558.679 61.8429 556.221 59.1842C567.107 57.1777 570.317 48.7501 570.317 43.533C570.317 39.4697 568.16 31.9952 558.729 31.2427C557.174 49.6029 549.599 63.2977 544.282 63.2977C540.369 63.2977 533.095 56.676 533.095 47.3956C533.095 36.6103 542.928 24.0191 557.676 24.0191C568.662 24.0191 578.243 31.4936 578.243 43.4828C578.243 45.7904 578.043 52.2114 572.324 58.9836C569.264 62.5452 565.702 64.4013 561.438 66.2574ZM550.302 32.7477C544.483 34.9047 540.52 42.2789 540.52 46.7937C540.52 50.6563 542.677 53.5658 543.73 53.5658C544.934 53.5658 545.887 51.3084 546.439 50.0042C548.596 45.0379 550.252 39.269 550.302 32.7477ZM61.2505 126.836H69.1514V134.812H61.2505V137.822H69.1514V145.873H61.2505V148.958H72.1613V157.537H45.825V159.568H36.344V131.501C35.6668 132.179 35.2153 132.48 34.1619 133.307C33.6351 131.878 32.8827 129.921 31.0768 127.513V153.624H21.7462V150.012H18.7363V158.741H8.35235V137.371C8.05136 137.747 7.37414 138.349 7.07316 138.65C6.3207 137.295 3.91281 132.781 0 130.448C7.14841 123.224 10.685 113.442 12.5661 103.585H3.16035V94.0286H29.6471V103.585H22.9501C22.6492 105.09 21.2195 111.712 19.2631 117.129H31.0768V123.074C38.8271 117.129 41.9122 107.799 43.1162 104.337H40.2568V111.11H31.0768V95.985H45.1478C45.5241 93.9534 45.9755 90.793 46.0508 89.4386L55.6823 90.6426C56.6605 90.793 57.2625 91.0188 57.2625 91.696C57.2625 92.298 56.51 92.7495 56.209 92.8999C55.9833 93.8781 55.6071 95.0821 55.3813 95.985H71.785V111.11H63.9594C63.3574 112.539 63.1317 112.991 61.8525 115.7H70.7316V123.826H61.2505V126.836ZM45.825 126.836H51.7695V123.826H45.825V126.836ZM51.7695 134.812H45.825V137.822H51.7695V134.812ZM55.1556 106.444L62.9812 108.401V104.337H52.8982C50.9418 110.207 49.1359 113.818 48.0824 115.7H51.5438C53.3497 111.937 54.0269 110.131 55.1556 106.444ZM51.7695 148.958V145.873H45.825V148.958H51.7695ZM21.7462 126.535H18.7363V140.305H21.7462V126.535ZM107 111.561L110.763 103.058C112.343 103.51 114.224 104.036 116.782 105.09C117.083 103.811 117.309 102.908 117.46 101.629H106.398V92.8247H144.473C144.548 96.3613 144.022 108.476 143.269 113.517C142.517 118.258 141.463 124.654 132.509 124.654C131.154 124.654 129.725 124.428 128.37 124.278C128.069 121.193 127.693 119.612 126.865 116.979C126.339 118.408 126.113 119.462 125.737 120.666C124.758 119.838 123.705 118.935 121.297 117.656C117.911 122.848 114.45 125.783 109.709 128.642C108.656 127.212 106.624 124.654 102.787 122.397V130.072H82.9967V122.096H102.787V122.246C105.571 120.741 109.559 118.408 113.02 113.668C109.86 112.389 108.43 112.013 107 111.561ZM134.616 101.629H127.016C126.489 105.692 126.038 107.272 125.436 109.153C127.994 110.583 128.596 111.034 129.649 111.862C128.972 112.84 128.596 113.367 128.145 114.195C128.747 114.42 129.95 114.947 131.305 114.947C132.659 114.947 133.562 114.27 133.939 111.787C134.24 109.755 134.616 105.541 134.616 101.629ZM82.9967 92.8247H102.787V100.124H82.9967V92.8247ZM82.9967 112.389H102.787V120.064H82.9967V112.389ZM120.469 127.664L126.489 122.547C129.725 126.084 132.735 129.846 135.519 133.759L141.237 130.373C145.15 136.844 147.859 145.648 148.687 148.357C144.624 149.485 143.796 149.861 139.733 151.818C139.281 149.41 139.131 148.733 138.905 147.905C137.55 157.085 135.218 158.966 129.725 158.966H122.576C118.965 158.966 115.353 158.665 115.353 151.667V139.402C114.6 143.24 113.246 148.432 110.311 153.85C108.129 152.495 107.226 151.968 105.194 151.065V158.741H95.7886V156.107H90.5214V159.944H81.0403V132.179H105.194V143.541C106.248 140.155 106.775 137.446 107.377 133.759L115.353 135.264V131.652L124.382 132.705C122.426 129.695 121.523 128.792 120.469 127.664ZM124.608 135.489V148.056C124.608 149.109 124.834 149.861 126.489 149.861C128.897 149.861 128.972 148.958 129.725 141.735C131.455 143.089 134.315 145.347 138.453 146.099C137.4 142.337 136.045 138.123 134.24 134.586C131.681 135.866 129.424 137.145 127.768 138.65C127.166 137.521 126.79 136.769 125.661 134.737C125.36 134.887 125.21 135.038 124.608 135.489ZM90.5214 147.303H95.7886V140.982H90.5214V147.303ZM79.4602 102.23H106.398V110.357H79.4602V102.23ZM168.452 111.862L176.729 114.521C177.28 114.671 177.732 114.822 177.732 115.273C177.732 115.976 176.678 116.076 176.377 116.076C175.625 119.487 175.324 120.791 174.973 122.096C179.287 122.096 186.461 122.246 186.461 134.386C186.461 142.663 183.852 149.736 181.444 152.947C180.591 154.1 178.535 156.458 174.02 156.458C172.465 156.458 170.207 156.257 168.702 155.906C168.753 155.354 168.853 154.903 168.853 154.05C168.853 153.298 168.803 151.191 168.1 147.328C169.254 147.98 170.558 148.432 172.465 148.432C173.819 148.432 174.622 148.231 175.424 147.479C177.13 145.974 178.735 140.355 178.735 134.135C178.735 128.968 175.123 129.269 172.966 129.42C169.003 143.014 164.288 150.639 160.225 155.906C158.118 154.351 154.857 152.696 152.85 151.943C158.168 145.773 162.331 138.7 164.79 130.924C162.382 131.526 158.419 132.68 156.813 133.483L154.054 125.406C156.111 125.005 165.04 123.149 166.896 122.848C167.95 118.032 168.251 114.37 168.452 111.862ZM184.153 121.042L190.273 117.129C195.791 123.299 199.303 131.677 199.303 135.64C199.303 138.248 198.45 139.653 195.741 140.957C195.289 141.158 193.283 142.111 190.724 142.512C189.671 139.553 189.069 138.098 187.815 135.79C189.169 135.489 191.025 135.088 191.025 133.483C191.025 132.229 189.771 128.918 188.417 126.61C187.113 124.353 185.206 122.246 184.153 121.042ZM216.358 118.183L218.967 111.461C220.723 111.712 228.448 112.865 235.822 117.029C233.916 119.688 232.662 121.845 231.307 124.353C227.094 121.393 220.974 119.186 216.358 118.183ZM213.399 120.54L221.726 123.199C222.077 123.299 222.478 123.4 222.478 123.851C222.478 124.453 221.876 124.503 221.325 124.554C220.121 126.811 218.766 129.771 218.014 133.232C222.478 130.172 228.297 128.567 232.662 128.567C241.29 128.567 245.504 134.938 245.504 140.907C245.504 150.489 236.474 157.06 219.87 157.06C218.415 157.06 217.161 157.01 216.208 156.96C215.907 154.201 215.506 152.846 213.85 148.532C215.556 148.933 217.312 149.285 221.274 149.285C232.662 149.285 237.177 145.021 237.177 140.807C237.177 139.352 236.474 135.69 231.307 135.69C224.134 135.69 218.917 140.305 215.305 143.917L208.131 141.308C209.586 132.73 211.091 127.262 213.399 120.54ZM301.688 102.23H321.327V111.787H303.193V122.998H317.414V133.232H303.193V147.604H322.456V158.063H273.094V147.604H292.056V133.232H278.06V122.998H292.056V111.787H275.051V102.23H291.605C289.573 100.124 287.466 98.1672 285.134 96.286L294.389 89.3634C298.979 92.9752 301.462 95.3831 305.525 99.7474C303.193 101.177 302.591 101.553 301.688 102.23ZM258.271 98.9197L263.914 90.0406C266.096 91.2445 272.492 94.7811 276.255 97.7157C273.696 101.403 271.74 104.864 270.611 106.971C267.827 104.789 262.108 100.951 258.271 98.9197ZM251.498 117.581L256.164 107.949C258.873 109.003 265.795 112.013 270.686 115.624C267.676 120.816 266.623 123.224 265.795 125.181C259.023 121.193 258.271 120.816 251.498 117.581ZM261.205 159.042L251.498 152.495C256.54 146.852 264.366 133.608 266.849 127.513C269.633 130.899 273.546 133.608 274.75 134.436C272.191 140.606 267.3 149.861 262.861 156.859C262.936 157.537 263.086 158.139 263.086 158.515C263.086 159.192 262.785 159.493 262.334 159.493C262.033 159.493 261.657 159.342 261.205 159.042ZM339.612 109.605H329.228V99.2206H357.746V90.1158L369.786 90.5673C370.162 90.5673 370.764 90.6426 370.764 91.2445C370.764 91.696 370.162 92.1475 369.41 92.599V99.2206H397.853V109.605H387.318C383.782 120.892 379.643 128.868 371.516 138.198C383.104 146.927 394.467 149.485 398.981 150.463C394.241 155.354 393.338 156.709 391.833 160.622C377.611 156.634 365.722 147.228 363.766 145.648C355.188 152.646 345.331 157.913 334.57 160.772C333.517 157.386 329.454 153.549 326.369 151.818C342.246 147.679 351.727 141.133 355.715 138.123C347.588 129.244 342.923 120.214 339.612 109.605ZM374.451 109.605H351.651C354.962 119.612 360.831 127.363 363.465 130.448C367.528 125.406 371.215 119.236 374.451 109.605ZM422.684 111.862L431.413 113.417C431.864 113.517 432.315 113.568 432.315 114.069C432.315 114.621 431.764 114.721 431.413 114.772C431.212 116.728 431.212 117.179 431.162 117.731C433.469 117.731 441.245 117.581 445.007 118.032V125.507C442.599 125.306 438.235 124.905 430.911 125.055V130.573C432.315 130.473 437.934 129.921 443.653 128.216V135.69C439.539 136.593 435.325 136.994 431.112 137.345C431.112 139.503 431.112 139.703 431.212 141.81C437.482 142.663 446.111 147.027 447.967 148.432C446.361 149.987 445.459 151.09 442.398 154.702C439.94 152.595 435.375 149.736 431.663 148.382C431.764 150.99 432.115 156.91 421.129 156.91C413.353 156.91 407.685 153.348 407.685 148.783C407.685 143.064 414.858 140.606 423.236 140.757C423.236 139.603 423.236 139.603 423.186 137.797C418.219 137.897 409.14 138.048 409.14 133.082C409.14 131.326 410.043 129.721 412.651 127.012L418.169 128.266C417.266 129.47 417.116 129.62 417.116 129.971C417.116 130.523 417.116 131.376 422.985 131.125C422.985 130.222 422.935 126.159 422.935 125.356C416.765 125.607 411.347 126.309 407.183 126.861V118.935C409.641 118.684 420.627 118.183 422.885 118.032C422.885 116.126 422.885 114.17 422.684 111.862ZM423.236 146.726C422.734 146.626 422.032 146.526 421.029 146.526C420.778 146.526 415.962 146.526 415.962 148.582C415.962 150.238 418.721 150.388 419.574 150.388C422.032 150.388 423.537 149.485 423.236 146.726ZM497.128 112.614L498.532 121.042C486.142 120.841 475.407 131.978 475.407 140.105C475.407 145.924 482.781 148.783 489.603 148.933C488.499 151.04 486.694 155.304 485.841 158.063C481.777 156.96 467.38 152.947 467.38 140.957C467.38 131.677 474.554 125.005 476.61 123.701C466.778 124.503 460.708 125.758 455.843 126.861L454.689 117.43C462.364 117.43 466.728 117.43 477.012 116.276C484.286 115.474 492.412 114.119 497.128 112.614ZM491.81 127.313L495.472 124.604C496.877 125.858 498.934 128.316 499.937 129.871C498.683 130.824 497.83 131.577 496.275 132.981C494.419 130.222 493.867 129.57 491.81 127.313ZM486.543 130.874L490.205 128.165C491.71 129.47 493.867 131.978 494.87 133.533C493.466 134.536 492.763 135.088 491.008 136.543C489.101 133.784 488.6 133.132 486.543 130.874Z" fill="#EB5C03"/>
<path d="M6.612 189.296L16.066 191.964C16.588 192.138 17.226 192.312 17.226 192.834C17.226 193.588 16.53 193.704 16.008 193.762C14.79 197.3 12.76 203.39 12.76 211.22C12.76 218.296 14.964 223.226 16.646 223.226C18.502 223.226 20.706 218.122 22.272 214.468C24.418 217.426 26.622 219.398 28.362 220.616C23.722 231.868 18.444 235.812 15.602 235.812C12.354 235.812 3.77 228.91 3.77 210.988C3.77 203.564 5.046 196.778 6.612 189.296ZM36.598 197.126L44.08 192.37C50.46 200.954 54.81 210.814 55.796 221.544C52.374 222.878 48.256 224.85 46.342 225.836C45.646 213.54 42.05 205.072 36.598 197.126ZM63.162 208.9L59.508 197.706C62.06 197.416 63.626 197.126 66.816 196.314C83.172 192.022 87.116 191.036 93.496 191.036C107.416 191.036 113.506 200.258 113.506 210.466C113.506 232.332 87.116 233.956 77.778 234.42C77.198 231.172 76.154 228.04 74.82 225.14C85.26 225.198 103.704 224.85 103.704 210.582C103.704 207.566 102.66 199.504 92.394 199.504C83.752 199.504 69.426 205.362 63.162 208.9ZM168.78 187.15L170.404 196.894C156.078 196.662 143.666 209.538 143.666 218.934C143.666 225.662 152.192 228.968 160.08 229.142C158.804 231.578 156.716 236.508 155.73 239.698C151.032 238.422 134.386 233.782 134.386 219.92C134.386 209.19 142.68 201.476 145.058 199.968C133.69 200.896 126.672 202.346 121.046 203.622L119.712 192.718C128.586 192.718 133.632 192.718 145.522 191.384C153.932 190.456 163.328 188.89 168.78 187.15ZM162.632 204.144L166.866 201.012C168.49 202.462 170.868 205.304 172.028 207.102C170.578 208.204 169.592 209.074 167.794 210.698C165.648 207.508 165.01 206.754 162.632 204.144ZM156.542 208.262L160.776 205.13C162.516 206.638 165.01 209.538 166.17 211.336C164.546 212.496 163.734 213.134 161.704 214.816C159.5 211.626 158.92 210.872 156.542 208.262ZM199.288 185.294L208.684 188.832C209.322 189.064 209.67 189.238 209.67 189.76C209.67 190.572 208.684 190.746 207.988 190.804C207.35 191.79 206.654 192.95 204.566 196.894C207.64 197.184 210.598 197.3 211.816 197.3C213.034 197.3 213.846 197.242 214.658 197.184C213.498 199.62 212.338 204.608 212.106 206.348C210.366 206.406 206.248 206.464 201.144 205.826C200.448 207.392 199.636 209.48 199.056 210.93C200.506 211.162 204.798 211.742 211.932 211.8C210.83 214.932 209.902 218.586 209.438 220.384C205.9 220.152 201.898 219.804 196.446 218.992C196.272 219.63 195.808 221.544 195.808 223.69C195.808 230.766 202.362 230.766 205.204 230.766C207.698 230.766 216.456 230.766 216.456 222.356C216.456 218.644 213.788 213.714 213.498 213.308C217.268 212.554 219.472 211.684 222.256 210.176C223.648 212.728 226.258 218.238 226.258 223.342C226.258 236.102 212.802 239.06 205.204 239.06C193.546 239.06 187.108 233.028 187.108 224.502C187.108 221.312 187.63 218.876 187.978 217.484C185.31 216.962 182.99 216.266 180.438 215.338L182.41 206.754C185.716 208.03 186.122 208.146 190.24 209.248C190.472 208.494 190.878 207.218 191.98 204.086C188.79 203.332 186.528 202.52 183.338 201.186L185.078 192.196C189.892 194.052 192.328 194.632 195.344 195.386C195.924 193.82 198.708 186.744 199.288 185.294ZM271.266 196.024H268.598C267.032 198.17 265.814 199.504 265.002 200.374H285.302V231.056C285.302 236.102 285.302 240.394 274.92 239.814C274.804 237.204 274.282 235.986 272.89 233.434V235.754H256.65V237.61H248.878V219.34H272.89V231.694C273.18 231.752 274.862 231.926 275.79 231.926C277.588 231.926 277.588 230.708 277.588 229.432V217.89H262.856V200.432C261.058 199.156 260.014 198.692 257.288 197.416C257.694 197.068 258.274 196.488 258.854 196.024H255.316C255.722 197.126 255.954 197.88 256.128 198.75C254.968 198.866 251.314 199.156 248.588 200.084C247.892 197.764 247.254 196.198 247.138 196.024H243.658C242.15 198.286 241.164 199.504 240.352 200.374H259.26V217.658H244.528V239.234H236.698V200.374H237.974C235.132 198.75 234.842 198.576 232.29 197.59C234.784 195.038 238.438 190.05 240.294 185.642L248.472 187.034C249.052 187.15 249.458 187.266 249.458 187.672C249.458 188.252 248.878 188.484 247.776 188.716C247.486 189.296 247.37 189.528 247.196 189.818H261.174V193.414C261.812 192.602 264.306 189.47 265.814 185.758L273.818 187.15C274.108 187.208 274.456 187.498 274.456 187.846C274.456 188.426 273.586 188.6 272.774 188.774C272.6 189.18 272.368 189.586 272.252 189.818H287.564V196.024H279.734C280.546 197.532 280.604 197.764 280.778 198.692C279.618 198.75 276.196 198.982 272.774 200.142C271.962 197.706 271.788 197.3 271.266 196.024ZM256.65 225.836H265.35V224.038H256.65V225.836ZM265.35 229.084H256.65V230.998H265.35V229.084ZM244.528 205.188V207.16H251.952V205.188H244.528ZM251.952 212.96V211.046H244.528V212.96H251.952ZM270.106 205.188V207.16H277.588V205.188H270.106ZM277.588 212.96V211.046H270.106V212.96H277.588ZM340.054 220.732H323.292V223.864H345.68V231.23H323.292V239.756H314.592V231.23H292.842V223.864H314.592V220.732H298.004V197.068H301.658C299.106 193.066 297.54 191.326 296.612 190.282L303.514 186.28C305.196 188.02 308.792 192.254 310.532 195.386C309.372 195.966 308.502 196.43 307.458 197.068H315.346C314.186 194.4 312.62 191.558 310.242 188.31L317.724 184.656C321.552 189.528 323.176 193.298 324.046 195.444C322.828 195.908 321.784 196.372 320.392 197.068H325.902C329.15 192.022 330.716 188.89 332.224 185.352L340.866 188.948C341.098 189.064 341.33 189.238 341.33 189.586C341.33 190.166 340.634 190.282 339.648 190.34C338.43 192.66 337.038 194.922 335.588 197.068H340.054V220.732ZM331.76 206.232V203.738H323.292V206.232H331.76ZM331.76 214.062V211.452H323.292V214.062H331.76ZM306.182 214.062H314.592V211.452H306.182V214.062ZM306.182 203.738V206.232H314.592V203.738H306.182ZM356.526 187.324L365.458 190.688C366.56 191.094 367.024 191.268 367.024 191.674C367.024 192.196 365.864 192.312 365.458 192.37C363.718 197.532 361.688 204.144 361.688 216.324C361.688 218.702 361.804 219.34 362.094 220.964C362.442 220.326 363.834 217.774 364.53 216.614C366.212 219.224 368.068 220.732 368.996 221.37C367.546 224.096 364.878 230.824 365.168 235.232L356.932 237.436C354.96 231.984 352.814 225.546 352.814 214.236C352.814 203.738 354.438 196.546 356.526 187.324ZM373.752 201.882V193.182C375.492 193.298 377.812 193.472 381.292 193.472C390.862 193.472 396.14 192.138 398.344 191.616C398.402 192.544 398.634 197.648 399.156 200.432C396.778 200.896 390.688 202.172 381.292 202.172C377.87 202.172 375.608 201.998 373.752 201.882ZM373.346 216.556L380.77 217.948C380.422 218.934 379.9 220.906 379.9 222.066C379.9 224.618 381.292 225.024 387.962 225.024C391.848 225.024 396.952 224.792 402.288 223.458C401.244 227.75 401.418 232.1 401.418 232.912C397.416 233.492 390.862 233.666 386.744 233.666C378.102 233.666 371.432 232.158 371.432 225.082C371.432 224.328 371.432 221.022 373.346 216.556ZM412.728 235V225.198H422.472V235H412.728ZM412.67 189.296H422.472V202.81L420.384 219.862H414.816L412.67 202.81V189.296Z" fill="black"/>
</svg>
