<svg width="66" height="58" viewBox="0 0 66 58" fill="none" xmlns="http://www.w3.org/2000/svg">
<mask id="mask0_1173_36" style="mask-type:alpha" maskUnits="userSpaceOnUse" x="0" y="0" width="66" height="58">
<rect width="66" height="58" fill="#D9D9D9"/>
</mask>
<g mask="url(#mask0_1173_36)">
<path d="M0 -4H66V52C66 55.3137 63.3137 58 60 58H6C2.68629 58 0 55.3137 0 52V-4Z" fill="#006949"/>
<path d="M21.4247 43.544C19.3507 43.544 15.9507 42.932 13.6727 39.328C11.5647 36.064 11.4627 31.338 11.4627 29.332C11.4627 24.504 12.3467 21.376 13.7407 19.234C15.5087 16.446 18.4327 15.12 21.4247 15.12C24.3827 15.12 27.3407 16.412 29.1427 19.268C31.1827 22.464 31.3867 26.952 31.3867 29.332C31.3867 33.31 30.8087 36.812 29.1767 39.362C26.8987 42.932 23.4647 43.544 21.4247 43.544ZM21.4247 38.274C24.6547 38.274 25.6407 34.432 25.6407 29.332C25.6407 23.79 24.4507 20.39 21.4247 20.39C18.1947 20.39 17.2087 24.3 17.2087 29.332C17.2087 34.874 18.3647 38.274 21.4247 38.274ZM53.526 15.664V20.934H42.782V25.49C43.496 25.286 44.448 25.014 45.91 25.014C50.976 25.014 55.498 28.312 55.498 34.058C55.498 38.512 52.574 43.544 44.38 43.544C41.218 43.544 38.498 42.864 35.676 41.47L37.104 36.2C40.436 38.274 43.53 38.274 44.346 38.274C48.936 38.274 49.752 35.622 49.752 34.126C49.752 31.78 47.95 30.25 45.434 30.25C45.026 30.25 43.258 30.25 42.034 31.644H37.308V15.664H53.526Z" fill="white"/>
</g>
</svg>
