<svg width="66" height="58" viewBox="0 0 66 58" fill="none" xmlns="http://www.w3.org/2000/svg">
<mask id="mask0_1173_33" style="mask-type:alpha" maskUnits="userSpaceOnUse" x="0" y="0" width="66" height="58">
<rect width="66" height="58" fill="#D9D9D9"/>
</mask>
<g mask="url(#mask0_1173_33)">
<path d="M0 -4H66V52C66 55.3137 63.3137 58 60 58H6C2.68629 58 0 55.3137 0 52V-4Z" fill="#006949"/>
<path d="M20.4247 43.544C18.3507 43.544 14.9507 42.932 12.6727 39.328C10.5647 36.064 10.4627 31.338 10.4627 29.332C10.4627 24.504 11.3467 21.376 12.7407 19.234C14.5087 16.446 17.4327 15.12 20.4247 15.12C23.3827 15.12 26.3407 16.412 28.1427 19.268C30.1827 22.464 30.3867 26.952 30.3867 29.332C30.3867 33.31 29.8087 36.812 28.1767 39.362C25.8987 42.932 22.4647 43.544 20.4247 43.544ZM20.4247 38.274C23.6547 38.274 24.6407 34.432 24.6407 29.332C24.6407 23.79 23.4507 20.39 20.4247 20.39C17.1947 20.39 16.2087 24.3 16.2087 29.332C16.2087 34.874 17.3647 38.274 20.4247 38.274ZM45.556 37.73H54.736V43H33.554C46.61 29.094 47.902 26.238 47.902 23.96C47.902 22.294 46.882 20.424 44.4 20.424C40.66 20.424 38.654 23.688 37.804 25.082L35.288 19.676C37.634 16.684 40.694 15.12 44.468 15.12C49.33 15.12 53.648 18.044 53.648 23.824C53.648 28.278 51.166 31.406 45.556 37.73Z" fill="white"/>
</g>
</svg>
